<svg xmlns="http://www.w3.org/2000/svg" xmlns:xlink="http://www.w3.org/1999/xlink" width="36" height="42.9969482421875" viewBox="0 0 36 42.9969482421875" fill="none">
<circle cx="18" cy="21" r="18"   fill="#CBD3F9" >
</circle>
<circle cx="18" cy="18" r="18"   fill="#F5F6FA" >
</circle>
<circle cx="18" cy="18" r="15"   fill="#A1ADC3" >
</circle>
<ellipse cx="18.5" cy="37.45838165283203" rx="5.5" ry="5.538459777832031"   fill="#CBD3F9" >
</ellipse>
<ellipse cx="18.5" cy="35.53845977783203" rx="5.5" ry="5.538459777832031"   fill="#F5F6FA" >
</ellipse>
<path d="M16.3125 35.2807C16.3125 35.1196 16.4431 34.989 16.6042 34.989L20.396 34.989C20.5571 34.989 20.6877 35.1196 20.6877 35.2807L20.6877 37.8334C20.6877 37.9945 20.5571 38.1251 20.396 38.1251L16.6042 38.1251C16.4431 38.1251 16.3125 37.9945 16.3125 37.8334L16.3125 35.2807Z" stroke="rgba(161, 173, 195, 1)" stroke-width="1"  stroke-linecap="round" >
</path>
<path   fill="rgba(161, 173, 195, 1)"  d="M19.3124 34.989L19.3124 34.1873L19.8124 34.1873L19.3124 34.1873C19.3124 33.7386 18.9486 33.3749 18.4999 33.3749L18.4999 32.8749L18.4999 33.3749C18.0512 33.3749 17.6875 33.7386 17.6875 34.1873L17.1875 34.1873L17.6875 34.1873L17.6875 34.989L16.6875 34.989L16.6875 34.1873L16.6875 34.1873C16.6875 33.1863 17.499 32.3749 18.4999 32.3749L18.4999 32.3749C19.5009 32.3749 20.3124 33.1863 20.3124 34.1873L20.3124 34.1873L20.3124 34.989L19.3124 34.989ZM17.1875 35.489C16.9114 35.489 16.6875 35.2652 16.6875 34.989C16.6875 34.7129 16.9114 34.489 17.1875 34.489C17.4636 34.489 17.6875 34.7129 17.6875 34.989C17.6875 35.2652 17.4636 35.489 17.1875 35.489ZM19.8124 35.489C19.5362 35.489 19.3124 35.2652 19.3124 34.989C19.3124 34.7129 19.5362 34.489 19.8124 34.489C20.0885 34.489 20.3124 34.7129 20.3124 34.989C20.3124 35.2652 20.0885 35.489 19.8124 35.489Z">
</path>
<path d="M18.9373 36.3529C18.9373 36.5945 18.7414 36.7904 18.4998 36.7904C18.2581 36.7904 18.0623 36.5945 18.0623 36.3529C18.0623 36.1113 18.2581 35.9154 18.4998 35.9154C18.7414 35.9154 18.9373 36.1113 18.9373 36.3529Z"   fill="#A1ADC3" >
</path>
<path   fill="rgba(161, 173, 195, 1)"  d="M18.3669 37.1987L18.3669 36.5919L18.6585 36.5919L18.6585 37.1987L18.3669 37.1987ZM18.5127 37.6987C18.4322 37.6987 18.3669 37.4749 18.3669 37.1987C18.3669 36.9226 18.4322 36.6987 18.5127 36.6987C18.5932 36.6987 18.6585 36.9226 18.6585 37.1987C18.6585 37.4749 18.5932 37.6987 18.5127 37.6987ZM18.5127 37.0919C18.4322 37.0919 18.3669 36.8681 18.3669 36.5919C18.3669 36.3158 18.4322 36.0919 18.5127 36.0919C18.5932 36.0919 18.6585 36.3158 18.6585 36.5919C18.6585 36.8681 18.5932 37.0919 18.5127 37.0919Z">
</path>
</svg>
