<svg xmlns="http://www.w3.org/2000/svg" xmlns:xlink="http://www.w3.org/1999/xlink" width="30" height="30" viewBox="0 0 30 30" fill="none">
<path     fill="#A6A6A6" fill-opacity="0.8" d="M1.22465e-15 10L-3.67394e-15 20C-4.68847e-15 25.5228 4.47715 30 10 30L20 30C25.5228 30 30 25.5228 30 20L30 10C30 4.47715 25.5228 -2.44929e-15 20 -2.44929e-15L10 -2.44929e-15C4.47715 -3.12565e-15 1.56282e-15 4.47715 1.22465e-15 10">
</path>
<path   fill-rule="evenodd"  fill="#FFFFFF" fill-opacity="0.6" d="M24 13C24 12.4476 23.5523 11.9999 22.9999 11.9999L20.9999 11.9999L20.9999 10.9999C20.9999 7.68632 18.3136 5 15 5C11.6864 5 9.00006 7.68632 9.00006 10.9999L9.00006 11.9999L7.00008 11.9999C6.44766 11.9999 6 12.4476 6 13L6 25C6 25.5523 6.44766 26 7.00008 26L22.9999 26C23.5523 26 24 25.5523 24 25L24 13ZM19 11C19 8.79085 17.2091 7 15 7C12.7909 7 11 8.79085 11 11L11 12L19 12L19 11ZM8 14L8 24L22 24L22 14L8 14ZM14.0001 22.0001L16.0001 22.0001L16.0001 19.732C16.784 19.2794 17.1662 18.3567 16.9319 17.4824C16.6976 16.608 15.9053 16 15.0001 16C14.0949 16 13.3025 16.608 13.0682 17.4824C12.8339 18.3567 13.2162 19.2794 14.0001 19.732L14.0001 22.0001Z">
</path>
</svg>
