<svg xmlns="http://www.w3.org/2000/svg" xmlns:xlink="http://www.w3.org/1999/xlink" width="160.0008544921875" height="19.000244140625" viewBox="0 0 160.0008544921875 19.000244140625" fill="none">
<path d="M132.111 2.32068L127.935 0L119.734 13.6698L119.863 17.0471L112.19 17.0471L112.19 18.0495L119.903 18.0495L123.911 15.9905L132.111 2.32068ZM120.618 16.7756L120.552 14.8968L122.34 15.8893L120.618 16.7756ZM128.286 1.26649L130.791 2.65891L123.559 14.7215L121.054 13.3291L128.286 1.26649Z"   fill="#317DF7" fill-opacity="0.6">
</path>
<path d="M13.9564 3.27136L18.1327 0.950684L26.3329 14.6205L26.204 17.9978L33.8768 17.9978L33.8768 19.0001L26.1641 19.0001L22.1566 16.9412L13.9564 3.27136ZM25.4493 17.7263L25.5149 15.8475L23.7268 16.8399L25.4493 17.7263ZM17.7811 2.21717L15.2758 3.6096L22.5081 15.6722L25.0134 14.2798L17.7811 2.21717Z"   fill="#317DF7" fill-opacity="0.6">
</path>
<path d="M146.056 2.32068L141.88 0L133.679 13.6698L133.808 17.0471L126.135 17.0471L126.135 18.0495L133.848 18.0495L137.856 15.9905L146.056 2.32068ZM134.563 16.7756L134.497 14.8968L136.285 15.8893L134.563 16.7756ZM142.231 1.26649L144.736 2.65891L137.504 14.7215L134.999 13.3291L142.231 1.26649Z"   fill="#317DF7" fill-opacity="0.6">
</path>
<path d="M-5.14984e-05 3.27136L4.17623 0.950684L12.3764 14.6205L12.2475 17.9978L19.9204 17.9978L19.9204 19.0001L12.2077 19.0001L8.20017 16.9412L-5.14984e-05 3.27136ZM11.4929 17.7263L11.5585 15.8475L9.77036 16.8399L11.4929 17.7263ZM3.8247 2.21717L1.31942 3.6096L8.5517 15.6722L11.057 14.2798L3.8247 2.21717Z"   fill="#317DF7" fill-opacity="0.6">
</path>
<path d="M160.001 2.32068L155.825 0L147.624 13.6698L147.753 17.0471L140.08 17.0471L140.08 18.0495L147.793 18.0495L151.801 15.9905L160.001 2.32068ZM148.508 16.7756L148.442 14.8968L150.23 15.8893L148.508 16.7756ZM156.176 1.26649L158.681 2.65891L151.449 14.7215L148.944 13.3291L156.176 1.26649Z"   fill="#317DF7" fill-opacity="0.6">
</path>
<path d="M27.8879 3.27136L32.0642 0.950684L40.2644 14.6205L40.1355 17.9978L47.8083 17.9978L47.8083 19.0001L40.0956 19.0001L36.0881 16.9412L27.8879 3.27136ZM39.3808 17.7263L39.4465 15.8475L37.6583 16.8399L39.3808 17.7263ZM31.7126 2.21717L29.2074 3.6096L36.4396 15.6722L38.9449 14.2798L31.7126 2.21717Z"   fill="#317DF7" fill-opacity="0.6">
</path>
</svg>
