<svg xmlns="http://www.w3.org/2000/svg" xmlns:xlink="http://www.w3.org/1999/xlink" width="47" height="49" viewBox="0 0 47 49" fill="none">
<circle cx="20" cy="23.33331298828125" r="20"   fill="#CBD3F9" >
</circle>
<circle cx="20" cy="20" r="20"   fill="#F5F6FA" >
</circle>
<ellipse cx="20.00016212463379" cy="19.999977111816406" rx="16.66666603088379" ry="16.666664123535156"   fill="#A1ADC3" >
</ellipse>
<rect  x="5" y="36" width="29" height="13" rx="5"    fill="#CBD3F9" >
</rect>
<rect  x="5" y="34" width="29" height="13" rx="5"    fill="#FFFFFF" >
</rect>
<rect  x="6" y="35" width="27" height="11" rx="5"    fill="#A1ADC3" >
</rect>
<g >
<path     fill="#FFFFFF"  d="M19.32 44.99Q16.86 44.64 15.23 44.08Q13.59 44.65 10.83 45.08L10.6 44.39Q12.58 44.14 14.22 43.69Q13.25 43.25 12.47 42.69Q11.75 43.26 10.99 43.67L10.61 43.03Q12.03 42.3 13.09 41.16L11.9 41.16L11.9 38.28Q11.38 38.86 10.89 39.33L10.38 38.69Q11.06 38.14 11.67 37.355Q12.28 36.57 12.61 35.81L13.37 36.13L13.04 36.71L19.08 36.71L19.08 37.39L12.59 37.39Q12.3 37.8 12.07 38.08L18.27 38.08L18.27 41.16L14.07 41.16Q13.87 41.39 13.46 41.8L18.36 41.8L18.36 42.41Q17.39 43.17 16.23 43.7Q17.7 44.07 19.47 44.23L19.32 44.99ZM17.51 39.35L17.51 38.7L12.68 38.7L12.68 39.35L17.51 39.35ZM17.51 39.89L12.68 39.89L12.68 40.56L17.51 40.56L17.51 39.89ZM13.17 42.41Q14.04 42.99 15.19 43.38Q16.42 42.95 17.17 42.41L13.17 42.41ZM28.73 36.55Q28.73 37.93 28.655 39.985Q28.58 42.04 28.46 43.1Q28.39 43.74 28.21 44.085Q28.03 44.43 27.68 44.585Q27.33 44.74 26.69 44.76Q26.55 44.77 26.25 44.77Q25.56 44.77 24.94 44.7L24.77 43.88Q25.52 43.98 26.1 43.98Q26.71 43.98 26.99 43.9Q27.27 43.82 27.395 43.575Q27.52 43.33 27.58 42.77Q27.7 41.69 27.77 40.125Q27.84 38.56 27.83 37.4L21.02 37.4L21.02 36.55L28.73 36.55ZM22.36 37.89Q22.85 38.18 23.595 38.705Q24.34 39.23 24.94 39.69L24.41 40.43Q23.83 39.95 23.085 39.41Q22.34 38.87 21.82 38.56L22.36 37.89ZM20.72 42.74Q22.28 42.19 24 41.475Q25.72 40.76 26.81 40.19L27.02 41.03Q25.94 41.57 24.235 42.295Q22.53 43.02 21.04 43.57L20.72 42.74Z">
</path>
</g>
<path   fill-rule="evenodd"  fill="#FFC300"  d="M9.00002 12.3435L9 12.34C9 12.1522 9.20078 12 9.44845 12C10.6367 12 11.8427 12.1063 13.0663 12.3188C14.1101 12.5001 15.1424 12.7541 16.1632 13.0808C17.0098 13.3516 17.806 13.658 18.5519 13.9998C19.1697 14.2829 19.6704 14.5501 20.054 14.8014C20.1135 14.8399 20.1595 14.8901 20.186 14.9472C20.2188 14.9945 20.2373 15.0484 20.2372 15.1056L20.2104 28.6053C20.2104 28.6131 20.2101 28.6209 20.2094 28.6286C20.2106 28.639 20.2112 28.6495 20.2112 28.66C20.2112 28.8477 20.0104 29 19.7628 29C19.6498 29 19.5466 28.9683 19.4677 28.916C19.1224 28.6898 18.6625 28.445 18.0879 28.1817C17.3791 27.8569 16.6212 27.5654 15.8144 27.3073C14.8417 26.996 13.8589 26.7541 12.866 26.5816C11.7083 26.3805 10.5691 26.28 9.44845 26.28C9.20078 26.28 9 26.1277 9 25.94C9 25.9324 9.00032 25.925 9.00096 25.9176C9.00032 25.9102 9 25.9027 9 25.8952L9 12.347L9.00002 12.3435ZM9.8969 25.605C10.9398 25.6284 11.9963 25.733 13.0663 25.9188C14.1101 26.1001 15.1424 26.3541 16.1632 26.6807C17.0098 26.9516 17.806 27.258 18.5519 27.5997C18.8299 27.7272 19.0842 27.8514 19.3148 27.9724L19.34 15.2348C19.0117 15.0315 18.5943 14.8138 18.0879 14.5817C17.3791 14.2569 16.6212 13.9654 15.8144 13.7072C14.8417 13.396 13.8589 13.1541 12.866 12.9817C11.8624 12.8073 10.8727 12.7086 9.8969 12.6853L9.8969 25.605Z">
</path>
<path fill-rule="evenodd"  fill="rgba(255, 255, 255, 1)"  d="M20.186 14.9472C20.1595 14.8901 20.1135 14.8399 20.054 14.8014Q19.4786 14.4245 18.5519 13.9998Q17.4331 13.4871 16.1632 13.0808Q14.6319 12.5908 13.0663 12.3188Q11.2308 12 9.44845 12C9.20078 12 9 12.1522 9 12.34L9.00002 12.3435L9 12.347L9 25.8952C9 25.9027 9.00032 25.9102 9.00096 25.9176C9.00032 25.925 9 25.9324 9 25.94C9 26.1277 9.20078 26.28 9.44845 26.28Q11.1294 26.28 12.866 26.5816C13.8589 26.7541 14.8417 26.996 15.8144 27.3073C16.6212 27.5654 17.3791 27.8569 18.0879 28.1817Q18.9498 28.5767 19.4677 28.916C19.5466 28.9683 19.6498 29 19.7628 29C20.0104 29 20.2112 28.8477 20.2112 28.66C20.2112 28.6495 20.2106 28.639 20.2094 28.6286C20.2101 28.6209 20.2104 28.6131 20.2104 28.6053L20.2372 15.1056C20.2373 15.0484 20.2188 14.9945 20.186 14.9472ZM9.8969 25.605L9.8969 12.6853Q10.1463 12.6913 10.3969 12.7038Q11.6171 12.7647 12.866 12.9817Q14.3553 13.2404 15.8144 13.7072Q17.0246 14.0945 18.0879 14.5817C18.5943 14.8138 19.0117 15.0315 19.34 15.2348L19.3159 27.4111L19.3148 27.9724C19.1591 27.8907 18.9926 27.8075 18.8153 27.7229C18.73 27.6822 18.6422 27.6411 18.5519 27.5997C17.806 27.258 17.0098 26.9516 16.1632 26.6807C15.1424 26.3541 14.1101 26.1001 13.0663 25.9188Q11.4613 25.64 9.8969 25.605Z">
</path>
<path fill-rule="evenodd"  fill="rgba(255, 255, 255, 1)"  d="M19.814 14.9472C19.8405 14.8901 19.8865 14.8399 19.946 14.8014Q20.5214 14.4245 21.4481 13.9998Q22.5669 13.4871 23.8368 13.0808Q25.3681 12.5908 26.9337 12.3188Q28.7692 12 30.5515 12C30.7992 12 31 12.1522 31 12.34L31 12.3435L31 12.347L31 25.8952C31 25.9027 30.9997 25.9102 30.999 25.9176C30.9997 25.925 31 25.9324 31 25.94C31 26.1277 30.7992 26.28 30.5515 26.28Q28.8706 26.28 27.134 26.5816C26.1411 26.7541 25.1583 26.996 24.1856 27.3073C23.3788 27.5654 22.6209 27.8569 21.9121 28.1817Q21.0502 28.5767 20.5323 28.916C20.4534 28.9683 20.3502 29 20.2372 29C19.9896 29 19.7888 28.8477 19.7888 28.66C19.7888 28.6495 19.7894 28.639 19.7906 28.6286C19.7899 28.6209 19.7896 28.6131 19.7896 28.6053L19.7628 15.1056C19.7627 15.0484 19.7812 14.9945 19.814 14.9472ZM30.1031 25.605L30.1031 12.6853Q29.8537 12.6913 29.6031 12.7038Q28.3829 12.7647 27.134 12.9817Q25.6447 13.2404 24.1856 13.7072Q22.9754 14.0945 21.9121 14.5817C21.4057 14.8138 20.9883 15.0315 20.66 15.2348L20.6841 27.4111L20.6852 27.9724C20.8409 27.8907 21.0074 27.8075 21.1847 27.7229C21.27 27.6822 21.3578 27.6411 21.4481 27.5997C22.194 27.258 22.9902 26.9516 23.8368 26.6807C24.8576 26.3541 25.8899 26.1001 26.9337 25.9188Q28.5387 25.64 30.1031 25.605Z">
</path>
<path    stroke="rgba(255, 255, 255, 1)" stroke-width="1"  stroke-linecap="round"  d="M12 18L17 18.0107">
</path>
<path    stroke="rgba(255, 255, 255, 1)" stroke-width="1"  stroke-linecap="round"  d="M12 22L17 22">
</path>
<circle cx="25" cy="20" r="3"   fill="#FFFFFF" >
</circle>
<path    stroke="rgba(161, 173, 195, 1)" stroke-width="0.5"  stroke-linecap="round"  d="M25 20L25 18">
</path>
<path    stroke="rgba(161, 173, 195, 1)" stroke-width="0.5"  stroke-linecap="round"  d="M25 20L27 20">
</path>
<ellipse cx="40.5" cy="38.54545246471058" rx="6.5" ry="6.545452464710582"   fill="#CBD3F9" >
</ellipse>
<ellipse cx="40.5" cy="37.54545246471058" rx="6.5" ry="6.545452464710582"   fill="#FFFFFF" >
</ellipse>
<path d="M37.6875 37.218C37.6875 37.0109 37.8554 36.843 38.0625 36.843L42.9377 36.843C43.1448 36.843 43.3127 37.0109 43.3127 37.218L43.3127 40.5001C43.3127 40.7072 43.1448 40.8751 42.9377 40.8751L38.0625 40.8751C37.8554 40.8751 37.6875 40.7072 37.6875 40.5001L37.6875 37.218Z" stroke="rgba(161, 173, 195, 1)" stroke-width="1"  stroke-linecap="round" >
</path>
<path   fill="rgba(161, 173, 195, 1)"  d="M41.6873 36.843L41.6873 35.8123L42.1873 35.8123L41.6873 35.8123C41.6873 35.1565 41.1557 34.6249 40.4999 34.6249L40.4999 34.1249L40.4999 34.6249C39.8441 34.6249 39.3125 35.1565 39.3125 35.8123L38.8125 35.8123L39.3125 35.8123L39.3125 36.843L38.3125 36.843L38.3125 35.8123L38.3125 35.8123C38.3125 34.6042 39.2918 33.6249 40.4999 33.6249L40.4999 33.6249C41.708 33.6249 42.6873 34.6042 42.6873 35.8123L42.6873 35.8123L42.6873 36.843L41.6873 36.843ZM38.8125 37.343C38.5364 37.343 38.3125 37.1192 38.3125 36.843C38.3125 36.5669 38.5364 36.343 38.8125 36.343C39.0886 36.343 39.3125 36.5669 39.3125 36.843C39.3125 37.1192 39.0886 37.343 38.8125 37.343ZM42.1873 37.343C41.9112 37.343 41.6873 37.1192 41.6873 36.843C41.6873 36.5669 41.9112 36.343 42.1873 36.343C42.4635 36.343 42.6873 36.5669 42.6873 36.843C42.6873 37.1192 42.4635 37.343 42.1873 37.343Z">
</path>
<path d="M41.0623 38.5965C41.0623 38.9072 40.8104 39.159 40.4998 39.159C40.1891 39.159 39.9373 38.9072 39.9373 38.5965C39.9373 38.2858 40.1891 38.034 40.4998 38.034C40.8104 38.034 41.0623 38.2858 41.0623 38.5965Z"   fill="#A1ADC3" >
</path>
<path   fill="rgba(161, 173, 195, 1)"  d="M40.3286 39.6841L40.3286 38.9039L40.7036 38.9039L40.7036 39.6841L40.3286 39.6841ZM40.5161 40.1841C40.4126 40.1841 40.3286 39.9603 40.3286 39.6841C40.3286 39.408 40.4126 39.1841 40.5161 39.1841C40.6197 39.1841 40.7036 39.408 40.7036 39.6841C40.7036 39.9603 40.6197 40.1841 40.5161 40.1841ZM40.5161 39.4039C40.4126 39.4039 40.3286 39.1801 40.3286 38.9039C40.3286 38.6278 40.4126 38.4039 40.5161 38.4039C40.6197 38.4039 40.7036 38.6278 40.7036 38.9039C40.7036 39.1801 40.6197 39.4039 40.5161 39.4039Z">
</path>
</svg>
