<?xml version="1.0" standalone="no"?><!DOCTYPE svg PUBLIC "-//W3C//DTD SVG 1.1//EN" "http://www.w3.org/Graphics/SVG/1.1/DTD/svg11.dtd"><svg t="1728560086848" class="icon" viewBox="0 0 1024 1024" version="1.1" xmlns="http://www.w3.org/2000/svg" p-id="1821" xmlns:xlink="http://www.w3.org/1999/xlink" width="200" height="200"><path d="M364.501333 299.349333a32 32 0 0 1 36.053334-2.773333l4.096 2.773333 185.002666 149.12 186.922667-125.226666a32 32 0 0 1 41.472 5.034666l2.944 3.712a32 32 0 0 1-5.034667 41.472l-3.754666 2.944-206.464 138.368a32 32 0 0 1-34.133334 0.938667l-3.754666-2.602667-183.338667-147.797333-142.592 114.730667a32 32 0 0 1-41.770667-1.450667l-3.2-3.413333a32 32 0 0 1 1.408-41.813334l3.456-3.2 162.688-130.816z" fill="#449ef5" p-id="1822"></path><path d="M981.333333 85.333333v597.333334a42.666667 42.666667 0 0 1-42.666666 42.666666H85.333333a42.666667 42.666667 0 0 1-42.666666-42.666666V85.333333a42.666667 42.666667 0 0 1 42.666666-42.666666h853.333334a42.666667 42.666667 0 0 1 42.666666 42.666666z m-64 21.333334h-810.666666v554.666666h810.666666v-554.666666z" fill="#449ef5" p-id="1823"></path><path d="M544 693.333333v256h-64v-256z" fill="#449ef5" p-id="1824"></path><path d="M756.053333 917.333333c18.346667 0 33.28 14.336 33.28 32a32.426667 32.426667 0 0 1-28.757333 31.701334L756.053333 981.333333H267.946667c-18.346667 0-33.28-14.336-33.28-32a32.426667 32.426667 0 0 1 28.757333-31.701333l4.522667-0.298667h488.106666z" fill="#449ef5" p-id="1825"></path></svg>