<svg xmlns="http://www.w3.org/2000/svg" xmlns:xlink="http://www.w3.org/1999/xlink" width="98" height="102" viewBox="0 0 98 102" fill="none">
<path d="M12.1142 100.875C11.4501 100.875 10.909 100.38 10.909 99.7719L10.909 65.0891C10.909 64.4815 11.4501 63.9863 12.1142 63.9863L91.0888 63.9863C91.7528 63.9863 92.2939 64.4815 92.2939 65.0891L92.2939 99.7719C92.2939 100.38 91.7528 100.875 91.0888 100.875L12.1142 100.875Z"   fill="#B08385" >
</path>
<path d="M9.70386 65.1115C9.70386 63.8962 10.786 62.9059 12.1142 62.9059L91.0887 62.9059C92.4169 62.9059 93.4991 63.8737 93.4991 65.1115L93.4991 99.7942C93.4991 101.01 92.4169 102 91.0887 102L12.1142 102C10.786 102 9.70386 101.01 9.70386 99.7942L9.70386 65.1115ZM12.1142 99.7718L12.1142 65.0891L91.0888 65.0891L91.0888 99.7718L12.1142 99.7718Z" fill-rule="evenodd"  fill="#55529F" >
</path>
<path d="M7.66249 70.7607C6.99843 70.7607 6.45734 70.2656 6.45734 69.6579L6.45734 55.9289C6.45734 55.3212 6.99843 54.826 7.66249 54.826L95.5897 54.826C96.2537 54.826 96.7948 55.3212 96.7948 55.9289L96.7948 69.6579C96.7948 70.2656 96.2537 70.7607 95.5897 70.7607L7.66249 70.7607Z"   fill="#FFE691" >
</path>
<path d="M5.22754 55.9514C5.22754 54.736 6.30972 53.7457 7.63785 53.7457L95.565 53.7457C96.8931 53.7457 97.9753 54.736 97.9753 55.9514L97.9753 69.6804C97.9753 70.8958 96.8931 71.8861 95.565 71.8861L7.63785 71.8861C6.30972 71.8861 5.22754 70.8958 5.22754 69.6804L5.22754 55.9514ZM7.63794 69.6805L7.63794 55.9514L95.5651 55.9514L95.5651 69.6805L7.63794 69.6805Z" fill-rule="evenodd"  fill="#55529F" >
</path>
<path d="M95.5897 70.7381L57.2214 70.7381L57.2214 70.7607C56.5574 70.7607 56.0163 70.2655 56.0163 69.6578C55.9179 67.2496 53.9995 65.4941 51.6138 65.4941C50.4578 65.4941 49.2281 65.9893 48.3672 66.822C47.5556 67.5872 47.1621 68.5325 47.1867 69.4778L47.2113 69.5903C47.2359 69.8829 47.1129 70.198 46.8915 70.4006C46.6702 70.6256 46.3504 70.7381 46.0307 70.7381L7.66249 70.7381C6.99843 70.7381 6.45734 70.243 6.45734 69.6353L6.45734 55.9063C6.45734 55.2986 6.99843 54.8035 7.66249 54.8035L95.5897 54.8035C96.2537 54.8035 96.7948 55.2986 96.7948 55.9063L96.7948 69.6353C96.7948 70.243 96.2537 70.7381 95.5897 70.7381Z"   fill="#BA8CA0" >
</path>
<path d="M51.6137 66.642C50.7529 66.642 49.8675 67.0021 49.228 67.6323C48.9083 67.9249 48.3672 68.5776 48.3918 69.4328L48.3918 69.5454C48.441 70.153 48.195 70.7382 47.7523 71.1884C47.3096 71.6385 46.6701 71.8861 46.0061 71.8861L7.63785 71.8861C6.30972 71.8861 5.22754 70.8958 5.22754 69.6804L5.22754 55.9514C5.22754 54.736 6.30972 53.7457 7.63785 53.7457L95.565 53.7457C96.8931 53.7457 97.9753 54.736 97.9999 55.9739L97.9999 69.7029C97.9999 70.9183 96.9177 71.9086 95.5896 71.9086L57.246 71.9086C55.9178 71.9086 54.8603 70.9408 54.8357 69.7479L54.8357 69.6354C54.7373 68.1725 53.5813 66.642 51.6137 66.642ZM95.565 69.6805L57.2214 69.6805L57.2214 69.5454C57.0738 66.7546 54.7619 64.4139 51.6137 64.4139C48.6869 64.4139 45.8585 66.7771 46.0061 69.5454C46.0061 69.5904 46.0061 69.6355 46.0307 69.6805L7.66244 69.6805L7.66244 55.9514L95.565 55.9514L95.565 69.6805Z" fill-rule="evenodd"  fill="#55529F" >
</path>
<path    stroke="rgba(255, 255, 255, 1.00)" stroke-width="2" stroke-linejoin="round" stroke-linecap="round"  d="M14.8688 87.6182L14.8688 87.6182ZM14.8688 87.6182L14.8688 82.7118">
</path>
<path    stroke="rgba(255, 255, 255, 1.00)" stroke-width="2" stroke-linejoin="round" stroke-linecap="round"  d="M91.8021 63.9412L91.8021 63.9412ZM91.8021 63.9412L91.8021 61.1504">
</path>
<path d="M17.9678 54.8036C17.3037 54.8036 16.7626 54.3085 16.7626 53.7008L16.7626 47.8941C16.7626 47.2864 17.3037 46.7913 17.9678 46.7913L86.0713 46.7913C86.7354 46.7913 87.2765 47.2864 87.2765 47.8941L87.2765 53.7008C87.2765 54.3085 86.7354 54.8036 86.0713 54.8036L17.9678 54.8036Z"   fill="#47ACE2" >
</path>
<path d="M15.5575 47.8941C15.5575 46.6788 16.6397 45.6885 17.9678 45.6885L86.0713 45.6885C87.3995 45.6885 88.4816 46.6788 88.4816 47.8941L88.4816 53.7008C88.4816 54.9162 87.3995 55.9065 86.0713 55.9065L17.9678 55.9065C16.6397 55.9065 15.5575 54.9162 15.5575 53.7008L15.5575 47.8941ZM17.9678 53.7008L17.9678 47.8941L86.0713 47.8941L86.0713 53.7008L17.9678 53.7008Z" fill-rule="evenodd"  fill="#55529F" >
</path>
<path d="M19.9108 47.0387C19.2467 47.0387 18.7057 46.5436 18.7057 45.9359L18.7057 30.7439C18.7057 30.1363 19.2467 29.6411 19.9108 29.6411L80.9556 29.6411C81.6197 29.6411 82.1608 30.1363 82.1608 30.7439L82.1608 45.9359C82.1608 46.5436 81.6197 47.0387 80.9556 47.0387L19.9108 47.0387Z"   fill="#B6DFE8" >
</path>
<path d="M17.5005 30.7666C17.5005 29.5512 18.5827 28.5609 19.9108 28.5609L80.9556 28.5609C82.2837 28.5609 83.3659 29.5512 83.3659 30.7441L83.3659 45.9585C83.3659 47.1739 82.2837 48.1642 80.9556 48.1642L19.9108 48.1642C18.5827 48.1642 17.5005 47.1739 17.5005 45.9585L17.5005 30.7666ZM19.9108 45.936L19.9108 30.744L80.9556 30.744L80.9556 45.936L19.9108 45.936Z" fill-rule="evenodd"  fill="#55529F" >
</path>
<path d="M19.9108 47.0387C19.2467 47.0387 18.7057 46.5436 18.7057 45.9359L18.7057 30.7439C18.7057 30.1363 19.2467 29.6411 19.9108 29.6411L30.5604 29.6411C31.2245 29.6411 31.7656 30.1363 31.7656 30.7439L31.7656 45.9359C31.7656 46.5436 31.2245 47.0387 30.5604 47.0387L19.9108 47.0387Z"   fill="#D3D3EB" >
</path>
<path d="M17.5005 30.7666C17.5005 29.5512 18.5827 28.5609 19.9108 28.5609L30.5604 28.5609C31.8886 28.5609 32.9708 29.5512 32.9708 30.7441L32.9708 45.9585C32.9708 47.1739 31.8886 48.1642 30.5604 48.1642L19.9108 48.1642C18.5827 48.1642 17.5005 47.1739 17.5005 45.9585L17.5005 30.7666ZM19.9108 45.936L19.9108 30.744L30.5604 30.744L30.5604 45.936L19.9108 45.936Z" fill-rule="evenodd"  fill="#55529F" >
</path>
<path d="M23.4033 29.5061C22.7392 29.5061 22.1982 29.0109 22.1982 28.4032L22.1982 21.8538C22.1982 21.2461 22.7392 20.751 23.4033 20.751L84.6449 20.751C85.3089 20.751 85.85 21.2461 85.85 21.8538L85.85 28.4032C85.85 29.0109 85.3089 29.5061 84.6449 29.5061L23.4033 29.5061Z"   fill="#FCE4F0" >
</path>
<path d="M20.993 21.8538C20.993 20.6385 22.0752 19.6482 23.4033 19.6482L84.6449 19.6482C85.973 19.6482 87.0552 20.6385 87.0552 21.8538L87.0552 28.4033C87.0552 29.6186 85.973 30.6089 84.6449 30.6089L23.4033 30.6089C22.0752 30.6089 20.993 29.6186 20.993 28.4033L20.993 21.8538ZM23.4032 28.4033L23.4032 21.8539L84.6448 21.8539L84.6448 28.4033L23.4032 28.4033Z" fill-rule="evenodd"  fill="#55529F" >
</path>
<path d="M76.9221 29.5061C76.258 29.5061 75.7169 29.0109 75.7169 28.4032L75.7169 21.8538C75.7169 21.2461 76.258 20.751 76.9221 20.751L84.6449 20.751C85.309 20.751 85.8501 21.2461 85.8501 21.8538L85.8501 28.4032C85.8501 29.0109 85.309 29.5061 84.6449 29.5061L76.9221 29.5061Z"   fill="#F5B5CA" >
</path>
<path d="M74.5118 21.8538C74.5118 20.6385 75.5939 19.6482 76.9221 19.6482L84.6449 19.6482C85.973 19.6482 87.0552 20.6385 87.0552 21.8538L87.0552 28.4033C87.0552 29.6186 85.973 30.6089 84.6449 30.6089L76.9221 30.6089C75.5939 30.6089 74.5118 29.6186 74.5118 28.4033L74.5118 21.8538ZM76.9221 28.4033L76.9221 21.8539L84.6449 21.8539L84.6449 28.4033L76.9221 28.4033Z" fill-rule="evenodd"  fill="#55529F" >
</path>
<path d="M18.6811 20.4585C18.017 20.4585 17.4759 19.9633 17.4759 19.3557L17.4759 9.47526C17.4759 8.86758 18.017 8.37244 18.6811 8.37244L79.0372 8.37244C79.7013 8.37244 80.2424 8.86758 80.2424 9.47526L80.2424 19.3557C80.2424 19.9633 79.7013 20.4585 79.0372 20.4585L18.6811 20.4585Z"   fill="#B9B2D9" >
</path>
<path d="M16.2707 9.49776C16.2707 8.28241 17.3529 7.29211 18.681 7.29211L79.0372 7.29211C80.3653 7.29211 81.4475 8.28241 81.4475 9.49776L81.4475 19.3782C81.4475 20.5935 80.3653 21.5838 79.0372 21.5838L18.681 21.5838C17.3529 21.5838 16.2707 20.5935 16.2707 19.3782L16.2707 9.49776ZM18.681 19.3782L18.681 9.49781L79.0372 9.49781L79.0372 19.3782L18.681 19.3782Z" fill-rule="evenodd"  fill="#55529F" >
</path>
<path    stroke="rgba(85, 82, 159, 1.00)" stroke-width="2" stroke-linejoin="round" stroke-linecap="round"  d="M17.9678 16.8574L78.9635 16.8574M78.9635 16.8574L78.9635 16.8574Z">
</path>
<path    stroke="rgba(85, 82, 159, 1.00)" stroke-width="2" stroke-linejoin="round" stroke-linecap="round"  d="M17.9678 12.3787L78.9635 12.3787M78.9635 12.3787L78.9635 12.3787Z">
</path>
<path    stroke="rgba(255, 255, 255, 1.00)" stroke-width="2" stroke-linejoin="round" stroke-linecap="round"  d="M22.026 42.2224L22.026 42.2224ZM22.026 42.2224L22.026 39.9268">
</path>
<path    stroke="rgba(255, 255, 255, 1.00)" stroke-width="2" stroke-linejoin="round" stroke-linecap="round"  d="M82.5052 25.7251L82.5052 25.7251ZM82.5052 25.7251L82.5052 24.2847">
</path>
<path d="M88.5801 12.2661L88.9982 12.221L89.195 11.8834C89.5885 11.2308 90.3263 10.8481 91.138 10.8481C92.0234 10.8481 92.8104 11.3208 93.1548 12.0635L93.3269 12.4236L93.745 12.4911C94.5813 12.6487 95.2207 13.1888 95.4421 13.9316C95.6635 14.6743 95.4175 15.462 94.778 15.9797L94.4583 16.2272L94.5075 16.6098C94.5813 17.195 94.3845 17.7577 93.9664 18.1853C93.5729 18.6354 92.958 18.883 92.3185 18.883C91.925 18.883 91.5315 18.793 91.2118 18.6129L90.8428 18.4104L90.4493 18.5679C90.1542 18.703 89.8344 18.7705 89.5147 18.7705C88.8506 18.7705 88.2112 18.5004 87.793 18.0053C87.3749 17.5326 87.2274 16.9024 87.3749 16.3173L87.4733 15.9346L87.1782 15.6646C86.5879 15.1019 86.4403 14.2917 86.7355 13.5714C87.0306 12.8512 87.7439 12.3561 88.5801 12.2661Z"   fill="#FFE691" >
</path>
<path d="M94.901 18.8831C94.2615 19.5583 93.3269 19.9409 92.3431 19.9409Q91.5314 19.9409 90.7936 19.6033C90.4001 19.7609 89.982 19.8284 89.5393 19.8284C88.5063 19.8284 87.5471 19.4007 86.883 18.658C86.2681 17.9828 86.0222 17.1051 86.1697 16.2273C85.3827 15.3721 85.1613 14.2017 85.604 13.1439C86.0468 12.0861 87.0552 11.3434 88.2603 11.1633C88.8752 10.2631 89.9574 9.7229 91.1379 9.7229C92.4169 9.7229 93.5974 10.3981 94.1877 11.3884C95.3683 11.681 96.3029 12.4912 96.6226 13.594C96.9424 14.6969 96.598 15.8447 95.7372 16.6324C95.811 17.4427 95.4912 18.2529 94.901 18.8831ZM94.0156 15.1695L93.6221 15.4845C93.3761 15.6871 93.2532 15.9797 93.3023 16.2948L93.3761 16.7674C93.4499 17.3526 92.9334 17.8027 92.3677 17.8027C92.1956 17.8027 92.0234 17.7577 91.8512 17.6677L91.4085 17.4201C91.261 17.3301 91.0642 17.2851 90.892 17.2851C90.7445 17.2851 90.5969 17.3076 90.4739 17.3751L90.0066 17.5777C89.859 17.6452 89.7115 17.6677 89.5885 17.6677C88.9736 17.6677 88.4571 17.15 88.6047 16.5424L88.7277 16.0697C88.8015 15.7771 88.7031 15.462 88.4817 15.237L88.1128 14.8769C87.5471 14.3142 87.916 13.4139 88.7523 13.3239L89.2688 13.2789C89.5885 13.2564 89.8836 13.0763 90.0558 12.8063L90.3018 12.3786C90.4493 12.086 90.7936 11.9285 91.138 11.9285C91.5069 11.9285 91.8758 12.1086 92.0726 12.4912L92.2939 12.9413C92.4169 13.2114 92.6875 13.4139 93.0318 13.4815L93.5483 13.5715C94.3599 13.7065 94.6551 14.6518 94.0156 15.1695Z" fill-rule="evenodd"  fill="#55529F" >
</path>
<path d="M87.0798 5.42405C87.1536 5.9192 86.9814 6.41434 86.6125 6.79696C86.219 7.15706 85.7025 7.38213 85.1614 7.38213C84.8171 7.38213 84.4973 7.2921 84.2022 7.13456L84.1038 7.08954L84.0054 7.13456C83.7595 7.24709 83.4889 7.2921 83.1938 7.2921C82.6035 7.2921 82.0624 7.04453 81.7181 6.63941C81.3492 6.23429 81.2262 5.69413 81.3492 5.17648L81.3738 5.08645L81.3 5.01893C80.8081 4.52379 80.6605 3.84859 80.9064 3.2184C81.177 2.58822 81.7673 2.16059 82.5051 2.09307L82.6035 2.09307L82.6527 2.00305C82.997 1.44038 83.6119 1.10278 84.3252 1.10278C85.0876 1.10278 85.7763 1.5079 86.0714 2.13809L86.1206 2.22811L86.219 2.25062C86.9322 2.38566 87.4979 2.8583 87.6947 3.51099C87.8914 4.16368 87.6701 4.83888 87.129 5.26651L87.0552 5.33403L87.0798 5.42405Z"   fill="#DEDBEF" >
</path>
<path d="M88.2603 5.73919C88.2357 6.36937 87.9652 6.99956 87.4979 7.4947C86.9076 8.10238 86.0468 8.46249 85.1614 8.46249C84.7924 8.46249 84.3989 8.41747 84.0546 8.28243C83.784 8.34995 83.5135 8.39497 83.2184 8.39497C82.2592 8.39497 81.3737 8.01235 80.7834 7.33716C80.2915 6.77449 80.0456 6.09929 80.0948 5.40159C79.5291 4.63636 79.4061 3.69108 79.7751 2.81333C80.144 1.95808 80.931 1.30538 81.8902 1.08032C82.4805 0.405119 83.3659 0 84.3251 0C85.3827 0 86.3665 0.495146 86.9322 1.28288C87.8668 1.59797 88.5801 2.29567 88.8506 3.19594C89.1212 4.0962 88.8998 5.04148 88.2603 5.73919ZM84.8417 6.21188L84.5219 6.03183C84.4235 5.96431 84.3006 5.9418 84.1776 5.9418Q84.03 5.9418 83.8824 6.00932L83.5381 6.14436C83.4397 6.18937 83.3414 6.21188 83.243 6.21188C82.8249 6.21188 82.4559 5.85177 82.5543 5.42415L82.6281 5.08655C82.6773 4.88399 82.6035 4.65892 82.4559 4.50138L82.21 4.2538C81.8165 3.87119 82.087 3.2185 82.6527 3.17348L83.0216 3.15098C83.243 3.12847 83.4643 3.01594 83.5627 2.81338L83.7349 2.52079C83.8579 2.31823 84.0792 2.2057 84.3252 2.2057C84.5957 2.2057 84.8417 2.34074 84.9646 2.58831L85.1122 2.90341C85.2106 3.10596 85.4073 3.241 85.6287 3.28602L85.9976 3.35354C86.5633 3.46607 86.7601 4.11876 86.3174 4.45636L86.0468 4.68143C85.8746 4.81647 85.7763 5.04153 85.8255 5.24409L85.8746 5.58169C85.9238 5.98681 85.5795 6.3019 85.186 6.3019C85.063 6.3019 84.94 6.2794 84.8417 6.21188Z" fill-rule="evenodd"  fill="#55529F" >
</path>
<path d="M6.65406 95.2479C7.36731 95.383 7.933 95.8556 8.12976 96.5083C8.32652 97.161 8.10516 97.8362 7.56407 98.2638L7.49029 98.3313L7.51488 98.4214C7.58867 98.9165 7.4165 99.4117 7.04758 99.7943C6.67865 100.154 6.13756 100.379 5.59647 100.379C5.25214 100.379 4.93241 100.289 4.63727 100.132L4.53889 100.087L4.44051 100.132C4.19456 100.244 3.92401 100.289 3.62887 100.289C3.03859 100.289 2.4975 100.042 2.15317 99.6367C1.78425 99.2316 1.66127 98.6915 1.78425 98.1738L1.80884 98.0838L1.73506 98.0163C1.24316 97.5211 1.09559 96.8459 1.34154 96.2157C1.61208 95.5855 2.20236 95.1579 2.94021 95.0904L3.03859 95.0904L3.08778 95.0004C3.43211 94.4377 4.07158 94.1001 4.76024 94.1001C5.52269 94.1001 6.21135 94.5052 6.50649 95.1354L6.55568 95.2254L6.65406 95.2479Z"   fill="#47ACE2" >
</path>
<path d="M0.529925 98.3989C-0.0357599 97.6337 -0.158735 96.6884 0.21019 95.8106C0.579115 94.9554 1.36616 94.3027 2.32536 94.0776C2.91564 93.4024 3.80106 92.9973 4.76027 92.9973C5.84244 92.9973 6.80165 93.4925 7.34274 94.2802C8.27735 94.5953 8.99061 95.293 9.26115 96.1933C9.5317 97.0935 9.31034 98.0388 8.67087 98.7365C8.64628 99.3667 8.37573 99.9969 7.90843 100.492C7.31815 101.1 6.45732 101.46 5.5719 101.46C5.20298 101.46 4.80945 101.415 4.46513 101.28C4.19458 101.347 3.92404 101.392 3.6289 101.392C2.69429 101.392 1.80887 101.01 1.21859 100.334C0.726685 99.7718 0.480735 99.0966 0.529925 98.3989ZM4.76029 95.203C5.03084 95.203 5.27679 95.3381 5.39976 95.5856L5.54733 95.9007C5.64571 96.1033 5.84247 96.2383 6.06383 96.2833L6.43275 96.3509C6.99844 96.4634 7.1952 97.1161 6.75249 97.4537L6.48194 97.6787C6.30978 97.8138 6.2114 98.0388 6.26059 98.2414L6.30978 98.579C6.35897 98.9841 6.01464 99.2992 5.62112 99.2992C5.49814 99.2992 5.37517 99.2767 5.27679 99.2092L4.95705 99.0291C4.85867 98.9616 4.7357 98.9391 4.61272 98.9391Q4.46515 98.9391 4.31758 99.0066L3.97325 99.1417Q3.82568 99.2092 3.67811 99.2092C3.26 99.2092 2.89107 98.8491 2.98945 98.4215L3.06324 98.0839C3.11243 97.8813 3.03864 97.6562 2.89107 97.4987L2.64512 97.2511C2.2516 96.8685 2.52215 96.2158 3.08783 96.1708L3.45676 96.1483C3.67811 96.1258 3.89947 96.0133 3.99785 95.8107L4.17001 95.5181C4.29299 95.3155 4.53894 95.203 4.76029 95.203Z" fill-rule="evenodd"  fill="#55529F" >
</path>
</svg>
