<svg xmlns="http://www.w3.org/2000/svg" xmlns:xlink="http://www.w3.org/1999/xlink" width="24" height="39" viewBox="0 0 24 39" fill="none">
<path d="M9.85682 9.43585C9.93403 9.43585 10.0112 9.43394 10.0883 9.43016C10.1654 9.42637 10.2424 9.4207 10.3193 9.41313C10.3961 9.40558 10.4727 9.39613 10.5491 9.38479C10.6255 9.37346 10.7015 9.36027 10.7772 9.34521C10.853 9.33014 10.9283 9.31322 11.0032 9.29445C11.0781 9.27568 11.1525 9.25511 11.2264 9.23269C11.3003 9.21027 11.3736 9.18606 11.4463 9.16005C11.519 9.13403 11.591 9.10628 11.6623 9.07673C11.7336 9.04717 11.8042 9.01588 11.874 8.98287C11.9438 8.94987 12.0128 8.91517 12.0809 8.87877C12.1489 8.84236 12.2161 8.80432 12.2823 8.76462C12.3486 8.72493 12.4138 8.68363 12.478 8.64072C12.5422 8.59785 12.6053 8.5534 12.6673 8.5074C12.7293 8.4614 12.7902 8.4139 12.8499 8.36492C12.9095 8.31596 12.968 8.26554 13.0252 8.21368C13.0824 8.16182 13.1383 8.1086 13.1929 8.054C13.2475 7.99941 13.3007 7.94348 13.3526 7.88629C13.4044 7.82909 13.4549 7.77062 13.5038 7.71094C13.5528 7.65126 13.6003 7.59038 13.6463 7.52838C13.6923 7.46637 13.7367 7.40326 13.7797 7.33907C13.8226 7.27485 13.8639 7.20964 13.9036 7.14341C13.9433 7.0772 13.9813 7.01002 14.0177 6.94194C14.0541 6.87385 14.0888 6.8049 14.1218 6.7351C14.1548 6.6653 14.1861 6.59473 14.2156 6.5234C14.2452 6.45205 14.273 6.38004 14.299 6.30734C14.325 6.23463 14.3492 6.16135 14.3716 6.08746C14.394 6.01356 14.4146 5.93917 14.4334 5.86429C14.4522 5.7894 14.469 5.71407 14.4841 5.63835C14.4992 5.56263 14.5124 5.48656 14.5237 5.41018C14.535 5.3338 14.5445 5.25719 14.5521 5.18037C14.5596 5.10352 14.5653 5.02653 14.5691 4.94943C14.5729 4.8723 14.5748 4.79512 14.5748 4.71791C14.5748 4.6407 14.5729 4.56355 14.5691 4.48642C14.5653 4.40932 14.5596 4.33233 14.5521 4.25548C14.5445 4.17866 14.535 4.10203 14.5237 4.02565C14.5124 3.94927 14.4992 3.87322 14.4841 3.7975C14.469 3.72178 14.4522 3.64645 14.4334 3.57157C14.4146 3.49668 14.394 3.42226 14.3716 3.34837C14.3492 3.27447 14.325 3.20119 14.299 3.12849C14.273 3.05581 14.2452 2.9838 14.2156 2.91245C14.1861 2.8411 14.1548 2.77055 14.1218 2.70075C14.0888 2.63095 14.0541 2.56201 14.0177 2.49391C13.9813 2.42582 13.9433 2.35865 13.9036 2.29242C13.8639 2.2262 13.8226 2.16099 13.7797 2.09678C13.7367 2.03257 13.6923 1.96946 13.6463 1.90744C13.6003 1.84543 13.5528 1.78459 13.5038 1.72491C13.4549 1.66522 13.4044 1.60677 13.3526 1.54956C13.3007 1.49234 13.2475 1.43644 13.1929 1.38185C13.1383 1.32724 13.0824 1.27402 13.0252 1.22217C12.968 1.17031 12.9095 1.11989 12.8499 1.07091C12.7902 1.02192 12.7293 0.974436 12.6673 0.928455C12.6053 0.882456 12.5422 0.838004 12.478 0.7951C12.4138 0.752216 12.3486 0.710924 12.2823 0.671227C12.2161 0.63153 12.1489 0.593483 12.0809 0.557084C12.0128 0.520685 11.9438 0.485975 11.874 0.452949C11.8042 0.419942 11.7336 0.388668 11.6623 0.359125C11.591 0.329582 11.519 0.301799 11.4463 0.275778C11.3736 0.249774 11.3003 0.225567 11.2264 0.203157C11.1525 0.180728 11.0781 0.160133 11.0032 0.141372C10.9283 0.122611 10.853 0.105702 10.7772 0.0906451C10.7015 0.0755884 10.6255 0.0623928 10.5491 0.0510587C10.4727 0.0397246 10.3961 0.0302703 10.3193 0.0226958C10.2424 0.0151398 10.1654 0.00946344 10.0883 0.0056671C10.0112 0.0018891 9.93403 0 9.85682 0C9.77961 0 9.70243 0.0018891 9.62533 0.0056671C9.5482 0.00946344 9.47121 0.0151398 9.39439 0.0226958C9.31754 0.0302703 9.24093 0.0397246 9.16455 0.0510587C9.08817 0.0623928 9.01212 0.0755884 8.9364 0.0906451C8.86066 0.105702 8.78533 0.122611 8.71044 0.141372C8.63555 0.160133 8.56116 0.180728 8.48727 0.203157C8.41337 0.225567 8.34009 0.249774 8.26738 0.275778C8.19468 0.301799 8.12267 0.329582 8.05134 0.359125C7.97999 0.388668 7.90945 0.419942 7.83964 0.452949C7.76983 0.485975 7.70088 0.520685 7.63278 0.557084C7.56468 0.593483 7.49753 0.63153 7.43131 0.671227C7.36508 0.710924 7.29986 0.752216 7.23567 0.7951C7.17146 0.838004 7.10835 0.882456 7.04634 0.928455C6.98432 0.974436 6.92347 1.02192 6.86377 1.07091C6.8041 1.11989 6.74565 1.17031 6.68843 1.22217C6.63122 1.27402 6.57531 1.32724 6.52071 1.38185C6.46612 1.43644 6.4129 1.49234 6.36104 1.54956C6.30919 1.60677 6.25878 1.66522 6.20979 1.72491C6.16081 1.78459 6.11332 1.84543 6.06732 1.90744C6.02132 1.96946 5.97687 2.03257 5.93399 2.09678C5.89108 2.16099 5.84978 2.2262 5.81009 2.29242C5.77039 2.35865 5.73234 2.42582 5.69594 2.49391C5.65954 2.56201 5.62484 2.63095 5.59183 2.70075C5.55883 2.77055 5.52755 2.8411 5.49801 2.91245C5.46845 2.9838 5.44067 3.05581 5.41466 3.12849C5.38864 3.20119 5.36442 3.27447 5.34201 3.34837C5.3196 3.42226 5.29902 3.49668 5.28026 3.57157C5.26149 3.64645 5.24458 3.72178 5.22953 3.7975C5.21445 3.87322 5.20126 3.94927 5.18994 4.02565C5.17861 4.10203 5.16915 4.17866 5.16158 4.25548C5.15402 4.33233 5.14835 4.40932 5.14455 4.48642C5.14075 4.56355 5.13885 4.6407 5.13885 4.71791C5.13885 4.79512 5.14075 4.8723 5.14455 4.94943C5.14835 5.02653 5.15402 5.10352 5.16158 5.18037C5.16915 5.25719 5.17861 5.3338 5.18994 5.41018C5.20126 5.48656 5.21445 5.56263 5.22953 5.63835C5.24458 5.71407 5.26149 5.7894 5.28026 5.86429C5.29902 5.93917 5.3196 6.01356 5.34201 6.08746C5.36442 6.16135 5.38864 6.23463 5.41466 6.30734C5.44067 6.38004 5.46845 6.45205 5.49801 6.5234C5.52755 6.59473 5.55883 6.6653 5.59183 6.7351C5.62484 6.8049 5.65954 6.87385 5.69594 6.94194C5.73234 7.01002 5.77039 7.0772 5.81009 7.14341C5.84978 7.20964 5.89108 7.27485 5.93399 7.33907C5.97687 7.40326 6.02132 7.46637 6.06732 7.52838C6.11332 7.59038 6.16081 7.65126 6.20979 7.71094C6.25878 7.77062 6.30919 7.82909 6.36104 7.88629C6.4129 7.94348 6.46612 7.99941 6.52071 8.054C6.57531 8.1086 6.63122 8.16182 6.68843 8.21368C6.74565 8.26554 6.8041 8.31596 6.86377 8.36492C6.92347 8.4139 6.98432 8.4614 7.04634 8.5074C7.10835 8.5534 7.17146 8.59785 7.23567 8.64072C7.29986 8.68363 7.36508 8.72493 7.43131 8.76462C7.49753 8.80432 7.56468 8.84236 7.63278 8.87877C7.70088 8.91517 7.76983 8.94987 7.83964 8.98287C7.90945 9.01588 7.97999 9.04717 8.05134 9.07673C8.12267 9.10628 8.19468 9.13403 8.26738 9.16005C8.34009 9.18606 8.41337 9.21027 8.48727 9.23269C8.56116 9.25511 8.63555 9.27568 8.71044 9.29445C8.78533 9.31322 8.86066 9.33014 8.9364 9.34521C9.01212 9.36027 9.08817 9.37346 9.16455 9.38479C9.24093 9.39613 9.31754 9.40558 9.39439 9.41313C9.47121 9.4207 9.5482 9.42637 9.62533 9.43016C9.70243 9.43394 9.77961 9.43585 9.85682 9.43585Z"   fill="#6BC2FC" >
</path>
<path d="M16.1918 12.9509C15.2128 12.2432 13.9036 11.795 12.2051 11.795L7.4872 11.795C2.69846 11.795 1 15.298 1 18.3057C1 20.9949 2.42719 22.4103 5.1282 22.4103L13.42 22.4103C13.6088 22.4103 13.7621 22.2806 13.7621 22.0683C13.7621 21.9975 13.6913 21.856 13.6677 21.8088L13.0544 20.7591C13.0461 20.7449 13.038 20.7306 13.0301 20.7162C13.0222 20.7018 13.0145 20.6873 13.007 20.6727C12.9994 20.6582 12.9921 20.6435 12.9849 20.6287C12.9778 20.6139 12.9708 20.599 12.964 20.5841C12.9573 20.5691 12.9507 20.5541 12.9443 20.539C12.9379 20.5238 12.9317 20.5086 12.9257 20.4933C12.9197 20.4781 12.914 20.4627 12.9084 20.4473C12.9028 20.4318 12.8974 20.4163 12.8922 20.4007C12.887 20.3852 12.882 20.3695 12.8772 20.3538C12.8724 20.3381 12.8678 20.3224 12.8634 20.3065C12.859 20.2907 12.8549 20.2748 12.8509 20.2589C12.8469 20.243 12.8431 20.227 12.8396 20.211C12.836 20.195 12.8326 20.1789 12.8295 20.1627C12.8264 20.1466 12.8234 20.1305 12.8207 20.1143C12.8179 20.0981 12.8154 20.0819 12.8131 20.0656C12.8108 20.0494 12.8087 20.0331 12.8068 20.0168C12.8049 20.0005 12.8032 19.9841 12.8017 19.9678C12.8003 19.9515 12.799 19.9351 12.7979 19.9187C12.7969 19.9023 12.796 19.8859 12.7954 19.8695C12.7948 19.8531 12.7944 19.8367 12.7942 19.8203C12.7939 19.8039 12.7939 19.7874 12.7942 19.771C12.7944 19.7546 12.7948 19.7382 12.7954 19.7218C12.7961 19.7054 12.7969 19.689 12.798 19.6726C12.7991 19.6562 12.8003 19.6399 12.8018 19.6235C12.8033 19.6072 12.805 19.5908 12.8069 19.5745C12.8088 19.5582 12.8109 19.5419 12.8132 19.5257C12.8156 19.5094 12.8181 19.4932 12.8208 19.477C12.8236 19.4608 12.8265 19.4447 12.8297 19.4286C12.8328 19.4125 12.8362 19.3964 12.8398 19.3804C12.8433 19.3643 12.8471 19.3483 12.8511 19.3324C12.8551 19.3165 12.8593 19.3006 12.8637 19.2848C12.8681 19.269 12.8727 19.2532 12.8774 19.2375C12.96 18.978 13.0898 18.7303 13.2785 18.5298C13.2903 18.518 13.3846 18.4143 13.3846 18.2821C13.3846 18.1878 13.3375 18.0934 13.2785 18.0345C12.9718 17.6806 12.7949 17.2324 12.7949 16.7606C12.7949 16.3832 12.9128 16.0765 13.0072 15.8878C13.0308 15.8406 13.0426 15.8052 13.0662 15.7698L13.9626 14.2955C14.3046 13.6822 14.9534 13.3047 15.6493 13.3047C15.7908 13.3047 15.9205 13.3165 16.0503 13.3519C16.0739 13.3519 16.0975 13.3637 16.1328 13.3637C16.2744 13.3637 16.3451 13.2694 16.3334 13.1514C16.3334 13.057 16.239 12.9863 16.1918 12.9509Z"   fill="#59ADF8" >
</path>
<path d="M23.0327 18.282C23.0327 17.7159 23.3394 17.1969 23.8466 16.9138L23.9999 16.8313L22.9148 15.0149L22.7614 15.0974C22.5138 15.239 22.2307 15.3097 21.9476 15.3097C21.6645 15.3097 21.3814 15.239 21.1337 15.0974C20.6384 14.8143 20.3317 14.2954 20.3317 13.741C20.3317 13.6467 20.2491 13.5641 20.143 13.5641L18.3502 13.5641C18.244 13.5641 18.1732 13.6467 18.1732 13.741C18.1732 14.2954 17.8666 14.8143 17.3594 15.0974C17.1117 15.239 16.8286 15.3097 16.5455 15.3097C16.2625 15.3097 15.9794 15.239 15.7317 15.0974C15.6491 15.0502 15.543 15.0856 15.4958 15.1682L14.5876 16.6779C14.5758 16.7015 14.564 16.7369 14.564 16.7605C14.564 16.8195 14.5994 16.8785 14.6583 16.9138C15.1537 17.1969 15.4604 17.7159 15.4604 18.282L15.4604 18.3174C15.4604 18.86 15.1419 19.3671 14.6583 19.6502C14.6557 19.6515 14.6531 19.6528 14.6506 19.6541C14.648 19.6555 14.6455 19.6569 14.643 19.6584C14.6405 19.6599 14.6381 19.6614 14.6357 19.6631C14.6333 19.6647 14.631 19.6664 14.6287 19.6681C14.6263 19.6699 14.6241 19.6717 14.6219 19.6736C14.6196 19.6754 14.6175 19.6774 14.6154 19.6793C14.6133 19.6813 14.6112 19.6834 14.6092 19.6854C14.6072 19.6875 14.6052 19.6897 14.6034 19.6919C14.6015 19.6941 14.5996 19.6963 14.5979 19.6986C14.5961 19.7009 14.5944 19.7032 14.5927 19.7056C14.5911 19.708 14.5895 19.7104 14.5879 19.7129C14.5864 19.7153 14.585 19.7178 14.5836 19.7204C14.5822 19.7229 14.5808 19.7255 14.5796 19.7281C14.5783 19.7307 14.5771 19.7333 14.576 19.736C14.5749 19.7387 14.5739 19.7414 14.5729 19.7441C14.5719 19.7468 14.571 19.7496 14.5702 19.7523C14.5693 19.7551 14.5686 19.7579 14.5679 19.7607C14.5672 19.7635 14.5666 19.7664 14.5661 19.7692C14.5655 19.772 14.5651 19.7749 14.5647 19.7778C14.5643 19.7806 14.564 19.7835 14.5637 19.7864C14.5635 19.7893 14.5634 19.7922 14.5633 19.7951C14.5632 19.798 14.5632 19.8009 14.5633 19.8038C14.5633 19.8067 14.5635 19.8096 14.5637 19.8125C14.5639 19.8153 14.5642 19.8182 14.5646 19.8211C14.565 19.824 14.5654 19.8268 14.5659 19.8297C14.5665 19.8325 14.5671 19.8354 14.5677 19.8382C14.5684 19.841 14.5692 19.8438 14.57 19.8465C14.5708 19.8493 14.5717 19.8521 14.5726 19.8548C14.5736 19.8575 14.5746 19.8603 14.5757 19.8629C14.5769 19.8656 14.578 19.8682 14.5793 19.8709C14.5805 19.8735 14.5819 19.8761 14.5832 19.8786C14.5846 19.8812 14.5861 19.8837 14.5876 19.8861L15.484 21.3959C15.5194 21.4548 15.5902 21.4902 15.6491 21.4902C15.6845 21.4902 15.7081 21.4784 15.7317 21.4666C16.2389 21.1836 16.864 21.1836 17.3594 21.4666C17.843 21.7497 18.1614 22.2451 18.1614 22.7877L18.1614 22.823C18.1614 22.9174 18.244 23 18.3502 23L20.1548 23C20.2491 23 20.3317 22.9174 20.3317 22.823C20.3317 22.2687 20.6384 21.7497 21.1337 21.4666C21.3814 21.3251 21.6645 21.2543 21.9476 21.2543C22.2307 21.2543 22.5138 21.3251 22.7614 21.4666C22.844 21.5138 22.9619 21.4784 23.0091 21.3959L23.9056 19.8861C23.9291 19.8625 23.9291 19.8271 23.9291 19.7918C23.9292 19.7882 23.9292 19.7846 23.9291 19.781C23.929 19.7774 23.9287 19.7738 23.9284 19.7702C23.928 19.7666 23.9275 19.763 23.9269 19.7595C23.9262 19.7559 23.9255 19.7524 23.9246 19.7489C23.9237 19.7454 23.9227 19.742 23.9216 19.7385C23.9205 19.7351 23.9192 19.7318 23.9179 19.7284C23.9165 19.7251 23.915 19.7218 23.9135 19.7186C23.9119 19.7153 23.9101 19.7122 23.9083 19.709C23.9065 19.7059 23.9046 19.7029 23.9026 19.6999C23.9005 19.6969 23.8984 19.694 23.8962 19.6912C23.8939 19.6884 23.8916 19.6856 23.8892 19.683C23.8868 19.6803 23.8842 19.6777 23.8816 19.6753C23.879 19.6728 23.8763 19.6704 23.8735 19.6681C23.8708 19.6658 23.8679 19.6636 23.865 19.6615C23.862 19.6594 23.859 19.6574 23.856 19.6556C23.8529 19.6537 23.8498 19.6519 23.8466 19.6502C23.3394 19.3671 23.0327 18.8482 23.0327 18.282ZM19.3055 19.6266C18.5625 19.6266 17.9491 19.0251 17.9491 18.282C17.9491 17.539 18.5507 16.9374 19.2937 16.9374L19.3055 16.9374C20.0486 16.9374 20.6619 17.539 20.6619 18.282C20.6619 19.0251 20.0486 19.6266 19.3055 19.6266Z"   fill="#59ADF8" >
</path>
<g >
<path     fill="#FFFFFF"  d="M4.596 32.9L4.596 35.672L3 36.752L1.908 35.468L2.796 34.88L2.796 33.668L0.768 34.532L0.768 32.804L2.796 31.94L2.796 29.996L0.672 29.996L0.672 28.676L2.796 28.676L2.796 27.56L1.116 27.728L1.116 26.312L5.844 25.832L5.844 27.248L4.596 27.38L4.596 28.676L6.792 28.676L6.384 25.652L8.112 25.652L8.568 28.676L11.316 28.676L11.316 29.996L8.772 29.996L8.964 31.256L9.444 30.764L11.388 30.764L9.252 33.104L9.564 35.156L9.828 35.156L10.032 34.352L11.4 34.352L10.968 36.464L7.836 36.464L7.62 34.892L6.96 35.612L4.764 35.612L7.356 32.924L6.96 29.996L4.596 29.996L4.596 31.172L6.096 30.536L6.096 32.264L4.596 32.9ZM10.392 25.88L10.932 28.124L9.288 28.124L8.748 25.88L10.392 25.88ZM15.6 26.48L17.676 26.48L17.676 36.404L12.816 36.404L12.816 26.48L13.788 26.48L14.124 25.64L15.948 25.64L15.6 26.48ZM20.328 26.456L23.04 26.456L23.04 35.636L21.54 36.728L20.448 35.468L21.228 35.06L21.228 27.68L19.944 27.68L19.524 29.036L17.724 29.036L18.756 25.64L20.58 25.64L20.328 26.456ZM20.748 33.932L19.068 33.932L18.324 29.816L20.028 29.816L20.748 33.932ZM15.96 35.036L15.96 31.592L14.532 31.592L14.532 35.036L15.96 35.036ZM14.532 30.164L15.96 30.164L15.96 27.836L14.532 27.836L14.532 30.164Z">
</path>
</g>
</svg>
