<svg xmlns="http://www.w3.org/2000/svg" xmlns:xlink="http://www.w3.org/1999/xlink" width="40" height="52.00007629394531" viewBox="0 0 40 52.00007629394531" fill="none">
<path d="M15.6393 43.2146L15.4611 40.3414C15.4433 39.9428 15.4076 39.5276 15.2651 39.2452C15.069 38.8633 14.5879 38.5477 13.9642 38.1989C10.2397 36.0233 6.44394 33.8144 4.09165 30.061C0.990894 25.1283 0.224616 18.618 2.06012 13.0874C3.59268 8.45378 6.85381 4.83321 11.2376 2.90666C14.0176 1.67766 17.1897 1.02994 20.4152 1.01334L20.5577 1.01334C26.4385 1.01334 31.6064 3.17239 34.725 6.94244C37.4337 10.2142 38.9128 14.7815 38.8949 19.7639C38.8771 24.5969 37.6119 28.533 35.117 31.4394C32.6578 34.3292 29.3076 36.289 26.0642 38.1823C25.4405 38.5477 24.9594 38.8467 24.7633 39.2286C24.6208 39.511 24.5851 39.9262 24.5673 40.3248L24.3891 43.198C24.3535 43.746 23.8723 44.1613 23.3021 44.1613L16.7263 44.1613L16.7263 44.1779C16.1383 44.1779 15.6571 43.7627 15.6393 43.2146Z"   fill="#FFE691" >
</path>
<path d="M35.5982 6.32769C38.4673 9.78218 40.0177 14.5653 39.9999 19.7803C39.982 24.8457 38.6277 28.9812 35.9903 32.0869C33.4063 35.1262 29.967 37.1192 26.6524 39.0623C26.4207 39.2118 25.8504 39.5439 25.7613 39.6934C25.7079 39.8097 25.6901 40.175 25.6722 40.4076L25.6544 40.6235L25.494 43.2808C25.4228 44.3603 24.4604 45.2073 23.3021 45.2073L16.7442 45.2073C15.5859 45.2073 14.6236 44.3437 14.5523 43.2642L14.3741 40.4242C14.3563 40.1917 14.3384 39.8263 14.285 39.71C14.1959 39.5439 13.6256 39.2118 13.394 39.0789L13.3227 39.0291C9.54476 36.8202 5.6599 34.5449 3.16505 30.5756C-0.0782701 25.3938 -0.898009 18.5845 1.0266 12.7883C2.64825 7.87225 6.12324 4.03577 10.7744 1.99297C13.6969 0.714149 17.0293 0.0166081 20.4152 0L20.5578 0C26.7771 0 32.2658 2.30853 35.5982 6.32769ZM23.7834 38.8133C23.5517 39.2617 23.5161 39.7932 23.4804 40.2914C23.427 41.2547 23.3557 42.2013 23.3022 43.148L16.7265 43.148C16.673 42.2013 16.6017 41.2381 16.5483 40.2914C16.5126 39.7932 16.477 39.2617 16.2453 38.8133C15.9067 38.149 15.2117 37.7338 14.5346 37.3352C10.8636 35.1927 7.26383 33.1001 5.03628 29.5459C-0.220741 21.1588 1.57912 8.28755 11.7011 3.83658C14.4098 2.64079 17.4215 2.05951 20.4153 2.0429L20.5579 2.0429C25.6367 2.0429 30.6977 3.75354 33.8519 7.5734C36.7032 11.0113 37.808 15.5287 37.7902 19.7638C37.7724 23.6833 36.917 27.6858 34.2618 30.8248C31.9273 33.5817 28.6483 35.4917 25.4941 37.3352C24.8348 37.7171 24.1219 38.149 23.7834 38.8133Z" fill-rule="evenodd"  fill="#55529F" >
</path>
<path d="M16.2986 50.9705C15.6927 50.9705 15.1938 50.5054 15.1938 49.9408L15.1938 48.1969C15.1938 47.6322 15.6927 47.1672 16.2986 47.1672L23.6585 47.1672C24.2644 47.1672 24.7633 47.6322 24.7633 48.1969L24.7633 49.9408C24.7633 50.5054 24.2644 50.9705 23.6585 50.9705L16.2986 50.9705Z"   fill="#F5B5CA" >
</path>
<path d="M14.1068 48.2134C14.1068 47.0841 15.0869 46.1706 16.2987 46.1706L23.6585 46.1706C24.8703 46.1706 25.8683 47.0841 25.8504 48.2134L25.8504 49.9573C25.8504 51.0866 24.8703 52.0001 23.6585 52.0001L16.2987 52.0001C15.0869 52.0001 14.1068 51.0866 14.1068 49.9573L14.1068 48.2134ZM16.2988 49.9571L16.2988 48.2132L23.6586 48.2132L23.6586 49.9571L16.2988 49.9571Z" fill-rule="evenodd"  fill="#55529F" >
</path>
<path d="M14.3563 47.9643C13.7504 47.9643 13.2514 47.4993 13.2514 46.9346L13.2514 44.2773C13.2514 43.7126 13.7504 43.2476 14.3563 43.2476L25.601 43.2476C26.2069 43.2476 26.7059 43.7126 26.7059 44.2773L26.7059 46.9346C26.7059 47.4993 26.2069 47.9643 25.601 47.9643L14.3563 47.9643Z"   fill="#B7DFF8" >
</path>
<path d="M12.1644 44.2774C12.1644 43.148 13.1445 42.2346 14.3563 42.2346L25.601 42.2346C26.8128 42.2346 27.7929 43.148 27.7929 44.2774L27.7929 46.9347C27.7929 48.064 26.8128 48.9775 25.601 48.9775L14.3563 48.9775C13.1445 48.9775 12.1644 48.064 12.1644 46.9347L12.1644 44.2774ZM14.3563 46.9345L14.3563 44.2772L25.601 44.2772L25.601 46.9345L14.3563 46.9345Z" fill-rule="evenodd"  fill="#55529F" >
</path>
<path d="M12.3604 44.5264C11.7545 44.5264 11.2556 44.0613 11.2556 43.4966L11.2556 39.8927C11.2556 39.328 11.7545 38.863 12.3604 38.863L27.5969 38.863C28.2028 38.863 28.7017 39.328 28.7017 39.8927L28.7017 43.4966C28.7017 44.0613 28.2028 44.5264 27.5969 44.5264L12.3604 44.5264Z"   fill="#DEDBEF" >
</path>
<path d="M10.1685 39.8928C10.1685 38.7635 11.1486 37.85 12.3604 37.85L27.5969 37.85C28.8086 37.85 29.8066 38.7635 29.7888 39.8928L29.7888 43.4968C29.7888 44.6261 28.8086 45.5396 27.5969 45.5396L12.3604 45.5396C11.1486 45.5396 10.1685 44.6261 10.1685 43.4968L10.1685 39.8928ZM12.3605 43.4968L12.3605 39.8928L27.5969 39.8928L27.5969 43.4968L12.3605 43.4968Z" fill-rule="evenodd"  fill="#55529F" >
</path>
</svg>
