<svg xmlns="http://www.w3.org/2000/svg" xmlns:xlink="http://www.w3.org/1999/xlink" width="25" height="38" viewBox="0 0 25 38" fill="none">
<path d="M6.79671 0.184C6.94828 0.1104 7.09985 0.0490762 7.26406 0L7.26406 20.2167L4.57369 21.5537C3.60113 22.0444 2.47696 21.9953 1.54229 21.4433C1.51281 21.426 1.48362 21.4081 1.45472 21.3898C1.42583 21.3715 1.39724 21.3527 1.36896 21.3335C1.34068 21.3143 1.31274 21.2947 1.28513 21.2746C1.25751 21.2545 1.23024 21.234 1.2033 21.2131C1.17636 21.1921 1.14978 21.1708 1.12355 21.149C1.09732 21.1272 1.07147 21.105 1.04599 21.0825C1.02049 21.0599 0.995378 21.0369 0.970647 21.0135C0.94594 20.9902 0.921615 20.9664 0.897675 20.9423C0.873737 20.9182 0.850211 20.8936 0.8271 20.8688C0.803971 20.8439 0.781265 20.8187 0.758982 20.7931C0.736703 20.7675 0.714855 20.7416 0.69344 20.7153C0.672028 20.6891 0.651048 20.6625 0.630503 20.6355C0.609979 20.6086 0.589908 20.5814 0.570289 20.5538C0.550653 20.5262 0.531479 20.4984 0.51277 20.4702C0.494081 20.4421 0.475854 20.4136 0.458092 20.3849C0.440351 20.3562 0.423083 20.3272 0.406286 20.2979C0.389492 20.2686 0.373189 20.2391 0.357381 20.2093C0.341572 20.1796 0.326267 20.1495 0.311466 20.1193C0.296645 20.089 0.282336 20.0585 0.268541 20.0278C0.254746 19.9971 0.241464 19.9662 0.228695 19.935C0.215926 19.9039 0.20368 19.8726 0.191957 19.8411C0.180234 19.8096 0.169034 19.7779 0.158357 19.746C0.1477 19.7141 0.137565 19.6821 0.127954 19.65C0.118343 19.6178 0.109274 19.5854 0.100748 19.553C0.092203 19.5205 0.0842098 19.4879 0.0767695 19.4552C0.0693292 19.4225 0.0624316 19.3896 0.0560766 19.3567C0.0497021 19.3238 0.0438897 19.2907 0.0386402 19.2577C0.0333906 19.2245 0.0286836 19.1913 0.0245192 19.1581C0.0203747 19.1248 0.016773 19.0915 0.013714 19.0581C0.0106746 19.0248 0.00818795 18.9913 0.00625392 18.9579C0.00431993 18.9244 0.00293834 18.8909 0.00210945 18.8575C0.0013002 18.824 0.00104363 18.7904 0.00133973 18.7569L0.00133973 6.27808C0.00133973 4.6098 0.936011 3.10347 2.43907 2.3552L6.79671 0.184ZM9.15869 0L9.15869 20.2167L14.3752 22.8172C14.5268 22.8908 14.6784 22.9509 14.8426 23L14.8426 2.78331L9.62604 0.182764C9.47447 0.109164 9.3229 0.0490762 9.15869 0ZM22.459 1.55788C21.5243 1.00588 20.4001 0.969076 19.4276 1.44748L16.7372 2.78331L16.7372 23C16.9014 22.9509 17.053 22.8896 17.2045 22.816L21.5622 20.646C21.6081 20.6229 21.6536 20.5991 21.6987 20.5745C21.7438 20.5499 21.7884 20.5245 21.8326 20.4984C21.8768 20.4723 21.9206 20.4455 21.9638 20.418C22.0071 20.3904 22.0498 20.3621 22.0921 20.3332C22.1343 20.3042 22.176 20.2745 22.2172 20.2441C22.2584 20.2137 22.299 20.1827 22.3391 20.151C22.3792 20.1192 22.4188 20.0868 22.4577 20.0538C22.4966 20.0207 22.535 19.987 22.5727 19.9527C22.6105 19.9184 22.6476 19.8834 22.6841 19.8478C22.7206 19.8123 22.7565 19.7761 22.7918 19.7393C22.827 19.7025 22.8616 19.6652 22.8955 19.6272C22.9294 19.5893 22.9626 19.5508 22.9951 19.5118C23.0277 19.4728 23.0595 19.4332 23.0907 19.3931C23.1218 19.353 23.1522 19.3124 23.182 19.2713C23.2117 19.2301 23.2406 19.1885 23.2689 19.1464C23.2971 19.1044 23.3246 19.0618 23.3513 19.0188C23.378 18.9758 23.404 18.9324 23.4292 18.8885C23.4543 18.8446 23.4787 18.8003 23.5024 18.7556C23.526 18.7109 23.5488 18.6659 23.5708 18.6204C23.5928 18.575 23.6141 18.5292 23.6345 18.483C23.6549 18.4368 23.6744 18.3904 23.6932 18.3436C23.7119 18.2967 23.7298 18.2496 23.7469 18.2022C23.764 18.1548 23.7803 18.1071 23.7956 18.0592C23.811 18.0112 23.8256 17.963 23.8393 17.9146C23.853 17.8661 23.8658 17.8175 23.8777 17.7686C23.8897 17.7198 23.9008 17.6707 23.911 17.6214C23.9212 17.5722 23.9306 17.5228 23.9391 17.4733C23.9475 17.4237 23.9552 17.374 23.9619 17.3242C23.9686 17.2744 23.9744 17.2245 23.9794 17.1745C23.9843 17.1245 23.9884 17.0744 23.9915 17.0243C23.9947 16.9742 23.997 16.924 23.9984 16.8738C23.9998 16.8236 24.0003 16.7734 23.9999 16.7231L23.9999 4.2418C23.9999 3.12555 23.4189 2.11968 22.459 1.55664L22.459 1.55788Z"   fill="#FF9449" >
</path>
<path d="M6.79671 0.184C6.94828 0.1104 7.09985 0.0490762 7.26406 0L7.26406 20.2167L4.57369 21.5537C3.60113 22.0444 2.47696 21.9953 1.54229 21.4433C1.51281 21.426 1.48362 21.4081 1.45472 21.3898C1.42583 21.3715 1.39724 21.3527 1.36896 21.3335C1.34068 21.3143 1.31274 21.2947 1.28513 21.2746C1.25751 21.2545 1.23024 21.234 1.2033 21.2131C1.17636 21.1921 1.14978 21.1708 1.12355 21.149C1.09732 21.1272 1.07147 21.105 1.04599 21.0825C1.02049 21.0599 0.995378 21.0369 0.970647 21.0135C0.94594 20.9902 0.921615 20.9664 0.897675 20.9423C0.873737 20.9182 0.850211 20.8936 0.8271 20.8688C0.803971 20.8439 0.781265 20.8187 0.758982 20.7931C0.736703 20.7675 0.714855 20.7416 0.69344 20.7153C0.672028 20.6891 0.651048 20.6625 0.630503 20.6355C0.609979 20.6086 0.589908 20.5814 0.570289 20.5538C0.550653 20.5262 0.531479 20.4984 0.51277 20.4702C0.494081 20.4421 0.475854 20.4136 0.458092 20.3849C0.440351 20.3562 0.423083 20.3272 0.406286 20.2979C0.389492 20.2686 0.373189 20.2391 0.357381 20.2093C0.341572 20.1796 0.326267 20.1495 0.311466 20.1193C0.296645 20.089 0.282336 20.0585 0.268541 20.0278C0.254746 19.9971 0.241464 19.9662 0.228695 19.935C0.215926 19.9039 0.20368 19.8726 0.191957 19.8411C0.180234 19.8096 0.169034 19.7779 0.158357 19.746C0.1477 19.7141 0.137565 19.6821 0.127954 19.65C0.118343 19.6178 0.109274 19.5854 0.100748 19.553C0.092203 19.5205 0.0842098 19.4879 0.0767695 19.4552C0.0693292 19.4225 0.0624316 19.3896 0.0560766 19.3567C0.0497021 19.3238 0.0438897 19.2907 0.0386402 19.2577C0.0333906 19.2245 0.0286836 19.1913 0.0245192 19.1581C0.0203747 19.1248 0.016773 19.0915 0.013714 19.0581C0.0106746 19.0248 0.00818795 18.9913 0.00625392 18.9579C0.00431993 18.9244 0.00293834 18.8909 0.00210945 18.8575C0.0013002 18.824 0.00104363 18.7904 0.00133973 18.7569L0.00133973 6.27808C0.00133973 4.6098 0.936011 3.10347 2.43907 2.3552L6.79671 0.184ZM9.15869 0L9.15869 20.2167L14.3752 22.8172C14.5268 22.8908 14.6784 22.9509 14.8426 23L14.8426 2.78331L9.62604 0.182764C9.47447 0.109164 9.3229 0.0490762 9.15869 0ZM22.459 1.55788C21.5243 1.00588 20.4001 0.969076 19.4276 1.44748L16.7372 2.78331L16.7372 23C16.9014 22.9509 17.053 22.8896 17.2045 22.816L21.5622 20.646C21.6081 20.6229 21.6536 20.5991 21.6987 20.5745C21.7438 20.5499 21.7884 20.5245 21.8326 20.4984C21.8768 20.4723 21.9206 20.4455 21.9638 20.418C22.0071 20.3904 22.0498 20.3621 22.0921 20.3332C22.1343 20.3042 22.176 20.2745 22.2172 20.2441C22.2584 20.2137 22.299 20.1827 22.3391 20.151C22.3792 20.1192 22.4188 20.0868 22.4577 20.0538C22.4966 20.0207 22.535 19.987 22.5727 19.9527C22.6105 19.9184 22.6476 19.8834 22.6841 19.8478C22.7206 19.8123 22.7565 19.7761 22.7918 19.7393C22.827 19.7025 22.8616 19.6652 22.8955 19.6272C22.9294 19.5893 22.9626 19.5508 22.9951 19.5118C23.0277 19.4728 23.0595 19.4332 23.0907 19.3931C23.1218 19.353 23.1522 19.3124 23.182 19.2713C23.2117 19.2301 23.2406 19.1885 23.2689 19.1464C23.2971 19.1044 23.3246 19.0618 23.3513 19.0188C23.378 18.9758 23.404 18.9324 23.4292 18.8885C23.4543 18.8446 23.4787 18.8003 23.5024 18.7556C23.526 18.7109 23.5488 18.6659 23.5708 18.6204C23.5928 18.575 23.6141 18.5292 23.6345 18.483C23.6549 18.4368 23.6744 18.3904 23.6932 18.3436C23.7119 18.2967 23.7298 18.2496 23.7469 18.2022C23.764 18.1548 23.7803 18.1071 23.7956 18.0592C23.811 18.0112 23.8256 17.963 23.8393 17.9146C23.853 17.8661 23.8658 17.8175 23.8777 17.7686C23.8897 17.7198 23.9008 17.6707 23.911 17.6214C23.9212 17.5722 23.9306 17.5228 23.9391 17.4733C23.9475 17.4237 23.9552 17.374 23.9619 17.3242C23.9686 17.2744 23.9744 17.2245 23.9794 17.1745C23.9843 17.1245 23.9884 17.0744 23.9915 17.0243C23.9947 16.9742 23.997 16.924 23.9984 16.8738C23.9998 16.8236 24.0003 16.7734 23.9999 16.7231L23.9999 4.2418C23.9999 3.12555 23.4189 2.11968 22.459 1.55664L22.459 1.55788Z"   fill="#2595E8" >
</path>
<path d="M7.26406 13.6922L7.26406 20.2181L4.57369 21.5539C3.60113 22.0446 2.47696 21.9955 1.54229 21.4435C1.4846 21.4097 1.42809 21.3741 1.37275 21.3369C1.31739 21.2996 1.26332 21.2606 1.21053 21.2199C1.15773 21.1793 1.10633 21.1371 1.05632 21.0932C1.00629 21.0494 0.957749 21.0041 0.910701 20.9573C0.863669 20.9104 0.81821 20.8622 0.774317 20.8126C0.730445 20.7629 0.68824 20.712 0.647703 20.6597C0.607166 20.6075 0.568375 20.554 0.531331 20.4994C0.494307 20.4447 0.459108 20.389 0.425735 20.3321L7.26279 13.6922L7.26406 13.6922ZM14.8426 6.33097L14.8426 15.0059L9.36582 20.3199L9.15742 20.2156L9.15742 11.8497L14.8413 6.32973L14.8426 6.33097ZM20.1298 1.19614C20.1543 1.19045 20.1789 1.18505 20.2036 1.17995C20.2282 1.17486 20.2529 1.17004 20.2777 1.16552C20.3025 1.16102 20.3273 1.1568 20.3521 1.15287C20.377 1.14896 20.402 1.14534 20.4269 1.142C20.4519 1.13867 20.4769 1.13564 20.5019 1.13292C20.5269 1.13018 20.552 1.12774 20.5771 1.12562C20.6022 1.12349 20.6274 1.12166 20.6525 1.12012C20.6777 1.11859 20.7028 1.11736 20.728 1.11642C20.7532 1.11548 20.7784 1.11484 20.8036 1.11452C20.8288 1.11417 20.854 1.11414 20.8792 1.1144C20.9044 1.11467 20.9296 1.11524 20.9547 1.1161C20.9799 1.11698 21.0051 1.11815 21.0302 1.11961C21.0554 1.12108 21.0805 1.12285 21.1056 1.1249C21.1308 1.12697 21.1558 1.12933 21.1809 1.132C21.2059 1.13466 21.2309 1.13762 21.2559 1.14088C21.2809 1.14416 21.3058 1.14772 21.3307 1.15158C21.3556 1.15543 21.3804 1.15958 21.4052 1.16403C21.43 1.16847 21.4547 1.17322 21.4794 1.17826C21.504 1.1833 21.5286 1.18863 21.5531 1.19424C21.5777 1.19986 21.6021 1.20577 21.6265 1.21198C21.6508 1.21819 21.6751 1.22469 21.6994 1.23147C21.7236 1.23826 21.7477 1.24533 21.7717 1.25269C21.7958 1.26005 21.8197 1.2677 21.8435 1.27563C21.8674 1.28355 21.8911 1.29176 21.9148 1.30027C21.9384 1.30876 21.9619 1.31754 21.9853 1.32661C22.0087 1.33565 22.032 1.34499 22.0552 1.35461C22.0784 1.36421 22.1014 1.37409 22.1243 1.38425C22.1473 1.39443 22.1701 1.40486 22.1927 1.41556C22.2154 1.42627 22.2379 1.43725 22.2603 1.44848C22.2827 1.45973 22.3049 1.47124 22.327 1.48301C22.3491 1.49478 22.371 1.50681 22.3928 1.51912C22.4146 1.53142 22.4362 1.54398 22.4577 1.55678C23.4176 2.12105 23.9987 3.1269 23.9987 4.24318L23.9987 6.11261L16.7359 13.1659L16.7359 4.49097L20.1298 1.19614Z"   fill="#3A9CED" >
</path>
<path d="M7.26399 0L7.26399 5.01707L0.00126648 12.0704L0.00126648 6.27684C0.00126648 4.60859 0.935939 3.10224 2.439 2.35396L6.79664 0.182764C6.94821 0.109164 7.09978 0.0490762 7.26399 0ZM9.15862 0C9.32283 0.0490762 9.4744 0.1104 9.62597 0.184L11.3551 1.04388L9.15734 3.17707L9.15862 0Z"   fill="#6BC2FC" >
</path>
<path d="M7.26402 5.01827L7.26402 13.6908L0.424414 20.332C0.407028 20.3022 0.390133 20.2721 0.373733 20.2418C0.357332 20.2115 0.341456 20.1809 0.326101 20.15C0.310727 20.1192 0.295866 20.0882 0.281518 20.0568C0.26719 20.0255 0.253385 19.994 0.240103 19.9623C0.22682 19.9306 0.214071 19.8986 0.201855 19.8665C0.189658 19.8344 0.177985 19.8021 0.166834 19.7695C0.155703 19.737 0.145115 19.7044 0.135069 19.6715C0.125024 19.6387 0.115531 19.6057 0.106591 19.5726C0.0976505 19.5394 0.0892626 19.5062 0.0814277 19.4728C0.0735929 19.4394 0.0663202 19.4059 0.0596099 19.3722C0.0528997 19.3386 0.0467522 19.3049 0.041167 19.271C0.0355817 19.2372 0.0305689 19.2033 0.0261283 19.1693C0.021668 19.1354 0.0177801 19.1013 0.0144645 19.0672C0.011149 19.0331 0.00839576 18.999 0.00620519 18.9648C0.00403425 18.9306 0.00243564 18.8964 0.00140935 18.8621C0.000363404 18.8279 -0.00010028 18.7937 1.80686e-05 18.7594L1.80686e-05 12.0716L7.26275 5.0195L7.26402 5.01827ZM11.3539 1.0451L14.8425 2.7833L14.8425 6.33082L9.15865 11.8508L9.15865 3.17827L11.3539 1.0451ZM20.131 1.19598L16.7359 4.49082L16.7371 2.7833L19.4275 1.44622C19.6549 1.33582 19.8911 1.24995 20.131 1.19598Z"   fill="#59ADF8" >
</path>
<g >
<path     fill="#FFFFFF"  d="M2.188 35.404L2.188 24.844L11.728 24.844L11.728 35.404L2.188 35.404ZM9.916 34.036L9.916 32.212L4.012 32.212L4.012 34.036L9.916 34.036ZM4.012 30.784L9.916 30.784L9.916 29.2L4.012 29.2L4.012 30.784ZM4.012 27.772L9.916 27.772L9.916 26.2L4.012 26.2L4.012 27.772ZM21.472 28.612L21.472 27.808L14.392 27.808L14.392 26.776L21.472 26.776L21.472 25.984L14.212 25.984L14.212 24.82L23.308 24.82L23.308 28.612L24.46 28.612L24.46 29.776L19.948 29.776L19.948 34.408L18.1 35.812L16.948 34.408L18.016 33.58L18.016 29.776L13.672 29.776L13.672 28.612L21.472 28.612ZM17.248 32.308L15.832 35.212L13.804 35.212L15.22 32.308L17.248 32.308ZM22.792 32.308L23.908 35.212L21.892 35.212L20.764 32.308L22.792 32.308ZM23.944 30.172L22.84 31.816L20.812 31.816L21.904 30.172L23.944 30.172ZM16.06 30.172L17.188 31.792L15.16 31.792L14.032 30.172L16.06 30.172Z">
</path>
</g>
</svg>
