<svg xmlns="http://www.w3.org/2000/svg" xmlns:xlink="http://www.w3.org/1999/xlink" width="40" height="49" viewBox="0 0 40 49" fill="none">
<circle cx="20" cy="23.33331298828125" r="20"   fill="#CBD3F9" >
</circle>
<circle cx="20" cy="20" r="20"   fill="#F5F6FA" >
</circle>
<ellipse cx="19.99991798400879" cy="19.999977111816406" rx="16.66666603088379" ry="16.666664123535156"   fill="#FA7B5F" >
</ellipse>
<rect  x="5" y="36" width="30" height="13" rx="5"    fill="#CBD3F9" >
</rect>
<rect  x="5" y="34" width="30" height="13" rx="5"    fill="#FFFFFF" >
</rect>
<rect  x="6" y="35" width="28" height="11" rx="5"    fill="#FA7B5F" >
</rect>
<g >
<path     fill="#FFFFFF"  d="M13.29 38L13.93 38.31Q12.69 40.72 12.05 41.57L13.82 41.09L13.84 41.85Q12.95 42.01 11.46 42.39Q11.22 42.44 10.89 42.53L10.71 41.71Q10.93 41.65 11.025 41.585Q11.12 41.52 11.25 41.36Q11.8 40.69 12.42 39.58Q11.69 39.69 11.17 39.81L10.64 39.93L10.47 39.14Q10.61 39.09 10.69 39.03Q10.77 38.97 10.85 38.86Q11.12 38.48 11.58 37.575Q12.04 36.67 12.37 35.89L13.06 36.18Q12.75 36.89 12.29 37.805Q11.83 38.72 11.56 39.13L12.83 38.85L13.29 38ZM19.45 37.27L19.45 38.02L17.02 38.02L17.02 39.42L19.1 39.42L19.1 40.17L14.2 40.17L14.2 39.42L16.21 39.42L16.21 38.02L13.94 38.02L13.94 37.27L16.21 37.27L16.21 35.9L17.02 35.9L17.02 37.27L19.45 37.27ZM15.21 45.05L14.41 45.05L14.41 41.22L18.84 41.22L18.84 45.05L18.04 45.05L18.04 44.41L15.21 44.41L15.21 45.05ZM18.04 43.67L18.04 41.96L15.21 41.96L15.21 43.67L18.04 43.67ZM10.43 43.92Q10.74 43.87 11.96 43.58Q13.18 43.29 13.89 43.11L13.93 43.92L12.41 44.26Q12.06 44.34 11.375 44.495Q10.69 44.65 10.52 44.68L10.43 43.92ZM26.86 35.9L26.86 36.71L29.43 36.71L29.43 37.39L26.86 37.39L26.86 37.84L26.07 37.84L26.07 37.39L23.81 37.39L23.81 37.84L23.02 37.84L23.02 37.39L20.45 37.39L20.45 36.71L23.02 36.71L23.02 35.9L23.81 35.9L23.81 36.71L26.07 36.71L26.07 35.9L26.86 35.9ZM21.68 40.06L20.9 40.06L20.9 38.3L28.97 38.3L28.97 40.06L28.21 40.06L28.21 38.94L21.68 38.94L21.68 40.06ZM22.21 41.57L22.21 39.54L27.68 39.54L27.68 41.57L22.21 41.57ZM23 40.97L26.9 40.97L26.9 40.14L23 40.14L23 40.97ZM22.23 44.85L21.42 44.85L21.42 42.12L28.46 42.12L28.46 44.86L27.65 44.86L27.65 44.41L22.23 44.41L22.23 44.85ZM27.65 43.77L27.65 42.77L22.23 42.77L22.23 43.77L27.65 43.77Z">
</path>
</g>
<path   fill-rule="evenodd"  fill="#FFFFFF"  d="M19.9784 8.11452L14.7684 8.11452C13.9065 8.11452 13.2084 8.81154 13.2084 9.67452L13.2084 26.3545C13.2084 26.6434 13.4411 26.8745 13.7284 26.8745C14.0157 26.8745 14.2484 26.6434 14.2484 26.3545L14.2484 17.4945L19.9784 17.4945C20.2657 17.4945 20.4984 17.7356 20.4984 18.0245C20.4984 18.8875 21.195 19.5845 22.0584 19.5845L27.2684 19.5845C27.6986 19.5845 27.945 19.0878 27.6884 18.7445L24.7984 14.8945L27.6884 11.0345C27.945 10.6912 27.6986 10.2045 27.2684 10.2045L21.5384 10.2045L21.5384 9.67452C21.5384 8.81154 20.8402 8.11452 19.9784 8.11452ZM20.5 9.67622C20.5 9.38903 20.2675 9.15622 19.98 9.15622L14.77 9.15622C14.4825 9.15622 14.25 9.38903 14.25 9.67622L14.25 16.4562L19.98 16.4562C20.8425 16.4562 21.54 17.1528 21.54 18.0162C21.54 18.3034 21.7725 18.5462 22.06 18.5462L26.23 18.5462L23.73 15.2062C23.591 15.0213 23.591 14.7721 23.73 14.5862L26.23 11.2462L21.54 11.2462L21.54 12.8062C21.54 13.0934 21.3075 13.3362 21.02 13.3362C20.7325 13.3362 20.5 13.0934 20.5 12.8062L20.5 9.67622Z">
</path>
<path   fill-rule="evenodd"  fill="#FFFFFF"  d="M24.34 21.5C24.944 21.5 25.4498 21.959 25.51 22.56L25.72 24.63L27.81 24.63C28.6725 24.63 29.37 25.327 29.37 26.19L29.36 26.34L28.99 30.09C28.9101 30.889 28.2323 31.5 27.43 31.5L23.56 31.5C23.1396 31.5 22.7613 31.33 22.48 31.06C22.3142 31.322 22.0226 31.5 21.69 31.5L20.44 31.5C19.9219 31.5 19.5 31.077 19.5 30.56L19.5 26.19C19.5 25.672 19.9219 25.25 20.44 25.25L21.69 25.25C21.9298 25.25 22.1442 25.341 22.31 25.49L22.86 24.39C23.1146 23.882 23.25 23.318 23.25 22.75L23.25 22.59C23.25 21.986 23.736 21.5 24.34 21.5ZM24.895 22.625C24.8669 22.3433 24.6277 22.125 24.345 22.125C24.0862 22.125 23.875 22.336 23.875 22.595L23.875 22.745C23.875 23.41 23.7224 24.07 23.425 24.665L22.625 26.265L22.625 29.935C22.625 30.4521 23.0474 30.875 23.565 30.875L27.435 30.875C27.9165 30.875 28.3167 30.5145 28.365 30.035L28.735 26.285C28.735 26.285 28.745 26.2156 28.745 26.185C28.745 25.667 28.3226 25.245 27.805 25.245L25.435 25.245C25.2741 25.245 25.1409 25.1243 25.125 24.965L24.895 22.625ZM21.685 25.875C21.8577 25.875 21.995 26.0125 21.995 26.185L21.995 30.565C21.995 30.7375 21.8577 30.875 21.685 30.875L20.435 30.875C20.2623 30.875 20.125 30.7375 20.125 30.565L20.125 26.185C20.125 26.0125 20.2623 25.875 20.435 25.875L21.685 25.875Z">
</path>
</svg>
