<svg xmlns="http://www.w3.org/2000/svg" xmlns:xlink="http://www.w3.org/1999/xlink" width="36" height="42.996917724609375" viewBox="0 0 36 42.996917724609375" fill="none">
<circle cx="18" cy="21" r="18"   fill="#CBD3F9" >
</circle>
<circle cx="18" cy="18" r="18"   fill="#F5F6FA" >
</circle>
<circle cx="18" cy="18" r="15"   fill="#71D25E" >
</circle>
<ellipse cx="18.5" cy="37.458457946777344" rx="5.5" ry="5.538459777832031"   fill="#CBD3F9" >
</ellipse>
<ellipse cx="18.5" cy="35.53845977783203" rx="5.5" ry="5.538459777832031"   fill="#F5F6FA" >
</ellipse>
<path   fill="rgba(113, 210, 94, 1)"  d="M17.1933 35.7521L18.3552 36.8979L17.8286 37.4319L18.3552 36.8979C18.191 36.7359 17.9265 36.7382 17.7651 36.9029L18.3007 37.4278L17.7651 36.9029L20.7977 33.8084L21.869 34.8583L18.8364 37.9528L18.8364 37.9528C18.4167 38.3811 17.7289 38.3869 17.302 37.9659L17.302 37.9659L16.1401 36.8201L17.1933 35.7521ZM17.302 37.9659L17.8286 37.4319L17.302 37.9659L17.302 37.9659ZM18.8364 37.9528L18.3007 37.4278L18.8364 37.9528L18.8364 37.9528ZM16.6667 37.0361C16.2525 37.0361 15.9167 36.7003 15.9167 36.2861C15.9167 35.8719 16.2525 35.5361 16.6667 35.5361C17.0809 35.5361 17.4167 35.8719 17.4167 36.2861C17.4167 36.7003 17.0809 37.0361 16.6667 37.0361ZM21.3334 35.0833C20.9191 35.0833 20.5834 34.7475 20.5834 34.3333C20.5834 33.9191 20.9191 33.5833 21.3334 33.5833C21.7476 33.5833 22.0834 33.9191 22.0834 34.3333C22.0834 34.7475 21.7476 35.0833 21.3334 35.0833Z">
</path>
					  <!-- 添加数字 -->
					  <text x="18" y="21" text-anchor="middle" dominant-baseline="middle" fill="#000" font-size="10">
						1123 <!-- 这里是要显示的数字 -->
					  </text>

</svg>
