<?xml version="1.0" standalone="no"?><!DOCTYPE svg PUBLIC "-//W3C//DTD SVG 1.1//EN" "http://www.w3.org/Graphics/SVG/1.1/DTD/svg11.dtd"><svg t="1728273341748" class="icon" viewBox="0 0 1024 1024" version="1.1" xmlns="http://www.w3.org/2000/svg" p-id="27430" xmlns:xlink="http://www.w3.org/1999/xlink" width="200" height="200"><path d="M846.62272 461.98784c-4.36224-0.69632-8.72448-4.25984-12.34944-9.95328s-6.53312-17.08032-8.704-32.72704c-3.62496-25.6-11.61216-44.83072-25.3952-56.9344-13.78304-12.0832-34.83648-20.62336-63.87712-26.3168a177.54112 177.54112 0 0 1-79.81056-36.29056c-23.22432-17.77664-42.82368-34.85696-58.0608-51.22048-14.52032-13.5168-26.13248-18.49344-34.11968-14.9504-7.9872 4.28032-12.32896 11.38688-12.32896 22.05696v135.18848c0 37.00736 0 76.84096-0.7168 119.54176 0 42.68032-0.73728 83.2512-0.73728 121.6512v157.26592c0.73728 15.64672-2.17088 33.44384-7.24992 52.6336-5.81632 19.23072-16.6912 37.72416-31.9488 54.80448-15.95392 17.05984-37.00736 32.01024-63.11936 44.11392-26.13248 12.0832-58.7776 19.21024-97.97632 21.34016-39.91552 2.12992-75.4688-4.97664-107.39712-20.64384-31.9488-15.64672-56.60672-35.57376-74.0352-59.76064-17.408-24.18688-26.112-50.52416-25.3952-78.97088 0-28.4672 13.06624-55.5008 37.74464-80.40448 24.65792-24.90368 51.52768-42.7008 80.54784-52.65408 29.02016-9.95328 56.60672-15.64672 83.456-16.36352 26.84928-0.7168 50.7904 0.7168 71.84384 5.69344 21.05344 4.25984 37.00736 8.54016 47.16544 12.8V392.97024c0-77.53728 0-165.0688 0.73728-262.5536 0-19.18976 5.07904-34.85696 15.23712-46.94016 10.15808-12.0832 23.22432-19.21024 40.63232-21.34016 13.80352-2.1504 25.3952 0.69632 34.83648 8.51968 9.4208 7.84384 18.14528 17.79712 27.58656 31.31392 9.4208 13.5168 21.03296 29.16352 34.816 46.24384 13.80352 17.08032 32.6656 34.16064 55.9104 50.52416 20.29568 14.9504 37.72416 26.3168 52.96128 32.72704 15.23712 6.41024 29.02016 12.8 42.0864 18.49344 13.06624 5.69344 26.13248 12.10368 38.46144 19.92704 13.06624 7.82336 26.84928 20.64384 42.0864 38.42048 15.23712 17.08032 24.6784 34.87744 28.30336 53.37088 3.62496 18.49344 3.62496 35.57376 0.73728 50.50368-2.90816 14.9504-7.9872 27.7504-14.52032 37.00736-6.53312 9.25696-12.32896 13.5168-17.408 12.8z" fill="#ffffff" p-id="27431" fill-opacity="0.6"></path></svg>