<svg xmlns="http://www.w3.org/2000/svg" xmlns:xlink="http://www.w3.org/1999/xlink" width="161" height="30" viewBox="0 0 161 30" fill="none">
<path d="M55.9377 16.5652L57.9301 15.4548L61.8422 21.9956L61.7807 23.6116L65.4412 23.6116L65.4412 24.0912L61.7617 24.0912L59.8498 23.106L55.9377 16.5652ZM61.4206 23.4817L61.4519 22.5827L60.5989 23.0576L61.4206 23.4817ZM57.7624 16.0608L56.5672 16.7271L60.0175 22.4988L61.2127 21.8326L57.7624 16.0608Z"   fill="#317DF7" fill-opacity="0.6">
</path>
<rect x="0" y="0" width="161.0001220703125" height="30"   fill="url(#linear_fill_55_31)" >
</rect>
<path d="M105.659 16.1104L103.667 15L99.755 21.5408L99.8165 23.1568L96.156 23.1568L96.156 23.6364L99.8355 23.6364L101.747 22.6512L105.659 16.1104ZM100.177 23.0268L100.145 22.1279L100.998 22.6027L100.177 23.0268ZM103.835 15.606L105.03 16.2722L101.58 22.044L100.384 21.3778L103.835 15.606Z"   fill="#317DF7" fill-opacity="0.6">
</path>
<path d="M49.2913 16.5652L51.2837 15.4548L55.1958 21.9956L55.1343 23.6116L58.7948 23.6116L58.7948 24.0912L55.1153 24.0912L53.2034 23.106L49.2913 16.5652ZM54.7743 23.4817L54.8056 22.5827L53.9525 23.0576L54.7743 23.4817ZM51.116 16.0608L49.9208 16.7271L53.3711 22.4988L54.5663 21.8326L51.116 16.0608Z"   fill="#317DF7" fill-opacity="0.6">
</path>
<path d="M112.312 16.1104L110.32 15L106.408 21.5408L106.469 23.1568L102.809 23.1568L102.809 23.6364L106.488 23.6364L108.4 22.6512L112.312 16.1104ZM106.829 23.0268L106.798 22.1279L107.651 22.6027L106.829 23.0268ZM110.487 15.606L111.683 16.2722L108.232 22.044L107.037 21.3778L110.487 15.606Z"   fill="#317DF7" fill-opacity="0.6">
</path>
<path d="M42.6334 16.5652L44.6258 15.4548L48.5378 21.9956L48.4763 23.6116L52.1368 23.6116L52.1368 24.0912L48.4573 24.0912L46.5455 23.106L42.6334 16.5652ZM48.1163 23.4817L48.1476 22.5827L47.2945 23.0576L48.1163 23.4817ZM44.458 16.0608L43.2629 16.7271L46.7132 22.4988L47.9084 21.8326L44.458 16.0608Z"   fill="#317DF7" fill-opacity="0.6">
</path>
<path d="M36.1149 16.5655L38.1073 15.4551L42.0194 21.9958L41.9579 23.6118L45.6184 23.6118L45.6184 24.0914L41.9389 24.0914L40.027 23.1063L36.1149 16.5655ZM41.5979 23.4819L41.6292 22.583L40.7761 23.0578L41.5979 23.4819ZM37.9396 16.0611L36.7444 16.7273L40.1947 22.4991L41.3899 21.8328L37.9396 16.0611Z"   fill="#317DF7" fill-opacity="0.6">
</path>
<path d="M118.965 16.1104L116.972 15L113.06 21.5408L113.122 23.1568L109.461 23.1568L109.461 23.6364L113.141 23.6364L115.053 22.6512L118.965 16.1104ZM113.482 23.0268L113.451 22.1279L114.304 22.6027L113.482 23.0268ZM117.14 15.606L118.335 16.2722L114.885 22.044L113.69 21.3778L117.14 15.606Z"   fill="#317DF7" fill-opacity="0.6">
</path>
<defs>
<linearGradient id="linear_fill_55_31" x1="0" y1="15" x2="161.0001220703125" y2="15" gradientUnits="userSpaceOnUse">
<stop offset="0" stop-color="#4287FF"  />
<stop offset="0.2262" stop-color="#639FFF"  />
<stop offset="0.6832" stop-color="#77AAFC"  />
<stop offset="1" stop-color="#4993FE"  />
</linearGradient>
</defs>
</svg>
