<svg xmlns="http://www.w3.org/2000/svg" xmlns:xlink="http://www.w3.org/1999/xlink" width="40.00006103515625" height="48.9105224609375" viewBox="0 0 40.00006103515625 48.9105224609375" fill="none">
<path d="M1.13471 46.4327C0.824865 46.4327 0.569702 46.1766 0.569702 45.8656L0.569702 8.66258C0.569702 8.35156 0.824865 8.09543 1.13471 8.09543L7.64137 8.09543L7.64137 1.13416C7.64137 0.823147 7.89653 0.567017 8.20637 0.567017L34.7251 0.567017C35.035 0.567017 35.2901 0.823147 35.2901 1.13416L35.2901 45.8747C35.2901 46.1857 35.035 46.4419 34.7251 46.4419L1.13471 46.4419L1.13471 46.4327Z"   fill="#E9F6FD" >
</path>
<path d="M8.19724 0L34.716 0C35.3357 0 35.8369 0.512262 35.8369 1.13429L35.8369 45.8749C35.8369 46.4969 35.3357 47 34.716 47L1.13469 47C0.515007 47 0.0137939 46.4969 0.0137939 45.8749L0.0137939 8.66271C0.0137939 8.04068 0.515007 7.53756 1.13469 7.53756L7.07635 7.53756L7.07635 1.12515C7.07635 0.503114 7.57756 0 8.19724 0ZM8.19725 8.66272L8.19725 1.1343L34.716 1.1343L34.716 45.8749L1.13469 45.8749L1.13469 8.66272L8.19725 8.66272Z" fill-rule="evenodd"  fill="#55529F" >
</path>
<path d="M7.79626 0.74082C7.90562 0.621902 8.05143 0.567017 8.20635 0.567017C8.27925 0.567017 8.34304 0.576164 8.41594 0.603607C8.62554 0.685934 8.77135 0.896328 8.77135 1.12502L8.77135 8.66258C8.77135 8.97359 8.51619 9.22973 8.20635 9.22973L1.13468 9.22973C0.906851 9.22973 0.706365 9.09251 0.615235 8.89127C0.524105 8.68087 0.56967 8.44304 0.724591 8.27838L7.79626 0.74082Z"   fill="#B7DFF8" >
</path>
<path d="M0.0958228 9.11094C-0.0864367 8.6993 -0.00441997 8.22363 0.305421 7.89432L7.37709 0.356754C7.5958 0.128065 7.89653 0 8.19726 0C8.34307 0 8.47976 0.0274426 8.60734 0.0914753C9.03565 0.256131 9.31815 0.667769 9.31815 1.13429L9.31815 8.66271C9.31815 9.28474 8.81694 9.78786 8.19726 9.78786L1.12559 9.78786C0.679053 9.78786 0.268969 9.52258 0.0958228 9.11094ZM8.19726 8.67186L1.1256 8.67186L8.19726 1.1343L8.19726 8.67186Z" fill-rule="evenodd"  fill="#55529F" >
</path>
<path    stroke="rgba(255, 255, 255, 1.00)" stroke-width="9.638971159999999" stroke-linejoin="round" stroke-linecap="round"  d="M33.3217 24.2501L33.3217 24.2501ZM33.3217 24.2501L33.3217 21.5242">
</path>
<path    stroke="rgba(255, 255, 255, 1.00)" stroke-width="9.638971159999999" stroke-linejoin="round" stroke-linecap="round"  d="M2.19177 44.0911L2.19177 44.0911ZM2.19177 44.0911L2.19177 41.9231">
</path>
<path d="M39.2543 6.2752C39.5277 7.07103 39.473 7.92175 39.1085 8.67185L24.555 38.7581C24.5186 38.8312 24.473 38.8953 24.4092 38.9501L19.634 42.911C19.5338 42.9934 19.4062 43.0391 19.2786 43.0391C19.1966 43.0391 19.1146 43.0208 19.0326 42.9842C18.8321 42.8836 18.7136 42.6823 18.7136 42.4628L18.8777 36.2516C18.8777 36.1693 18.8959 36.0961 18.9323 36.0229L33.4858 5.93674C34.0052 4.86648 35.1079 4.17126 36.3017 4.17126C36.7755 4.17126 37.2312 4.28103 37.6686 4.48228C38.4159 4.84818 38.9809 5.48851 39.2543 6.2752Z"   fill="#DEDBEF" >
</path>
<path d="M20.0077 43.341C19.7981 43.5056 19.5429 43.5971 19.2878 43.5971C19.1237 43.5971 18.9506 43.5605 18.7957 43.4873C18.4038 43.2952 18.1578 42.8836 18.1669 42.4445L18.3309 36.2334C18.3309 36.0687 18.3674 35.9132 18.4403 35.7668L32.9937 5.68061C33.6042 4.4091 34.9074 3.59497 36.3108 3.59497C36.8667 3.59497 37.4135 3.72304 37.9147 3.97917C38.8077 4.4091 39.473 5.1592 39.792 6.09225C40.12 7.02529 40.0562 8.03152 39.6279 8.91883L25.0745 39.0051C25.0107 39.1514 24.9105 39.2795 24.7829 39.3801L20.0077 43.341ZM19.4427 36.2608L33.9961 6.17463C34.4427 5.25988 35.354 4.72017 36.3108 4.72017C36.6845 4.72017 37.0672 4.8025 37.4317 4.9763C38.7075 5.59833 39.2361 7.13512 38.6164 8.41577L24.0538 38.5111L19.2786 42.472L19.4427 36.2608Z" fill-rule="evenodd"  fill="#55529F" >
</path>
<path d="M39.2543 6.2752C39.5277 7.07103 39.473 7.92175 39.1085 8.67185L24.555 38.7581C24.5186 38.8312 24.473 38.8953 24.4092 38.9501L19.634 42.911C19.5338 42.9934 19.4062 43.0391 19.2786 43.0391C19.1966 43.0391 19.1146 43.0208 19.0326 42.9842C18.8321 42.8836 18.7136 42.6823 18.7136 42.4628L18.8777 36.2516C18.8777 36.1693 18.8959 36.0961 18.9323 36.0229L33.4858 5.93674C34.0052 4.86648 35.1079 4.17126 36.3017 4.17126C36.7755 4.17126 37.2312 4.28103 37.6686 4.48228C38.4159 4.84818 38.9809 5.48851 39.2543 6.2752Z"   fill="#FFE691" >
</path>
<path d="M20.0077 43.341C19.7981 43.5056 19.5429 43.5971 19.2878 43.5971C19.1237 43.5971 18.9506 43.5605 18.7957 43.4873C18.4038 43.2952 18.1578 42.8836 18.1669 42.4445L18.3309 36.2334C18.3309 36.0687 18.3674 35.9132 18.4403 35.7668L32.9937 5.68061C33.6042 4.4091 34.9074 3.59497 36.3108 3.59497C36.8667 3.59497 37.4135 3.72304 37.9147 3.97917C38.8077 4.4091 39.473 5.1592 39.792 6.09225C40.12 7.02529 40.0562 8.03152 39.6279 8.91883L25.0745 39.0051C25.0107 39.1514 24.9105 39.2795 24.7829 39.3801L20.0077 43.341ZM19.4427 36.2608L33.9961 6.17463C34.4427 5.25988 35.354 4.72017 36.3108 4.72017C36.6845 4.72017 37.0672 4.8025 37.4317 4.9763C38.7075 5.59833 39.2361 7.13512 38.6164 8.41577L24.0538 38.5111L19.2786 42.472L19.4427 36.2608Z" fill-rule="evenodd"  fill="#55529F" >
</path>
<path d="M33.4949 5.92758C34.0143 4.85732 35.117 4.16211 36.3108 4.16211C36.7846 4.16211 37.2403 4.27188 37.6777 4.47313C39.2269 5.23237 39.8739 7.10761 39.1267 8.66269L38.2609 10.4556C38.1971 10.5928 38.0787 10.6934 37.942 10.7392C37.8691 10.7666 37.8053 10.7758 37.7415 10.7758C37.6595 10.7758 37.5775 10.7575 37.4954 10.7209L32.8843 8.4706C32.7476 8.40656 32.6473 8.28765 32.6018 8.15043C32.5562 8.01322 32.5653 7.85771 32.6291 7.7205L33.4949 5.92758Z"   fill="#E75981" >
</path>
<path d="M37.9146 3.97002C38.8077 4.39995 39.4729 5.15005 39.7919 6.0831C40.1199 7.01615 40.0562 8.02238 39.6278 8.90969L38.7621 10.7026C38.5707 11.0959 38.1698 11.3338 37.7506 11.3338C37.5865 11.3338 37.4134 11.2972 37.2585 11.224L32.6473 8.97372C32.3739 8.84565 32.1734 8.61696 32.0732 8.33339C31.9821 8.04982 32.0003 7.7388 32.1279 7.47352L32.9936 5.68061C33.6042 4.4091 34.9073 3.59497 36.3107 3.59497C36.8666 3.59497 37.4134 3.72304 37.9146 3.97002ZM33.1393 7.9585L34.0051 6.16558C34.4425 5.25997 35.3538 4.72027 36.3106 4.72027C36.6843 4.72027 37.067 4.8026 37.4315 4.9764C38.7073 5.59843 39.2359 7.13522 38.6162 8.41587L37.7505 10.2088L33.1393 7.9585Z" fill-rule="evenodd"  fill="#55529F" >
</path>
<path d="M32.1006 8.03147C32.1644 8.01318 32.2191 8.00403 32.2829 8.00403C32.3649 8.00403 32.4469 8.02232 32.5289 8.05891L38.0332 10.7391C38.1699 10.8032 38.2701 10.9221 38.3157 11.0593C38.3612 11.1965 38.3521 11.352 38.2883 11.4892L37.3315 13.4651C37.2495 13.6663 37.049 13.7761 36.8394 13.7761C36.7574 13.7761 36.6753 13.7578 36.5933 13.7212L31.0891 11.041C30.8066 10.9038 30.6972 10.5653 30.8248 10.2909L31.7817 8.31504C31.8455 8.17783 31.9639 8.07721 32.1006 8.03147Z"   fill="#DEDBEF" >
</path>
<path d="M37.851 13.7029C37.6596 14.0963 37.2586 14.3341 36.8394 14.3341C36.6754 14.3341 36.5023 14.2975 36.3473 14.2244L30.8431 11.5441C30.5697 11.4161 30.3692 11.1874 30.269 10.9038C30.1779 10.6202 30.1961 10.3092 30.3237 10.0439L31.2805 8.06807C31.4719 7.67473 31.8729 7.43689 32.2921 7.43689C32.4561 7.43689 32.6293 7.47348 32.7842 7.54666L38.2884 10.2269C38.5618 10.3549 38.7623 10.5836 38.8625 10.8672C38.9537 11.1508 38.9354 11.4618 38.8078 11.7271L37.851 13.7029ZM36.8393 13.2182L31.335 10.538L32.2919 8.56209L37.7962 11.2423L36.8393 13.2182Z" fill-rule="evenodd"  fill="#55529F" >
</path>
<path    stroke="rgba(85, 82, 159, 1.00)" stroke-width="1" stroke-linejoin="round" stroke-linecap="round"  d="M34.9438 13.1907L34.9438 13.1907ZM34.9438 13.1907L21.5477 40.0295">
</path>
<path    stroke="rgba(85, 82, 159, 1.00)" stroke-width="1" stroke-linejoin="round" stroke-linecap="round"  d="M32.8296 11.9468L32.8296 11.9468ZM32.8296 11.9468L19.3879 39.1973">
</path>
<path d="M19.4427 35.8674C19.5338 35.8674 19.6249 35.8857 19.7069 35.9315C21.0374 36.6541 22.4591 37.4042 24.0538 38.2183C24.2179 38.3007 24.3363 38.4745 24.3546 38.6574C24.3728 38.8495 24.2999 39.0325 24.1541 39.1514L19.634 42.9019C19.5338 42.9934 19.4062 43.0391 19.2786 43.0391C19.1966 43.0391 19.1146 43.0208 19.0326 42.9842C18.8321 42.8836 18.7136 42.6823 18.7136 42.4628L18.8777 36.4163C18.8868 36.2242 18.987 36.0412 19.1602 35.9406C19.2422 35.8857 19.3424 35.8674 19.4427 35.8674Z"   fill="#FFCF4A" >
</path>
<path d="M24.5187 39.5904L19.9987 43.3409C19.7891 43.5055 19.5339 43.597 19.2787 43.597C19.1147 43.597 18.9416 43.5604 18.7866 43.4872C18.3948 43.2951 18.1487 42.8835 18.1578 42.4444L18.3219 36.3979C18.331 36.0137 18.5406 35.6478 18.8778 35.4557C19.0509 35.3551 19.2514 35.3002 19.4428 35.3002Q19.7162 35.3002 19.9895 35.4374C21.2927 36.1509 22.7143 36.901 24.3182 37.7243C24.6554 37.8981 24.8741 38.2274 24.9197 38.6025C24.9561 38.9775 24.8103 39.3525 24.5187 39.5904ZM23.7987 38.7306L19.2787 42.4811L19.4427 36.4346C20.8826 37.2213 22.3407 37.9805 23.7987 38.7306Z" fill-rule="evenodd"  fill="#55529F" >
</path>
<path d="M19.5976 39.2978L21.5751 40.2674C21.7482 40.3498 21.8667 40.5144 21.8849 40.7065C21.9032 40.8986 21.8303 41.0816 21.6845 41.2096L19.634 42.9111C19.5338 42.9934 19.4062 43.0391 19.2786 43.0391C19.1966 43.0391 19.1146 43.0208 19.0326 42.9843C18.8321 42.8836 18.7136 42.6824 18.7136 42.4628L18.7865 39.7918C18.7956 39.5997 18.8959 39.4259 19.0599 39.3252C19.151 39.2704 19.2513 39.2429 19.3515 39.2429C19.4335 39.2429 19.5156 39.2612 19.5976 39.2978Z"   fill="#6E95AF" >
</path>
<path d="M19.2787 43.6064C19.1147 43.6064 18.9416 43.5698 18.7866 43.4966C18.3948 43.3045 18.1487 42.8929 18.1578 42.4538L18.2307 39.7827C18.2399 39.3985 18.4403 39.0509 18.7684 38.8497C18.9507 38.7399 19.1512 38.685 19.3516 38.685C19.5157 38.685 19.6888 38.7216 19.8528 38.7948L21.8304 39.7644C22.1675 39.9291 22.4045 40.2584 22.45 40.6426C22.4956 41.0268 22.3407 41.4019 22.0491 41.6488L19.9987 43.3503C19.7891 43.5149 19.5339 43.6064 19.2787 43.6064ZM21.329 40.7798L19.2786 42.4812L19.3515 39.8101L21.329 40.7798Z" fill-rule="evenodd"  fill="#55529F" >
</path>
<path    stroke="rgba(255, 255, 255, 1.00)" stroke-width="1" stroke-linejoin="round" stroke-linecap="round"  d="M6.86676 7.0893C6.86676 6.58619 6.86676 6.08307 6.86676 5.57996">
</path>
<path    stroke="rgba(255, 255, 255, 1.00)" stroke-width="1" stroke-linejoin="round" stroke-linecap="round"  d="M37.45 6.03735C37.8327 6.56791 37.9694 7.27227 37.7962 7.90345">
</path>
</svg>
