<svg xmlns="http://www.w3.org/2000/svg" xmlns:xlink="http://www.w3.org/1999/xlink" width="98.13092041015625" height="639.99951171875" viewBox="0 0 98.13092041015625 639.99951171875" fill="none">
<rect x="44.158935546875" y="0" width="53.971954345703125" height="639.9995727539062"   fill="#D5F7D0" >
</rect>
<rect  x="0" y="409" width="98.13082885742188" height="108" rx="10"    fill="#D5F7D0" >
</rect>
<path d="M45.252 443.281C45.2722 442.997 45.2722 442.733 45.2116 442.469C45.636 443.017 46.2624 443.403 47.0101 443.485C48.4651 443.647 49.7584 442.591 49.92 441.129C50.0211 440.032 49.4957 439.057 48.6671 438.55C49.5967 438.225 50.304 437.392 50.405 436.336C50.5667 434.874 49.5159 433.574 48.0609 433.412C47.6163 433.371 47.1718 433.432 46.7878 433.594C46.808 433.493 46.8282 433.391 46.8484 433.29C47.0101 431.828 45.9593 430.528 44.5043 430.365C43.2717 430.223 42.1603 430.975 41.7561 432.071C41.5944 432.092 41.4328 432.112 41.2913 432.132C40.867 431.543 40.2001 431.117 39.4322 431.036C37.9772 430.873 36.6839 431.929 36.5223 433.391C36.4617 433.919 36.5627 434.427 36.785 434.874C36.7648 434.874 36.7446 434.874 36.7446 434.874C35.2896 434.711 33.9963 435.767 33.8347 437.23C33.673 438.692 34.7238 439.992 36.1788 440.154C36.3202 440.174 36.4617 440.174 36.5829 440.154C36.2798 440.54 36.0777 440.987 36.0373 441.515C35.8756 442.977 36.9264 444.277 38.3814 444.439C39.0483 444.52 39.6747 444.317 40.1799 443.972C40.5234 444.866 41.3519 445.515 42.3421 445.637C43.7971 445.8 45.0904 444.744 45.252 443.281Z"   fill="#E9D56F" >
</path>
<path d="M59.2963 417.043C59.2357 417.571 59.3368 418.079 59.559 418.526C59.5388 418.526 59.5186 418.526 59.5186 418.526C58.0637 418.363 56.7704 419.419 56.6087 420.881C56.447 422.344 57.4978 423.643 58.9528 423.806C59.0943 423.826 59.2357 423.826 59.357 423.806C59.0538 424.192 58.8518 424.638 58.8113 425.167C58.6497 426.629 59.7005 427.928 61.1555 428.091C61.8223 428.172 62.4488 427.969 62.9539 427.624C63.2975 428.517 64.126 429.167 65.1162 429.289C66.5711 429.452 67.8645 428.396 68.0261 426.933C68.0463 426.649 68.0463 426.385 67.9857 426.121C68.4101 426.669 69.0365 427.055 69.7842 427.136C71.2392 427.299 72.5325 426.243 72.6941 424.781C72.7952 423.704 72.2698 422.73 71.4412 422.202C72.3708 421.877 73.0781 421.044 73.1791 419.988C73.3408 418.526 72.29 417.226 70.835 417.064C70.3904 417.023 69.9459 417.084 69.5619 417.246C69.5821 417.145 69.6023 417.043 69.6225 416.942C69.7842 415.479 68.7334 414.18 67.2784 414.017C66.0457 413.875 64.9343 414.626 64.5302 415.723C64.3685 415.743 64.2068 415.764 64.0654 415.784C63.641 415.195 62.9742 414.769 62.2063 414.687C60.7513 414.525 59.458 415.581 59.2963 417.043Z"   fill="#E9D56F" >
</path>
<path d="M24.1349 461.863C24.2157 461.031 23.6297 460.3 22.8214 460.219C22.5587 460.198 22.3162 460.239 22.0939 460.32C22.1141 460.259 22.1141 460.198 22.1343 460.137C22.2152 459.305 21.6291 458.574 20.8006 458.492C20.1136 458.411 19.4669 458.838 19.2446 459.467C19.1638 459.467 19.0627 459.487 18.9819 459.508C18.7394 459.163 18.3757 458.939 17.9311 458.878C17.1026 458.797 16.3751 459.386 16.2943 460.219C16.2539 460.523 16.3145 460.807 16.4357 461.051L16.4155 461.051C15.587 460.97 14.8595 461.559 14.7787 462.371C14.6979 463.204 15.2839 463.935 16.0922 464.016C16.173 464.016 16.2539 464.016 16.3145 464.016C16.1528 464.24 16.0316 464.483 15.9912 464.788C15.9103 465.621 16.4963 466.352 17.3249 466.433C17.7088 466.474 18.0523 466.372 18.3555 466.169C18.5576 466.677 19.0223 467.042 19.5881 467.103C20.4167 467.184 21.1441 466.595 21.225 465.783C21.2452 465.621 21.225 465.478 21.2048 465.316C21.4473 465.621 21.811 465.844 22.2152 465.885C23.0437 465.966 23.7712 465.377 23.852 464.544C23.9126 463.976 23.6095 463.427 23.1447 463.123C23.6701 462.94 24.0743 462.473 24.1349 461.863Z"   fill="#E9D56F" >
</path>
<path d="M58.67 454.065C57.8415 453.984 57.114 454.573 57.0332 455.406C56.9928 455.71 57.0534 455.995 57.1746 456.238L57.1544 456.238C56.3259 456.157 55.5984 456.746 55.5176 457.558C55.4368 458.391 56.0228 459.122 56.8311 459.203C56.9119 459.203 56.9928 459.203 57.0534 459.203C56.8917 459.427 56.7705 459.67 56.7301 459.975C56.6492 460.808 57.2352 461.539 58.0638 461.62C58.4477 461.661 58.7912 461.559 59.0944 461.356C59.2964 461.864 59.7612 462.229 60.327 462.29C61.1556 462.371 61.883 461.782 61.9639 460.97C61.9841 460.808 61.9639 460.665 61.9437 460.503C62.1861 460.808 62.5499 461.031 62.9541 461.072C63.7826 461.153 64.51 460.564 64.5909 459.731C64.6515 459.163 64.3686 458.614 63.8836 458.31C64.409 458.127 64.8132 457.66 64.8738 457.051C64.9546 456.218 64.3686 455.487 63.5603 455.406C63.2976 455.385 63.0551 455.426 62.8328 455.507C62.853 455.446 62.853 455.385 62.8732 455.324C62.9541 454.492 62.368 453.761 61.5395 453.679C60.8524 453.598 60.2058 454.025 59.9835 454.654C59.9027 454.654 59.8016 454.674 59.7208 454.695C59.4783 454.35 59.1146 454.126 58.67 454.065Z"   fill="#E9D56F" >
</path>
<path d="M43.9588 506.948C42.9888 480.852 34.0771 454.797 18.9011 433.595L18.3959 433.96C33.5113 455.061 42.3623 480.994 43.3323 506.969L43.9588 506.948Z"   fill="#73964A" >
</path>
<path d="M19.0627 434.325C20.356 432.416 21.3058 430.264 21.8514 428.03C22.0535 427.238 22.1949 426.365 21.8918 425.613C21.5887 424.841 20.6995 424.273 19.9518 424.598C19.3456 424.862 19.0829 425.572 18.9213 426.222C18.3554 428.537 18.3554 430.954 18.8808 433.269L19.0627 434.325Z"   fill="#E3FFF1" >
</path>
<path d="M19.128 433.625C19.0987 433.634 19.0693 433.644 19.0399 433.654C19.0408 433.654 19.0417 433.655 19.0425 433.656L19.128 433.625ZM12.1719 430.65C11.7677 430.548 11.3232 430.467 10.919 430.589C10.5149 430.711 10.1713 431.097 10.2117 431.523C10.2522 431.807 10.4542 432.031 10.6563 432.214C12.8477 434.244 16.207 434.576 19.0399 433.654C16.9592 432.253 14.616 431.218 12.1719 430.65ZM19.5477 433.473L19.128 433.625C19.2693 433.577 19.4093 433.526 19.5477 433.473Z"   fill="#A6BD69" >
</path>
<path d="M15.7486 437.291C15.3242 437.291 14.8594 437.311 14.5765 437.615C14.2734 437.92 14.2936 438.448 14.5159 438.814C14.7382 439.179 15.1019 439.443 15.4656 439.646C17.3652 440.702 19.7295 440.885 21.7705 440.134C22.0332 440.032 22.3363 439.768 22.1544 439.545L21.8109 438.793C20.1943 437.412 17.8704 437.311 15.7486 437.291Z"   fill="#A6BD69" >
</path>
<path d="M24.9431 443.058C26.3576 442.144 27.2064 440.54 27.5499 438.895C27.8934 437.25 27.7722 435.544 27.5499 433.878C27.4489 433.066 27.0245 432.03 26.2162 432.132C25.7918 432.173 25.4685 432.558 25.2462 432.924C23.5488 435.605 23.7711 438.691 23.9529 441.88L24.9431 443.058Z"   fill="#A6BD69" >
</path>
<path d="M18.9616 445.84C18.4766 445.8 17.9512 445.8 17.6077 446.145C17.0823 446.673 17.4056 447.587 17.8502 448.196C19.0424 449.78 20.8813 450.755 22.8213 451.121C24.7612 451.486 26.7618 451.242 28.6411 450.694L28.4593 449.74C25.9535 447.526 22.2959 446.104 18.9616 445.84Z"   fill="#A6BD69" >
</path>
<path d="M32.7029 458.675C33.5921 457.315 34.845 455.548 35.3906 454.025C36.1181 451.953 36.1585 449.659 35.5118 447.567C35.3906 447.201 35.2491 446.836 34.9864 446.572C34.2185 445.8 32.8242 446.226 32.2382 447.14C31.6521 448.034 31.6521 449.191 31.6723 450.268C31.733 452.644 31.7936 455.04 32.3392 457.355L32.7029 458.675Z"   fill="#A6BD69" >
</path>
<path d="M29.1666 462.31C28.7826 462.249 28.3178 462.249 28.0551 462.534C27.752 462.879 27.9339 463.448 28.1764 463.833C28.9645 465.052 30.3386 465.783 31.7532 466.108C33.1677 466.433 34.6227 466.392 36.0574 466.372L35.6735 465.885C34.0164 463.976 31.6521 462.696 29.1666 462.31Z"   fill="#A6BD69" >
</path>
<path d="M43.1504 466.575C43.11 465.946 42.8675 465.357 42.625 464.768C42.5442 464.585 42.4633 464.402 42.3219 464.28C42.1198 464.098 41.8571 464.077 41.5944 464.098C40.5638 464.179 39.6747 464.91 39.1493 465.783C38.6239 466.656 38.3814 467.692 38.1389 468.687C37.8358 469.926 37.5529 471.226 37.9368 472.424L38.6845 473.825C40.3415 472.424 41.6752 470.657 42.6048 468.687C42.9079 468.037 43.1908 467.306 43.1504 466.575Z"   fill="#A6BD69" >
</path>
<path d="M53.4564 502.155C48.4044 477.196 49.435 459.792 57.3969 435.605L56.8109 435.402C48.8086 459.691 47.778 477.196 52.8703 502.277L53.4564 502.155Z"   fill="#73964A" >
</path>
<path d="M57.0737 435.564C58.9328 435.828 60.8728 434.935 61.9236 433.371C62.1863 432.985 62.3884 432.518 62.1863 432.112C62.0044 431.726 61.5194 431.584 61.1153 431.645C60.7111 431.706 60.3474 431.95 60.0039 432.173C58.8924 432.904 57.7204 433.696 57.195 434.935L57.0737 435.564Z"   fill="#A6BD69" >
</path>
<path d="M56.2046 438.306C57.8616 440.479 60.5897 441.738 63.2975 441.596C63.9038 441.576 64.5302 441.454 64.995 441.047C65.8437 440.276 65.6214 438.773 64.7727 437.981C63.924 437.189 62.7115 436.966 61.5597 436.945C59.8218 436.905 58.1041 437.189 56.4875 437.778L56.2046 438.306Z"   fill="#A6BD69" >
</path>
<path d="M57.2959 435.788C57.3565 433.798 56.73 431.808 55.5378 430.244C55.3761 430.02 55.174 429.817 54.9316 429.716C54.4466 429.533 53.9212 429.878 53.7191 430.345C53.517 430.812 53.5776 431.34 53.6787 431.828C54.0828 433.635 55.0326 435.321 56.4067 436.56L57.2959 435.788Z"   fill="#A6BD69" >
</path>
<path d="M54.5677 442.876C54.3657 440.743 53.6786 438.651 52.6076 436.803C52.4257 436.519 52.2438 436.215 51.9609 436.032C51.678 435.849 51.2739 435.808 51.0112 436.011C50.708 436.255 50.708 436.722 50.7485 437.108C51.0516 439.647 52.5672 442.023 54.7294 443.343L54.5677 442.876Z"   fill="#A6BD69" >
</path>
<path d="M53.7596 448.298C54.2446 449.171 55.1741 449.74 56.1441 449.983C57.1141 450.227 58.1447 450.186 59.1349 450.044C60.8929 449.801 62.6308 449.293 64.2273 448.521C65.076 448.115 66.0258 447.404 65.8439 446.47C65.662 445.515 64.4495 445.211 63.4796 445.191C59.9028 445.15 56.3462 446.267 53.4363 448.338L53.7596 448.298Z"   fill="#A6BD69" >
</path>
<path d="M47.0505 463.935C48.0811 464.91 49.1319 465.864 50.1827 466.839L50.5869 466.413C49.9807 464.463 49.3744 462.493 48.4449 460.665C48.1013 459.995 47.7174 459.366 47.3334 458.716C46.5858 457.477 45.8381 456.218 45.0904 454.979C44.7468 454.39 44.3629 453.76 43.7769 453.415C43.6152 453.314 43.3929 453.232 43.1909 453.232C42.6452 453.273 42.3219 453.862 42.1805 454.39C41.7157 456.218 42.2815 458.167 43.2717 459.772C44.2619 461.356 45.6764 462.655 47.0505 463.935Z"   fill="#A6BD69" >
</path>
<path d="M49.9805 476.201C52.2842 475.531 54.4465 474.414 56.3258 472.911C57.3564 472.079 58.3668 470.921 58.1647 469.621C58.1243 469.439 58.0637 469.235 57.9424 469.093C57.6999 468.809 57.2756 468.789 56.9118 468.809C55.5175 468.89 54.1838 469.56 53.133 470.474C52.0822 471.388 51.2536 472.546 50.5464 473.764C50.3241 474.15 50.1018 474.516 49.9199 474.901L49.9805 476.201Z"   fill="#A6BD69" >
</path>
<path d="M49.8189 484.467C48.9702 481.238 48.0609 477.908 45.9188 475.349C45.5147 474.861 44.8074 474.394 44.3224 474.8C44.1607 474.942 44.0799 475.166 44.0193 475.389C43.8172 476.323 44.0193 477.298 44.3022 478.212C45.2722 481.279 47.2121 484.041 49.7785 485.99L49.8189 484.467Z"   fill="#A6BD69" >
</path>
<path d="M65.0355 418.851C63.6008 418.709 62.3075 419.745 62.1458 421.186C62.0043 422.628 63.0349 423.928 64.4697 424.09C65.9044 424.233 67.1977 423.197 67.3594 421.755C67.5211 420.313 66.4905 419.013 65.0355 418.851Z"   fill="#FFFFFF" >
</path>
<path d="M42.2814 435.199C40.8466 435.056 39.5533 436.092 39.3916 437.534C39.2502 438.976 40.2808 440.276 41.7155 440.438C43.1503 440.58 44.4436 439.545 44.6053 438.103C44.7467 436.661 43.7161 435.361 42.2814 435.199Z"   fill="#FFFFFF" >
</path>
<path d="M19.8913 461.295C19.083 461.194 18.3555 461.782 18.2746 462.595C18.1736 463.407 18.7596 464.138 19.5679 464.219C20.3763 464.321 21.1037 463.732 21.1846 462.92C21.2654 462.107 20.6794 461.376 19.8913 461.295Z"   fill="#FFFFFF" >
</path>
<path d="M60.2867 456.441C59.4783 456.34 58.7509 456.928 58.67 457.741C58.569 458.553 59.155 459.284 59.9633 459.365C60.7716 459.467 61.4991 458.878 61.58 458.066C61.6608 457.253 61.0748 456.522 60.2867 456.441Z"   fill="#FFFFFF" >
</path>
<path d="M82.7982 479.288C82.9598 478.374 82.0303 477.684 81.2422 477.217C79.9489 476.486 78.6758 475.755 77.4027 475.023C80.6157 476.161 84.2127 476.181 87.446 475.084C87.9714 474.922 88.517 474.678 88.8403 474.231C89.4263 473.419 89.0626 472.201 88.3149 471.551C87.5874 470.881 86.577 470.637 85.6071 470.413C83.849 470.007 82.0707 469.581 80.3126 469.175C82.1313 468.525 83.8894 467.692 85.5464 466.697C86.1527 466.331 86.7791 465.905 87.0216 465.235C87.3651 464.301 86.7387 463.204 85.8496 462.757C84.9604 462.31 83.8894 462.371 82.9194 462.554C80.252 463.082 77.7866 464.605 76.1296 466.778C76.4125 466.25 76.7156 465.722 76.7156 465.133C76.7156 464.544 76.3115 463.915 75.7255 463.894C75.4021 463.894 75.0788 464.077 74.7959 464.26C71.2595 466.595 68.4506 470.048 66.8744 474.028C67.2584 472.972 67.6423 471.835 67.4605 470.718C67.2786 469.601 66.3288 468.525 65.1972 468.626C64.5505 468.687 63.9847 469.134 63.5402 469.621C60.3675 472.993 60.7515 478.415 58.5488 482.517C59.2763 480.791 59.4178 478.821 58.9328 477.014C58.8317 476.608 58.6903 476.201 58.4074 475.917C57.5991 475.084 56.1845 475.592 55.2752 476.303C51.8196 478.963 50.3849 483.451 49.6372 487.757C49.4957 485.685 48.8086 483.655 47.6568 481.949C47.2729 481.38 46.6868 480.771 46.02 480.913C45.6158 481.014 45.3127 481.339 45.0702 481.685C43.5142 483.939 43.5546 486.944 43.8173 489.686C44.1204 493.098 44.6458 496.489 45.3733 499.84L47.6366 504.146C50.8294 506.562 55.2954 506.176 59.1955 505.323C64.1666 504.247 69.2185 502.501 72.8155 498.865C73.6845 497.992 74.4726 496.997 74.7353 495.799C74.998 494.601 74.6342 493.199 73.6036 492.549C72.9166 492.123 72.088 492.082 71.2797 492.062C66.9743 492.005 62.6513 492.498 58.4755 493.54C58.1833 493.617 57.8911 493.692 57.5991 493.768C57.8904 493.69 58.1826 493.614 58.4755 493.54C64.533 491.966 70.6245 490.31 76.3115 487.676C77.14 487.29 78.0089 486.863 78.5747 486.132C79.1406 485.401 79.3629 484.304 78.8375 483.553C78.2775 482.751 77.1903 482.637 76.1741 482.705C73.7313 483.357 71.1955 483.655 68.6729 483.573C70.9968 483.309 73.3005 483.025 75.6042 482.761C75.7888 482.738 75.9802 482.719 76.1741 482.705C77.9974 482.22 79.7688 481.537 81.4443 480.669C82.0505 480.365 82.6971 479.958 82.7982 479.288ZM75.6042 482.761C73.3005 483.025 70.9968 483.309 68.6729 483.573C71.1955 483.655 73.7313 483.357 76.1741 482.705C75.9802 482.719 75.7888 482.738 75.6042 482.761ZM58.4755 493.54C58.1826 493.614 57.8904 493.69 57.5991 493.768C57.8911 493.692 58.1833 493.617 58.4755 493.54Z"   fill="#7AA54F" >
</path>
<path d="M67.1169 477.765C67.7433 477.095 68.107 476.689 68.491 476.283C71.2392 473.277 74.1896 470.251 77.342 467.489C74.2098 470.007 71.2797 473.033 68.0666 475.877C67.6827 476.262 67.3189 476.669 66.6723 477.339C57.2352 487.757 49.5563 499.8 44.1406 512.756L44.7267 513C50.1221 500.104 57.7607 488.123 67.1169 477.765Z"   fill="#73964A" >
</path>
<path d="M10.2521 473.338C11.0843 475.486 12.5716 477.385 14.4322 478.735C14.5673 478.816 14.6967 478.906 14.8191 479.004C14.6884 478.917 14.5595 478.827 14.4322 478.735C14.0093 478.482 13.5309 478.319 13.0408 478.273C12.1718 478.171 11.7273 479.268 12.3739 479.837C14.0916 481.299 16.2538 482.233 18.4969 482.456C18.4969 482.456 16.8803 482.456 16.0719 482.375C15.1828 482.274 14.0108 482.822 14.3543 483.777C14.3947 483.919 14.4755 484.041 14.5564 484.142C15.8901 485.807 18.0725 486.478 20.154 486.843C22.1747 487.188 24.2764 487.33 26.1557 488.143C25.2463 488.387 24.2157 487.655 23.4276 488.346C23.1043 488.63 22.9629 489.097 23.0235 489.544C23.1447 490.458 23.852 491.047 24.5593 491.555C26.0344 492.59 27.6309 493.382 29.3283 493.931C27.6915 493.809 26.0344 493.89 24.3976 494.134C23.4883 494.256 22.4981 494.499 22.2556 495.718C22.1141 496.388 22.2758 497.058 22.6395 497.627C24.1147 499.901 26.2567 501.709 28.7221 502.765C30.7833 503.638 33.0061 504.004 35.2088 504.369C37.7145 504.775 40.2001 505.181 42.6857 505.588L43.2717 505.608C44.9893 498.277 46.707 490.56 44.6256 483.309C44.1406 481.604 43.4131 479.918 42.1198 478.699C41.9986 478.578 41.8571 478.476 41.7157 478.395C40.4628 477.704 39.412 478.963 38.8664 480.08C37.5933 482.66 36.8658 485.503 36.7446 488.366C36.4212 485.584 36.5021 482.741 36.1383 479.959C35.7746 477.176 34.9057 474.333 33.0061 472.282C32.5009 471.734 31.7937 471.185 30.9853 471.734C30.5206 472.038 30.2579 472.546 30.2377 473.094L29.8739 481.908C28.7221 478.598 27.3884 475.349 25.8526 472.201C25.6909 471.856 25.4484 471.47 25.024 471.51C24.6401 471.531 24.337 471.876 24.2966 472.282L23.8116 477.522C23.1447 475.024 22.4981 472.526 21.8514 470.028C21.6089 469.134 21.3058 468.139 20.1742 468.017C19.5073 467.936 18.8606 468.261 18.4161 468.769C16.9005 470.556 16.2336 473.054 16.6378 475.369C15.2636 473.683 13.6268 471.876 11.4646 471.774C10.8583 471.754 10.1713 471.917 10.1309 472.729C10.1309 472.932 10.1713 473.135 10.2521 473.338ZM14.8191 479.004C14.6967 478.906 14.5673 478.816 14.4322 478.735C14.5595 478.827 14.6884 478.917 14.8191 479.004Z"   fill="#99C071" >
</path>
<path d="M25.408 483.025C24.822 482.599 24.3774 482.233 23.9126 481.888C20.6873 479.242 17.0558 477.277 13.5632 474.974C17.1776 477.457 20.6212 479.946 23.9733 482.68C24.6805 483.248 25.3474 483.797 25.994 484.365C33.8145 491.087 41.0893 501.242 45.2521 510.786L45.8179 510.543C41.453 500.51 33.7538 489.971 25.408 483.025ZM11.9092 473.846C12.4556 474.233 13.0076 474.608 13.5632 474.974C13.0159 474.598 12.4646 474.222 11.9092 473.846Z"   fill="#73964A" >
</path>
<path d="M61.8552 191.382C63.6247 192.478 65.6906 193.125 67.7287 193.453C68.8033 193.631 69.8965 193.753 70.9897 193.715C71.5363 193.696 72.1755 193.678 72.7406 193.518C73.0648 193.799 73.3798 194.09 73.6763 194.39C74.6398 195.346 75.6866 196.404 77.0207 196.761C77.5209 196.892 78.0212 196.976 78.5307 197.051C78.5029 197.538 78.54 198.016 78.54 198.504C78.54 198.831 78.855 199.056 79.1514 199.047C79.1792 199.047 79.1977 199.047 79.2255 199.047C76.7149 199.815 73.7875 199.797 71.3047 199.375C71.0267 199.328 71.0082 198.925 71.2676 198.831C71.5548 198.728 71.7957 198.625 72.0273 198.466C70.0818 197.819 68.0437 197.529 66.1723 196.648C65.9314 196.536 65.9963 196.236 66.2001 196.133C66.4039 196.03 66.5799 195.889 66.7652 195.758C65.1347 194.652 63.217 194.08 61.4568 193.237C61.2716 193.153 61.2438 192.862 61.4198 192.75C61.7255 192.553 61.9386 192.272 62.198 192.028C60.5212 191.129 59.0667 189.929 57.9364 188.364C57.8253 188.196 57.8994 187.98 58.0661 187.924C58.3626 187.821 58.6683 187.708 58.9648 187.605C57.9735 186.593 57.0193 185.422 56.5098 184.101C55.9261 182.592 57.0193 182.048 58.2329 182.001C57.0841 180.418 56.0651 178.74 55.1943 176.979C55.1201 176.829 55.2684 176.594 55.4351 176.604C55.9169 176.632 56.3523 176.548 56.8062 176.407C56.519 175.067 55.9724 173.811 55.4629 172.537C55.3054 172.134 55.0646 171.74 55.1479 171.3C55.2313 170.85 55.2591 170.391 55.2962 169.941C55.4351 168.489 55.852 167.055 57.3806 166.868C57.0378 165.115 56.4634 163.307 57.01 161.545C57.0471 161.423 57.1305 161.329 57.2602 161.32C57.5288 161.311 57.7604 161.47 58.0106 161.545C58.1495 160.083 58.0476 158.584 58.4552 157.15C58.5108 156.953 58.7332 156.85 58.9092 156.991C59.2149 157.253 59.5577 157.375 59.9005 157.506C60.0116 156.1 59.8078 152.418 60.2247 151.068C60.2618 150.946 61.4476 153.167 61.6699 153.252C60.271 148.529 61.2438 143.253 61.2623 143C61.392 143.122 64.2639 144.865 67.4415 151.218C67.5619 151.012 67.423 148.95 67.5341 149.025C68.6922 149.822 70.4801 152.418 71.4344 153.448C71.6289 153.13 71.8142 152.821 71.8976 152.418C71.9439 152.202 72.1848 152.137 72.3515 152.258C73.5466 153.121 74.3896 154.357 75.3902 155.426C75.5384 155.22 75.6125 154.938 75.8348 154.779C75.946 154.704 76.0664 154.723 76.1684 154.798C77.6784 155.838 78.3362 157.619 79.1422 159.202C80.3928 158.434 81.5323 159.165 82.5236 160.158C83.1443 160.786 83.7557 161.273 84.0244 162.126C84.4691 163.532 84.7933 164.984 85.4418 166.315C85.8772 166.146 86.2756 165.94 86.6369 165.612C86.7573 165.499 87.0167 165.584 87.0538 165.752C87.4429 167.673 87.6837 169.632 87.7486 171.59C88.6935 170.878 89.7774 170.616 90.3425 172.04C90.8613 173.362 90.7687 175.02 90.6112 176.454C90.9077 176.351 91.2134 176.238 91.5098 176.135C91.6766 176.079 91.8711 176.201 91.8804 176.379C91.9545 178.319 91.5469 180.165 90.7872 181.926C91.1393 181.955 91.4728 182.048 91.8341 182.001C92.0471 181.973 92.1954 182.217 92.1027 182.404C91.2319 184.175 90.0924 185.825 89.481 187.718C89.7033 187.708 89.9349 187.708 90.1573 187.661C90.3796 187.615 90.6205 187.811 90.5 188.046C89.5736 189.91 88.1562 191.419 87.026 193.143C87.3039 193.125 87.554 193.05 87.8412 192.956C88.1006 192.872 88.3322 193.19 88.1469 193.406C86.4886 195.252 84.2745 197.06 81.8936 198.044C81.9121 197.941 81.9121 197.838 81.8658 197.744C81.6064 197.22 81.4119 196.264 80.8468 195.983C80.7078 195.917 80.5688 195.898 80.4206 195.917C80.3094 195.317 80.3372 194.755 80.9023 194.362C81.2451 194.118 81.6435 193.912 81.9121 193.584C82.4031 192.975 82.6811 192.15 82.8478 191.307C82.8478 191.307 82.8478 191.307 82.8571 191.307C86.0532 189.395 87.8227 185.665 88.851 182.226C88.8973 182.076 88.6472 181.992 88.5916 182.142C87.9709 183.848 87.2205 185.553 86.1829 187.043C85.2658 188.355 84.1263 189.329 83.0146 190.416C83.0516 190.173 83.0794 189.929 83.1072 189.695C83.5148 186.434 84.747 183.332 84.0058 180.015C83.9966 179.977 83.9873 179.949 83.9781 179.912C84.0244 179.584 84.0614 179.265 84.256 178.928C84.432 178.637 84.5432 178.356 84.5895 178.028C84.7655 176.847 84.9878 175.676 85.062 174.477C85.2195 171.993 84.9137 169.651 83.9317 167.355C83.8761 167.224 83.6816 167.289 83.7279 167.43C84.6451 170.082 84.8211 172.93 84.432 175.704C84.2838 176.791 84.1263 177.747 83.6353 178.703C83.135 177.232 82.4124 175.864 81.7639 174.439C80.9394 172.621 80.4762 170.86 80.05 168.92C79.2441 165.303 78.2713 161.76 76.1128 158.706C75.9738 158.509 75.6681 158.715 75.807 158.921C78.049 162.191 78.6419 166.221 79.3552 170.044C79.698 171.881 80.7078 173.586 81.4582 175.273C82.2457 177.035 82.8941 178.909 83.1072 180.839C83.3018 182.62 83.135 184.344 82.7737 186.097C82.4402 187.708 82.3476 189.367 82.116 190.997C82.0048 191.766 81.9492 192.75 81.347 193.312C81.0413 193.593 80.6522 193.753 80.3465 194.034C80.0686 194.277 79.9111 194.549 79.8184 194.849C79.2811 191.269 77.4931 188.008 76.0757 184.719C75.2605 182.835 74.4823 180.924 74.0283 178.918C73.8523 178.159 73.7133 177.4 73.5836 176.641C75.1956 174.102 76.3814 171.665 76.6038 168.592C76.6038 168.536 76.5204 168.517 76.5204 168.573C76.2332 171.3 74.9177 173.68 73.4632 175.948C73.2687 174.823 73.0648 173.708 72.7591 172.593C72.4812 171.6 72.0921 170.625 71.703 169.66C71.8327 167.552 72.1292 165.49 72.3052 163.382C72.4812 161.208 72.2033 159.08 71.3602 157.066C71.2954 156.906 71.0453 156.991 71.1101 157.15C72.0458 159.493 71.9624 161.845 71.6289 164.3C71.4436 165.621 71.2213 166.989 71.2028 168.339C70.9156 167.542 70.6654 166.746 70.5265 165.912C70.193 163.906 69.1924 161.92 68.4235 160.055C66.7559 155.997 64.9124 152.015 63.3375 147.92C63.2541 147.714 62.9576 147.826 63.0225 148.032C64.3102 152.221 65.8388 156.325 67.4322 160.402C67.7009 161.104 67.9603 161.826 68.2197 162.557C66.0055 161.048 63.2263 160.336 61.8737 157.787C61.8552 157.75 61.7903 157.778 61.8089 157.825C63.1151 160.805 66.1723 161.648 68.5532 163.457C68.9145 164.403 69.3036 165.321 69.7946 166.165C70.9248 168.086 71.175 170.438 71.7401 172.565C72.4164 175.123 72.9352 177.71 73.6485 180.23C73.1019 179.499 72.3886 178.872 71.7401 178.291C70.3968 177.082 69.0813 175.92 67.8954 174.533C65.3848 171.619 63.5505 168.264 62.3184 164.609C62.2721 164.469 62.0683 164.544 62.1053 164.684C63.1059 168.311 64.8197 171.694 67.1358 174.645C68.1734 175.957 69.3129 177.288 70.6284 178.319C71.2769 178.825 71.9624 179.303 72.5461 179.893C73.1482 180.502 73.5466 181.167 74.0191 181.88C74.0561 181.936 74.1024 181.964 74.158 181.964C74.4545 182.873 74.788 183.782 75.1771 184.672C76.752 188.299 78.5029 191.831 79.3274 195.739C79.0773 195.814 78.8642 195.898 78.7438 196.18C78.2898 196.123 77.8452 196.067 77.4005 195.927C76.0479 195.514 74.9455 194.109 73.982 193.134C73.8616 193.012 73.7411 192.9 73.6207 192.778C72.3793 189.592 71.6752 186.218 70.0725 183.182C70.0077 183.07 69.8131 183.173 69.8687 183.285C71.2398 186.097 71.7401 189.236 72.9074 192.122C70.9063 190.37 68.7014 188.936 67.0339 186.781C63.1337 181.72 61.0029 175.545 58.1866 169.857C58.0291 169.538 57.5196 169.707 57.6678 170.044C60.3915 176.06 62.7909 182.404 66.6077 187.839C66.8856 188.233 67.1914 188.608 67.5063 188.964C66.7189 188.73 65.8944 188.57 65.2459 188.364C62.513 187.493 60.095 185.844 58.3997 183.501C58.2885 183.351 58.0569 183.51 58.1588 183.669C59.5206 185.769 61.392 187.53 63.708 188.505C64.8012 188.964 65.9222 189.226 67.0709 189.536C67.8769 189.751 68.4883 190.098 69.0905 190.51C70.091 191.382 71.1564 192.188 72.1848 193.04C71.7123 193.125 71.2305 193.2 70.7303 193.2C69.6742 193.2 68.618 193.097 67.5805 192.909C65.6813 192.562 63.6617 192.122 61.9571 191.176C61.8274 191.101 61.7348 191.307 61.8552 191.382Z"   fill="#73A541" >
</path>
<path d="M67.4323 160.383C65.8481 156.307 64.3102 152.193 63.0225 148.013C62.9577 147.807 63.2634 147.695 63.3375 147.901C64.9124 151.996 66.7467 155.979 68.4235 160.036C69.1924 161.901 70.2022 163.888 70.5265 165.893C70.6655 166.727 70.9063 167.523 71.2028 168.32C71.2213 166.961 71.4529 165.593 71.6289 164.281C71.9624 161.826 72.0458 159.465 71.1101 157.131C71.0453 156.972 71.2954 156.888 71.3603 157.047C72.2033 159.062 72.4812 161.189 72.3052 163.363C72.1292 165.471 71.8327 167.533 71.703 169.641C72.0921 170.616 72.4812 171.581 72.7591 172.574C73.0649 173.68 73.2687 174.805 73.4632 175.929C74.9084 173.671 76.2332 171.281 76.5204 168.554C76.5297 168.498 76.613 168.517 76.6038 168.573C76.3814 171.647 75.1956 174.083 73.5837 176.623C73.7134 177.382 73.8523 178.141 74.0283 178.9C74.4915 180.905 75.2697 182.817 76.0757 184.7C77.4931 187.989 79.2904 191.26 79.8185 194.83C79.9018 194.54 80.0686 194.258 80.3465 194.015C80.6522 193.743 81.0413 193.584 81.347 193.293C81.9492 192.731 82.0048 191.747 82.116 190.979C82.3476 189.348 82.4309 187.689 82.7737 186.078C83.135 184.325 83.3018 182.61 83.1072 180.821C82.9034 178.89 82.2457 177.016 81.4582 175.254C80.7078 173.568 79.698 171.862 79.3552 170.025C78.6419 166.202 78.049 162.173 75.8071 158.902C75.6681 158.705 75.9738 158.49 76.1128 158.687C78.2713 161.742 79.2348 165.284 80.05 168.901C80.4855 170.841 80.9394 172.612 81.7639 174.42C82.4124 175.854 83.135 177.213 83.6353 178.684C84.1263 177.728 84.2838 176.772 84.432 175.685C84.8211 172.912 84.6451 170.063 83.7279 167.411C83.6816 167.28 83.8762 167.214 83.9317 167.336C84.9137 169.632 85.2195 171.975 85.062 174.458C84.9879 175.657 84.7748 176.829 84.5895 178.009C84.5432 178.337 84.432 178.628 84.256 178.909C84.0614 179.237 84.0244 179.556 83.9781 179.893C83.9873 179.93 83.9966 179.959 84.0059 179.996C84.7563 183.304 83.5241 186.415 83.1072 189.676C83.0794 189.901 83.0517 190.145 83.0146 190.398C84.1263 189.311 85.275 188.345 86.1829 187.024C87.2205 185.534 87.9709 183.829 88.5916 182.123C88.6472 181.973 88.8973 182.058 88.851 182.208C87.8227 185.656 86.0532 189.376 82.8571 191.288C82.8571 191.288 82.8571 191.288 82.8478 191.288C82.6718 192.122 82.4032 192.956 81.9122 193.565C81.6435 193.893 81.2451 194.109 80.9024 194.343C80.3372 194.736 80.3094 195.299 80.4206 195.898C80.3836 195.898 80.3558 195.908 80.3187 195.917C80.1334 195.72 79.8648 195.58 79.5127 195.673C79.4479 195.692 79.383 195.711 79.3275 195.72C78.5029 191.813 76.7613 188.289 75.1771 184.653C74.788 183.763 74.4545 182.854 74.158 181.945C74.1025 181.936 74.0561 181.917 74.0191 181.861C73.5559 181.149 73.1482 180.483 72.5461 179.874C71.9624 179.284 71.2769 178.815 70.6284 178.3C69.3129 177.269 68.1734 175.938 67.1358 174.627C64.8105 171.675 63.1059 168.292 62.1054 164.665C62.0683 164.525 62.2721 164.45 62.3184 164.59C63.5506 168.245 65.3849 171.609 67.8955 174.514C69.0813 175.892 70.3968 177.063 71.7401 178.272C72.3886 178.853 73.1019 179.481 73.6485 180.212C72.9352 177.681 72.4164 175.104 71.7401 172.546C71.175 170.419 70.9156 168.067 69.7946 166.146C69.3036 165.303 68.9053 164.384 68.5532 163.438C66.1631 161.62 63.1151 160.786 61.8089 157.806C61.7904 157.768 61.8552 157.731 61.8737 157.768C63.2263 160.317 66.0056 161.029 68.2197 162.538C67.9603 161.807 67.7009 161.076 67.4323 160.383Z"   fill="#66893A" >
</path>
<path d="M73.667 194.371C73.3613 194.071 73.0463 193.78 72.7313 193.499C72.1662 193.668 71.5362 193.677 70.9804 193.696C69.8872 193.734 68.794 193.602 67.7194 193.434C65.6813 193.096 63.6154 192.459 61.8459 191.363C61.7255 191.288 61.8181 191.082 61.9478 191.157C63.6432 192.112 65.672 192.543 67.5712 192.89C68.6087 193.078 69.6649 193.181 70.721 193.181C71.2213 193.181 71.703 193.106 72.1755 193.021C71.1564 192.169 70.0818 191.363 69.0812 190.491C68.479 190.079 67.8676 189.732 67.0616 189.517C65.9221 189.207 64.8012 188.954 63.6987 188.486C61.3827 187.511 59.5113 185.75 58.1495 183.651C58.0476 183.491 58.2792 183.332 58.3904 183.482C60.095 185.825 62.5129 187.474 65.2366 188.345C65.8851 188.551 66.7096 188.711 67.497 188.945C67.1821 188.589 66.8764 188.224 66.5984 187.821C62.7816 182.385 60.3914 176.051 57.6585 170.025C57.5103 169.697 58.0291 169.529 58.1773 169.838C60.9936 175.526 63.1244 181.711 67.0246 186.762C68.6829 188.917 70.897 190.351 72.8981 192.103C71.7308 189.217 71.2305 186.078 69.8594 183.266C69.8038 183.145 70.0076 183.041 70.0632 183.163C71.6567 186.209 72.37 189.573 73.6114 192.759C73.7318 192.871 73.8523 192.993 73.9727 193.115C74.9454 194.09 76.0386 195.495 77.3912 195.908C77.8359 196.048 78.2898 196.104 78.7345 196.161C78.7345 196.17 78.7252 196.179 78.7252 196.189C78.6419 196.423 78.5585 196.667 78.5307 196.91C78.5307 196.948 78.5307 196.985 78.5214 197.032C78.0119 196.957 77.5116 196.873 77.0114 196.742C75.6773 196.385 74.6212 195.327 73.667 194.371Z"   fill="#66893A" >
</path>
<path d="M78.5308 197.032C78.5308 196.995 78.5308 196.957 78.5401 196.91C78.5586 196.667 78.6512 196.423 78.7439 196.198C78.7439 196.189 78.7531 196.179 78.7531 196.17C78.8736 195.898 79.0866 195.804 79.3368 195.73C79.3924 195.711 79.4572 195.692 79.5221 195.683C79.8648 195.589 80.1335 195.73 80.3466 195.964C80.3836 195.954 80.4114 195.954 80.4485 195.945C80.5967 195.926 80.7449 195.945 80.8746 196.011C81.4397 196.292 81.6343 197.248 81.8937 197.772C81.94 197.866 81.9493 197.969 81.9215 198.072C81.8752 198.288 81.7084 198.494 81.5139 198.56C81.4583 198.578 81.3934 198.597 81.3378 198.616C81.449 198.869 81.5602 199.131 81.6806 199.384C82.1809 200.452 82.6441 201.53 83.1536 202.589C84.1819 204.697 85.2751 206.768 86.3775 208.83C86.674 209.373 86.3127 210.123 85.6272 209.983C83.5334 209.561 82.3754 207.106 81.6806 205.307C80.9024 203.292 80.3003 201.099 79.8278 198.981C79.624 199.009 79.4202 199.028 79.2163 199.028C79.1886 199.028 79.17 199.028 79.1422 199.028C78.855 199.028 78.5401 198.813 78.5401 198.485C78.5308 197.997 78.4937 197.519 78.5308 197.032Z"   fill="#B9C645" >
</path>
</svg>
