<svg xmlns="http://www.w3.org/2000/svg" xmlns:xlink="http://www.w3.org/1999/xlink" width="20" height="20" viewBox="0 0 20 20" fill="none">
<path d="M15.5 3.19936e-14L4.5 3.19936e-14C4.42635 -8.77924e-09 4.35275 0.0018068 4.2792 0.00542043C4.20564 0.00903404 4.13223 0.0144502 4.05893 0.0216688C3.98563 0.0288873 3.91256 0.0378996 3.83971 0.0487057C3.76688 0.0595117 3.69434 0.0720986 3.62209 0.0864662C3.54986 0.100834 3.47803 0.116965 3.40658 0.134859C3.33516 0.152754 3.2642 0.17239 3.19371 0.193768C3.12324 0.215146 3.05334 0.23824 2.984 0.263051C2.91465 0.287861 2.84596 0.314359 2.77793 0.342541C2.70988 0.370725 2.64258 0.400561 2.576 0.432049C2.50941 0.463535 2.44365 0.496637 2.37871 0.531354C2.31377 0.56607 2.24971 0.602359 2.18654 0.640221C2.12336 0.678082 2.06117 0.717471 1.99994 0.758387C1.9387 0.799303 1.87851 0.841695 1.81935 0.885566C1.7602 0.929438 1.70216 0.974732 1.64523 1.02145C1.5883 1.06817 1.53255 1.11626 1.47798 1.16572C1.42342 1.21518 1.3701 1.26594 1.31802 1.31802C1.26594 1.3701 1.21518 1.42342 1.16572 1.47798C1.11626 1.53255 1.06817 1.5883 1.02145 1.64523C0.974732 1.70216 0.929438 1.7602 0.885566 1.81935C0.841695 1.87851 0.799303 1.9387 0.758387 1.99994C0.717471 2.06117 0.678082 2.12336 0.640221 2.18654C0.602359 2.24971 0.56607 2.31377 0.531354 2.37871C0.496637 2.44365 0.463535 2.50941 0.432049 2.576C0.400561 2.64258 0.370725 2.70988 0.342543 2.77793C0.314359 2.84596 0.287861 2.91465 0.263051 2.984C0.23824 3.05334 0.215146 3.12324 0.193769 3.19371C0.17239 3.2642 0.152754 3.33516 0.134859 3.40658C0.116965 3.47803 0.100834 3.54986 0.0864662 3.62209C0.0720986 3.69434 0.0595117 3.76688 0.0487057 3.83971C0.0378996 3.91256 0.0288873 3.98563 0.0216688 4.05893C0.0144502 4.13223 0.00903408 4.20564 0.00542045 4.2792C0.00180682 4.35275 3.19936e-14 4.42635 3.19936e-14 4.5L3.19936e-14 15.5C-8.77924e-09 15.5737 0.0018068 15.6472 0.00542043 15.7208C0.00903404 15.7944 0.0144502 15.8678 0.0216688 15.9411C0.0288873 16.0144 0.0378996 16.0874 0.0487057 16.1603C0.0595117 16.2331 0.0720986 16.3057 0.0864662 16.3779C0.100834 16.4501 0.116965 16.522 0.134859 16.5934C0.152754 16.6648 0.17239 16.7358 0.193768 16.8063C0.215146 16.8768 0.23824 16.9467 0.263051 17.016C0.287861 17.0854 0.314359 17.154 0.342541 17.2221C0.370725 17.2901 0.400561 17.3574 0.432049 17.424C0.463535 17.4906 0.496637 17.5563 0.531354 17.6213C0.56607 17.6862 0.602359 17.7503 0.640221 17.8135C0.678082 17.8766 0.717471 17.9388 0.758387 18.0001C0.799303 18.0613 0.841695 18.1215 0.885566 18.1806C0.929438 18.2398 0.974732 18.2978 1.02145 18.3548C1.06817 18.4117 1.11626 18.4674 1.16572 18.522C1.21518 18.5766 1.26594 18.6299 1.31802 18.682C1.3701 18.7341 1.42342 18.7848 1.47798 18.8343C1.53255 18.8838 1.5883 18.9318 1.64523 18.9786C1.70216 19.0253 1.7602 19.0706 1.81935 19.1144C1.87851 19.1583 1.9387 19.2007 1.99994 19.2416C2.06117 19.2825 2.12336 19.3219 2.18654 19.3598C2.24971 19.3976 2.31377 19.4339 2.37871 19.4687C2.44365 19.5034 2.50941 19.5365 2.576 19.568C2.64258 19.5994 2.70988 19.6293 2.77793 19.6574C2.84596 19.6857 2.91465 19.7121 2.984 19.7369C3.05334 19.7617 3.12324 19.785 3.19371 19.8062C3.2642 19.8275 3.33516 19.8473 3.40658 19.8652C3.47803 19.883 3.54986 19.8992 3.62209 19.9135C3.69434 19.9279 3.76688 19.9406 3.83971 19.9514C3.91256 19.9621 3.98563 19.9711 4.05893 19.9783C4.13223 19.9855 4.20564 19.9908 4.2792 19.9945C4.35275 19.9982 4.42635 20 4.5 20L15.5 20C15.5737 20 15.6472 19.9982 15.7208 19.9945C15.7944 19.9908 15.8678 19.9855 15.9411 19.9783C16.0144 19.9711 16.0874 19.9621 16.1603 19.9514C16.2331 19.9406 16.3057 19.9279 16.3779 19.9135C16.4501 19.8992 16.522 19.883 16.5934 19.8652C16.6648 19.8473 16.7358 19.8275 16.8063 19.8062C16.8768 19.785 16.9467 19.7617 17.016 19.7369C17.0854 19.7121 17.154 19.6857 17.2221 19.6574C17.2901 19.6293 17.3574 19.5994 17.424 19.568C17.4906 19.5365 17.5563 19.5034 17.6213 19.4687C17.6862 19.4339 17.7503 19.3977 17.8135 19.3598C17.8766 19.3219 17.9388 19.2825 18.0001 19.2416C18.0613 19.2007 18.1215 19.1583 18.1806 19.1144C18.2398 19.0706 18.2978 19.0253 18.3548 18.9786C18.4117 18.9318 18.4674 18.8838 18.522 18.8343C18.5766 18.7848 18.6299 18.7341 18.682 18.682C18.7341 18.6299 18.7848 18.5766 18.8343 18.522C18.8838 18.4674 18.9318 18.4117 18.9786 18.3548C19.0253 18.2978 19.0706 18.2398 19.1144 18.1806C19.1583 18.1215 19.2007 18.0613 19.2416 18.0001C19.2825 17.9388 19.3219 17.8766 19.3598 17.8135C19.3976 17.7503 19.4339 17.6862 19.4687 17.6213C19.5034 17.5563 19.5365 17.4906 19.568 17.424C19.5994 17.3574 19.6293 17.2901 19.6574 17.2221C19.6857 17.154 19.7121 17.0854 19.7369 17.016C19.7617 16.9467 19.785 16.8768 19.8062 16.8063C19.8275 16.7358 19.8473 16.6648 19.8652 16.5934C19.883 16.522 19.8992 16.4501 19.9135 16.3779C19.9279 16.3057 19.9406 16.2331 19.9514 16.1603C19.9621 16.0874 19.9711 16.0144 19.9783 15.9411C19.9855 15.8678 19.9908 15.7944 19.9945 15.7208C19.9982 15.6472 20 15.5737 20 15.5L20 4.5C20 4.42635 19.9982 4.35275 19.9945 4.2792C19.9908 4.20564 19.9855 4.13223 19.9783 4.05893C19.9711 3.98563 19.9621 3.91256 19.9514 3.83971C19.9406 3.76688 19.9279 3.69434 19.9135 3.62209C19.8992 3.54986 19.883 3.47803 19.8652 3.40658C19.8473 3.33516 19.8275 3.2642 19.8062 3.19371C19.785 3.12324 19.7617 3.05334 19.7369 2.984C19.7121 2.91465 19.6857 2.84596 19.6574 2.77793C19.6293 2.70988 19.5994 2.64258 19.568 2.576C19.5365 2.50941 19.5034 2.44365 19.4687 2.37871C19.4339 2.31377 19.3976 2.24971 19.3598 2.18654C19.3219 2.12336 19.2825 2.06117 19.2416 1.99994C19.2007 1.9387 19.1583 1.87851 19.1144 1.81935C19.0706 1.7602 19.0253 1.70216 18.9786 1.64523C18.9318 1.5883 18.8838 1.53255 18.8343 1.47798C18.7848 1.42342 18.7341 1.3701 18.682 1.31802C18.6299 1.26594 18.5766 1.21518 18.522 1.16572C18.4674 1.11626 18.4117 1.06817 18.3548 1.02145C18.2978 0.974732 18.2398 0.929438 18.1806 0.885566C18.1215 0.841695 18.0613 0.799303 18.0001 0.758387C17.9388 0.717471 17.8766 0.678082 17.8135 0.640221C17.7503 0.602359 17.6862 0.56607 17.6213 0.531354C17.5563 0.496637 17.4906 0.463535 17.424 0.432049C17.3574 0.400561 17.2901 0.370725 17.2221 0.342543C17.154 0.314359 17.0854 0.287861 17.016 0.263051C16.9467 0.23824 16.8768 0.215146 16.8063 0.193769C16.7358 0.17239 16.6648 0.152754 16.5934 0.134859C16.522 0.116965 16.4501 0.100834 16.3779 0.0864662C16.3057 0.0720986 16.2331 0.0595117 16.1603 0.0487057C16.0874 0.0378996 16.0144 0.0288873 15.9411 0.0216688C15.8678 0.0144502 15.7944 0.00903408 15.7208 0.00542045C15.6472 0.00180682 15.5737 3.19936e-14 15.5 3.19936e-14ZM16.8937 6.9025L9.44875 14.3462L9.41875 14.3737L9.38625 14.4025L9.34875 14.43L9.31375 14.455L9.275 14.4788L9.23875 14.5L9.1975 14.52L9.16 14.5375L9.11625 14.5538L9.07875 14.5675L9.03375 14.5787L8.99625 14.5875L8.94875 14.595L8.74125 14.595L8.6925 14.5887L8.6575 14.5887L8.60875 14.5775L8.575 14.5688L8.52625 14.5525L8.49375 14.5413L8.44625 14.5188L8.415 14.5037L8.3675 14.4762L8.33875 14.46C8.32125 14.4487 8.305 14.4362 8.28875 14.4237L8.26625 14.4075C8.24273 14.3887 8.22023 14.3687 8.19875 14.3475L4.25 10.3975C4.23967 10.3872 4.22959 10.3766 4.21979 10.3658C4.20998 10.355 4.20045 10.3439 4.19119 10.3326C4.18193 10.3213 4.17297 10.3098 4.16428 10.2981C4.15559 10.2863 4.14719 10.2744 4.1391 10.2623C4.131 10.2501 4.1232 10.2378 4.11572 10.2252C4.10824 10.2127 4.10109 10.2 4.09424 10.1871C4.08738 10.1742 4.08086 10.1611 4.07465 10.1479C4.06846 10.1347 4.06258 10.1213 4.05705 10.1078C4.0515 10.0943 4.04631 10.0806 4.04145 10.0669C4.03658 10.0531 4.03205 10.0392 4.02789 10.0252C4.02371 10.0112 4.01988 9.99717 4.01643 9.98297C4.01295 9.96879 4.00982 9.95453 4.00705 9.9402C4.0043 9.92586 4.00187 9.91146 3.99982 9.89701C3.99777 9.88254 3.99609 9.86805 3.99477 9.85352C3.99342 9.83896 3.99246 9.82439 3.99186 9.8098C3.99125 9.79521 3.991 9.78063 3.99111 9.76604C3.99123 9.75143 3.9917 9.73684 3.99254 9.72227C3.99338 9.70768 3.99459 9.69312 3.99615 9.67861C3.99771 9.6641 3.99963 9.64963 4.00191 9.6352C4.0042 9.62078 4.00684 9.60643 4.00982 9.59213C4.01281 9.57785 4.01617 9.56363 4.01986 9.54951C4.02355 9.53539 4.0276 9.52135 4.03199 9.50742C4.03639 9.4935 4.04113 9.47971 4.04621 9.46602C4.05129 9.45232 4.0567 9.43877 4.06246 9.42535C4.06822 9.41193 4.0743 9.39865 4.0807 9.38553C4.08713 9.37242 4.09387 9.35947 4.10092 9.34668C4.10797 9.33389 4.11533 9.32129 4.12301 9.30887C4.13068 9.29646 4.13867 9.28424 4.14695 9.27221C4.15525 9.2602 4.16383 9.24838 4.1727 9.23678C4.18158 9.22519 4.19074 9.21383 4.20018 9.20268C4.20961 9.19152 4.21932 9.18062 4.2293 9.16996C4.23928 9.15932 4.24951 9.14891 4.26 9.13875C4.27068 9.12887 4.28158 9.11924 4.29273 9.10988C4.30387 9.10053 4.31523 9.09144 4.32682 9.08264C4.3384 9.07383 4.35018 9.06531 4.36217 9.05707C4.37416 9.04883 4.38635 9.04088 4.39873 9.03322C4.41109 9.02559 4.42365 9.01824 4.43639 9.01119C4.44912 9.00414 4.46201 8.99742 4.47506 8.991C4.48812 8.98457 4.50133 8.97846 4.51467 8.97268C4.52803 8.96689 4.5415 8.96144 4.55512 8.95631C4.56873 8.95117 4.58246 8.94637 4.59631 8.94189C4.61016 8.93742 4.6241 8.9333 4.63814 8.92949C4.65219 8.9257 4.66633 8.92225 4.68055 8.91914C4.69475 8.91602 4.70902 8.91324 4.72338 8.91082C4.73773 8.9084 4.75213 8.90633 4.76656 8.90459C4.78102 8.90287 4.79549 8.90148 4.81 8.90045C4.82451 8.89941 4.83904 8.89875 4.85359 8.89842C4.86814 8.89809 4.88268 8.89812 4.89723 8.8985C4.91178 8.89887 4.92631 8.89959 4.94082 8.90066C4.95533 8.90174 4.9698 8.90316 4.98424 8.90494C4.99867 8.90672 5.01307 8.90885 5.02742 8.91131C5.04176 8.91379 5.05604 8.9166 5.07023 8.91977C5.08443 8.92293 5.09854 8.92643 5.11258 8.93027C5.12662 8.93412 5.14055 8.93828 5.15438 8.94279C5.1682 8.9473 5.18191 8.95217 5.19553 8.95734C5.20912 8.96252 5.22258 8.96801 5.23592 8.97385C5.24926 8.97967 5.26244 8.98582 5.27547 8.99228C5.2885 8.99875 5.30137 9.00551 5.31408 9.0126C5.3268 9.01969 5.33932 9.02709 5.35168 9.03477C5.36402 9.04246 5.37617 9.05045 5.38814 9.05873C5.40012 9.06701 5.41187 9.07557 5.42342 9.08441C5.43496 9.09326 5.44631 9.10238 5.45742 9.11178C5.46853 9.12117 5.47941 9.13082 5.49006 9.14074C5.5007 9.15066 5.51109 9.16084 5.52125 9.17125L8.825 12.4738L15.645 5.65375C15.6552 5.64352 15.6657 5.63354 15.6764 5.62381C15.6871 5.61408 15.6981 5.60463 15.7093 5.59545C15.7204 5.58627 15.7318 5.57736 15.7435 5.56873C15.7551 5.56012 15.7669 5.55178 15.7789 5.54373C15.791 5.53568 15.8032 5.52795 15.8156 5.52051C15.828 5.51307 15.8406 5.50592 15.8533 5.4991C15.8661 5.49227 15.879 5.48576 15.8921 5.47957C15.9052 5.47338 15.9184 5.4675 15.9318 5.46197C15.9451 5.45643 15.9586 5.45121 15.9722 5.44633C15.9859 5.44146 15.9996 5.43691 16.0134 5.43271C16.0273 5.42852 16.0412 5.42465 16.0553 5.42111C16.0693 5.4176 16.0834 5.41443 16.0976 5.4116C16.1118 5.40877 16.126 5.40629 16.1404 5.40416C16.1547 5.40203 16.169 5.40027 16.1834 5.39885C16.1978 5.39742 16.2122 5.39635 16.2267 5.39564C16.2412 5.39492 16.2556 5.39457 16.2701 5.39457C16.2846 5.39455 16.299 5.3949 16.3135 5.39561C16.3279 5.39633 16.3424 5.39738 16.3568 5.39879C16.3712 5.40021 16.3855 5.40197 16.3998 5.4041C16.4141 5.40623 16.4284 5.40869 16.4426 5.4115C16.4568 5.41434 16.4709 5.4175 16.4849 5.42102C16.499 5.42453 16.5129 5.42838 16.5268 5.43258C16.5406 5.43678 16.5543 5.44133 16.568 5.44619C16.5816 5.45105 16.5951 5.45627 16.6085 5.4618C16.6218 5.46732 16.635 5.47318 16.6481 5.47937C16.6612 5.48557 16.6741 5.49207 16.6869 5.49889C16.6996 5.5057 16.7122 5.51283 16.7246 5.52027C16.7371 5.52771 16.7493 5.53545 16.7613 5.5435C16.7734 5.55152 16.7852 5.55986 16.7968 5.56848C16.8084 5.57709 16.8198 5.586 16.831 5.59518C16.8422 5.60436 16.8531 5.61381 16.8639 5.62352C16.8746 5.63324 16.8851 5.64322 16.8953 5.65344C16.9055 5.66367 16.9155 5.67416 16.9252 5.68488C16.9349 5.69561 16.9444 5.70654 16.9536 5.71773C16.9628 5.72893 16.9717 5.74033 16.9803 5.75195C16.9889 5.76357 16.9972 5.77539 17.0053 5.78742C17.0133 5.79945 17.021 5.81168 17.0285 5.8241C17.0359 5.8365 17.043 5.8491 17.0499 5.86186C17.0567 5.87461 17.0632 5.88754 17.0694 5.90063C17.0755 5.91369 17.0814 5.92691 17.087 5.94029C17.0925 5.95367 17.0977 5.96717 17.1026 5.98078C17.1074 5.99441 17.112 6.00814 17.1162 6.02199C17.1204 6.03584 17.1242 6.04979 17.1277 6.06383C17.1313 6.07787 17.1344 6.09197 17.1372 6.10617C17.1401 6.12037 17.1425 6.13461 17.1446 6.14893C17.1468 6.16324 17.1485 6.1776 17.1499 6.19199C17.1514 6.20639 17.1524 6.22082 17.1531 6.23527C17.1538 6.24973 17.1542 6.26418 17.1542 6.27865C17.1542 6.29313 17.1538 6.3076 17.1531 6.32205C17.1524 6.3365 17.1513 6.35092 17.1499 6.36531C17.1485 6.37971 17.1467 6.39408 17.1446 6.4084C17.1425 6.42271 17.14 6.43695 17.1371 6.45115C17.1343 6.46535 17.1312 6.47945 17.1276 6.49348C17.1241 6.50752 17.1202 6.52146 17.116 6.53531C17.1118 6.54916 17.1073 6.56289 17.1024 6.5765C17.0975 6.59012 17.0923 6.60361 17.0868 6.61699C17.0812 6.63035 17.0754 6.64357 17.0692 6.65666C17.063 6.66973 17.0565 6.68266 17.0496 6.69541C17.0428 6.70816 17.0357 6.72076 17.0282 6.73316C17.0208 6.74557 17.0131 6.75779 17.005 6.76982C16.997 6.78184 16.9886 6.79367 16.98 6.80529C16.9714 6.81691 16.9625 6.8283 16.9533 6.83949C16.9441 6.85066 16.9346 6.86162 16.9249 6.87234C16.9152 6.88307 16.9052 6.89354 16.895 6.90375L16.8937 6.9025Z"   fill="#467CFD" >
</path>
<path d="M15.645 5.65372L8.825 12.4737L5.5225 9.17122C5.51234 9.16081 5.50194 9.15063 5.4913 9.14071C5.48065 9.13079 5.46978 9.12114 5.45867 9.11175C5.44755 9.10235 5.43621 9.09323 5.42466 9.08438C5.41312 9.07554 5.40136 9.06698 5.38939 9.0587C5.37743 9.05042 5.36527 9.04243 5.35293 9.03474C5.34057 9.02706 5.32804 9.01966 5.31533 9.01257C5.30262 9.00548 5.28975 8.99872 5.27671 8.99226C5.26368 8.98579 5.2505 8.97964 5.23716 8.97382C5.22383 8.96798 5.21037 8.96249 5.19677 8.95731C5.18318 8.95214 5.16946 8.94728 5.15562 8.94276C5.14179 8.93825 5.12786 8.93409 5.11382 8.93024C5.09979 8.9264 5.08567 8.9229 5.07148 8.91974C5.05728 8.91657 5.043 8.91376 5.02867 8.91128C5.01432 8.90882 4.99993 8.90669 4.98548 8.90491C4.97105 8.90314 4.95657 8.90171 4.94207 8.90063C4.92756 8.89956 4.91303 8.89884 4.89847 8.89847C4.88393 8.8981 4.86938 8.89806 4.85484 8.89839C4.8403 8.89872 4.82576 8.89938 4.81125 8.90042C4.79674 8.90145 4.78226 8.90284 4.76781 8.90456C4.75337 8.9063 4.73897 8.90837 4.72463 8.91079C4.71028 8.91321 4.696 8.91599 4.68179 8.91911C4.66757 8.92222 4.65344 8.92567 4.63939 8.92946C4.62535 8.93327 4.61141 8.93739 4.59755 8.94186C4.58371 8.94634 4.56998 8.95114 4.55636 8.95628C4.54276 8.96142 4.52927 8.96687 4.51591 8.97265C4.50257 8.97843 4.48937 8.98454 4.4763 8.99097C4.46326 8.99739 4.45037 9.00411 4.43763 9.01116C4.4249 9.01821 4.41235 9.02556 4.39998 9.03319C4.38759 9.04085 4.37541 9.0488 4.36341 9.05704C4.35142 9.06528 4.33964 9.0738 4.32806 9.08261C4.31647 9.09142 4.30511 9.1005 4.29398 9.10985C4.28283 9.11921 4.27192 9.12884 4.26125 9.13872C4.25074 9.14886 4.24049 9.15927 4.2305 9.16991C4.22052 9.18056 4.2108 9.19145 4.20134 9.20259C4.1919 9.21372 4.18274 9.22509 4.17384 9.23667C4.16496 9.24825 4.15638 9.26007 4.14808 9.27208C4.13977 9.28409 4.13177 9.2963 4.12408 9.3087C4.1164 9.32112 4.10902 9.33372 4.10195 9.34649C4.09488 9.35927 4.08813 9.37222 4.08172 9.38532C4.07528 9.39843 4.06918 9.41171 4.06341 9.42513C4.05765 9.43855 4.05222 9.45208 4.04713 9.46577C4.04203 9.47946 4.03729 9.49325 4.03289 9.50718C4.02847 9.5211 4.02441 9.53513 4.0207 9.54925C4.01699 9.56337 4.01363 9.57757 4.01062 9.59187C4.00761 9.60614 4.00496 9.6205 4.00265 9.63493C4.00036 9.64935 3.99843 9.66382 3.99685 9.67833C3.99528 9.69284 3.99406 9.70739 3.9932 9.72196C3.99235 9.73655 3.99186 9.75114 3.99173 9.76573C3.9916 9.78034 3.99183 9.79493 3.99242 9.80952C3.99302 9.82411 3.99397 9.83868 3.99529 9.85323C3.9966 9.86776 3.99828 9.88226 4.00033 9.89673C4.00236 9.91118 4.00475 9.92558 4.0075 9.93993C4.01026 9.95427 4.01336 9.96852 4.01681 9.98271C4.02028 9.9969 4.02409 10.011 4.02826 10.025C4.03241 10.039 4.03691 10.0529 4.04175 10.0667C4.04661 10.0804 4.0518 10.0941 4.05732 10.1076C4.06284 10.1211 4.0687 10.1345 4.0749 10.1477C4.08108 10.1609 4.08759 10.174 4.09443 10.1869C4.10127 10.1998 4.10842 10.2125 4.11589 10.225C4.12337 10.2376 4.13114 10.25 4.13921 10.2621C4.1473 10.2743 4.15569 10.2862 4.16437 10.298C4.17304 10.3097 4.182 10.3212 4.19125 10.3325C4.20049 10.3439 4.21002 10.3549 4.21982 10.3657C4.22961 10.3766 4.23967 10.3871 4.25 10.3975L8.2 14.3462C8.22149 14.3674 8.24398 14.3874 8.2675 14.4062L8.29 14.4225C8.30625 14.435 8.3225 14.4475 8.34 14.4587L8.36875 14.475L8.41625 14.5025L8.4475 14.5175L8.495 14.54L8.5275 14.5512L8.57625 14.5675L8.61 14.5762L8.65875 14.5875L8.69375 14.5875L8.7425 14.5937L8.95 14.5937L8.9975 14.5862L9.035 14.5775L9.08 14.5662L9.1175 14.5525L9.16125 14.5362L9.19875 14.5187L9.24 14.4987L9.27625 14.4775L9.315 14.4537L9.35 14.4287L9.3875 14.4012L9.42 14.3725L9.45 14.345L16.8937 6.90122C16.904 6.891 16.914 6.88053 16.9237 6.86981C16.9334 6.8591 16.9429 6.84815 16.9521 6.83696C16.9613 6.82578 16.9702 6.81438 16.9788 6.80276C16.9874 6.79115 16.9958 6.77933 17.0038 6.76729C17.0119 6.75526 17.0196 6.74304 17.0271 6.73063C17.0345 6.71823 17.0416 6.70564 17.0485 6.69288C17.0553 6.68012 17.0618 6.6672 17.068 6.65413C17.0742 6.64104 17.0801 6.62782 17.0856 6.61446C17.0912 6.60109 17.0964 6.5876 17.1013 6.57397C17.1062 6.56034 17.1107 6.54661 17.1149 6.53276C17.1191 6.51891 17.123 6.50496 17.1265 6.49093C17.13 6.47689 17.1332 6.46278 17.1361 6.44858C17.1389 6.43439 17.1414 6.42014 17.1435 6.40583C17.1456 6.39152 17.1474 6.37716 17.1488 6.36274C17.1502 6.34834 17.1513 6.33392 17.152 6.31946C17.1527 6.30501 17.1531 6.29055 17.1531 6.27608C17.1531 6.26161 17.1528 6.24714 17.1521 6.23269C17.1514 6.21823 17.1503 6.2038 17.1489 6.1894C17.1475 6.17499 17.1457 6.16063 17.1436 6.14632C17.1415 6.132 17.139 6.11774 17.1362 6.10354C17.1334 6.08935 17.1302 6.07524 17.1267 6.0612C17.1232 6.04716 17.1193 6.03322 17.1151 6.01937C17.1109 6.00551 17.1064 5.99177 17.1015 5.97815C17.0966 5.96452 17.0914 5.95102 17.0859 5.93765C17.0804 5.92427 17.0745 5.91105 17.0683 5.89796C17.0621 5.88487 17.0556 5.87195 17.0488 5.85919C17.042 5.84643 17.0349 5.83384 17.0274 5.82142C17.02 5.80901 17.0122 5.79679 17.0042 5.78476C16.9962 5.77271 16.9878 5.76088 16.9792 5.74927C16.9706 5.73764 16.9617 5.72623 16.9525 5.71505C16.9433 5.70385 16.9339 5.69289 16.9242 5.68218C16.9144 5.67145 16.9045 5.66097 16.8942 5.65073C16.884 5.6405 16.8735 5.63052 16.8628 5.62081C16.8521 5.61108 16.8411 5.60163 16.8299 5.59245C16.8187 5.58327 16.8073 5.57437 16.7957 5.56575C16.7841 5.55713 16.7722 5.54881 16.7602 5.54077C16.7482 5.53272 16.736 5.52498 16.7236 5.51755C16.7111 5.51011 16.6985 5.50299 16.6858 5.49616C16.673 5.48934 16.6601 5.48284 16.647 5.47665C16.6339 5.47047 16.6207 5.46461 16.6073 5.45907C16.5939 5.45354 16.5805 5.44833 16.5668 5.44345C16.5532 5.43858 16.5395 5.43405 16.5256 5.42985C16.5117 5.42565 16.4978 5.42179 16.4838 5.41829C16.4697 5.41478 16.4556 5.4116 16.4414 5.40878C16.4272 5.40597 16.413 5.4035 16.3987 5.40138C16.3843 5.39925 16.37 5.39749 16.3556 5.39608C16.3412 5.39466 16.3267 5.3936 16.3123 5.3929C16.2978 5.3922 16.2834 5.39185 16.2689 5.39185C16.2544 5.39186 16.24 5.39222 16.2255 5.39294C16.211 5.39366 16.1966 5.39472 16.1822 5.39614C16.1678 5.39757 16.1534 5.39935 16.1391 5.40147C16.1248 5.40361 16.1106 5.40609 16.0964 5.40892C16.0822 5.41176 16.0681 5.41493 16.054 5.41845C16.04 5.42198 16.0261 5.42584 16.0122 5.43005C15.9983 5.43425 15.9846 5.4388 15.971 5.44368C15.9574 5.44856 15.9439 5.45378 15.9305 5.45933C15.9171 5.46487 15.9039 5.47075 15.8908 5.47694C15.8778 5.48314 15.8648 5.48965 15.8521 5.49647C15.8393 5.50331 15.8267 5.51045 15.8143 5.5179C15.8019 5.52535 15.7897 5.5331 15.7777 5.54114C15.7656 5.54919 15.7538 5.55753 15.7422 5.56616C15.7306 5.57479 15.7192 5.58371 15.708 5.5929C15.6968 5.60208 15.6859 5.61153 15.6752 5.62126C15.6644 5.63099 15.654 5.64097 15.6438 5.65122L15.645 5.65372Z"   fill="#FFFFFF" >
</path>
</svg>
