<svg xmlns="http://www.w3.org/2000/svg" xmlns:xlink="http://www.w3.org/1999/xlink" width="30.000152587890625" height="30" viewBox="0 0 30.000152587890625 30" fill="none">
<path d="M15 1.18745e-07C14.7545 1.18745e-07 14.5092 0.00602344 14.2639 0.0180701C14.0188 0.0301169 13.774 0.0481724 13.5297 0.0722365C13.2854 0.0963009 13.0418 0.126345 12.7989 0.162369C12.5561 0.198393 12.3143 0.240353 12.0735 0.28825C11.8327 0.336147 11.5933 0.389922 11.3551 0.449577C11.117 0.509232 10.8804 0.574693 10.6455 0.645961C10.4106 0.717227 10.1776 0.794217 9.9464 0.876929C9.71525 0.959637 9.48626 1.04797 9.25944 1.14192C9.03265 1.23587 8.80829 1.33534 8.58636 1.4403C8.36444 1.54527 8.14521 1.65562 7.9287 1.77136C7.71219 1.88709 7.49867 2.00807 7.28808 2.13428C7.07752 2.2605 6.87019 2.39181 6.66604 2.5282C6.46193 2.6646 6.26127 2.80593 6.0641 2.95219C5.86693 3.09844 5.67345 3.24944 5.48366 3.40518C5.2939 3.56092 5.10807 3.72124 4.92616 3.88612C4.74429 4.05098 4.56654 4.22023 4.39295 4.39381C4.21937 4.56743 4.05015 4.74517 3.88529 4.92708C3.72043 5.10899 3.56015 5.29485 3.4044 5.4846C3.24866 5.67439 3.09769 5.86787 2.95144 6.06507C2.80521 6.26227 2.6639 6.46295 2.52752 6.66707C2.39114 6.87118 2.25985 7.07855 2.13365 7.28913C2.00745 7.49969 1.88649 7.71324 1.77078 7.92977C1.65506 8.14628 1.54473 8.36551 1.43977 8.58744C1.33483 8.80936 1.23538 9.03375 1.14145 9.26057C1.04752 9.48739 0.959202 9.71637 0.876511 9.94753C0.793819 10.1787 0.716849 10.4117 0.645598 10.6466C0.574353 10.8816 0.508912 11.1181 0.449274 11.3563C0.389642 11.5944 0.335885 11.8339 0.288008 12.0746C0.240131 12.3154 0.19819 12.5573 0.162186 12.8001C0.126182 13.0429 0.0961584 13.2865 0.0721144 13.5308C0.0480704 13.7751 0.0300353 14.0199 0.0180088 14.2651C0.00598254 14.5103 -2.0398e-05 14.7557 5.15419e-08 15.0012C2.04483e-05 15.2467 0.00606419 15.492 0.0181313 15.7372C0.0301985 15.9824 0.0482743 16.2272 0.072359 16.4715C0.0964438 16.7158 0.126508 16.9594 0.162553 17.2022C0.198597 17.4451 0.240577 17.6869 0.288495 17.9277C0.336412 18.1684 0.390208 18.4079 0.449881 18.646C0.509556 18.8842 0.575039 19.1207 0.646325 19.3556C0.717614 19.5905 0.794622 19.8236 0.877352 20.0547C0.960081 20.2858 1.04843 20.5148 1.1424 20.7416C1.23638 20.9684 1.33586 21.1927 1.44084 21.4147C1.54583 21.6366 1.6562 21.8558 1.77195 22.0723C1.8877 22.2888 2.0087 22.5023 2.13493 22.7129C2.26117 22.9234 2.39249 23.1308 2.52891 23.3349C2.66532 23.539 2.80667 23.7396 2.95293 23.9368C3.09919 24.134 3.25021 24.3274 3.40599 24.5172C3.56176 24.7069 3.72208 24.8927 3.88696 25.0746C4.05185 25.2565 4.2211 25.4342 4.39471 25.6078C4.56833 25.7814 4.7461 25.9506 4.92801 26.1154C5.10995 26.2803 5.29581 26.4406 5.4856 26.5963C5.67538 26.752 5.86889 26.903 6.06609 27.0492C6.26332 27.1954 6.46398 27.3367 6.66812 27.473C6.87227 27.6094 7.07963 27.7407 7.29022 27.8669C7.50081 27.9931 7.71439 28.114 7.9309 28.2297C8.14743 28.3454 8.36666 28.4557 8.58862 28.5606C8.81058 28.6655 9.03493 28.765 9.26175 28.8589C9.48857 28.9528 9.71759 29.0411 9.94875 29.1238C10.1799 29.2065 10.413 29.2834 10.6479 29.3546C10.8828 29.4258 11.1194 29.4914 11.3575 29.5509C11.5957 29.6103 11.8352 29.6643 12.0759 29.712C12.3167 29.7598 12.5585 29.802 12.8014 29.838C13.0442 29.874 13.2878 29.9039 13.5322 29.9279C13.7765 29.952 14.0212 29.9698 14.2664 29.9818C14.5117 29.9938 14.757 30 15.0025 30C15.248 29.9997 15.4933 29.9936 15.7385 29.9815C15.9838 29.9695 16.2285 29.9517 16.4728 29.9273C16.7172 29.9033 16.9607 29.8731 17.2035 29.8371C17.4464 29.8011 17.6882 29.7589 17.9289 29.7111C18.1697 29.6634 18.4092 29.6095 18.6473 29.5497C18.8854 29.4899 19.122 29.4243 19.3569 29.3531C19.5918 29.2818 19.8248 29.2048 20.056 29.1221C20.2871 29.0393 20.516 28.951 20.7428 28.857C20.9697 28.763 21.194 28.6635 21.4159 28.5585C21.6378 28.4535 21.857 28.3431 22.0735 28.2273C22.29 28.1116 22.5035 27.9905 22.714 27.8643C22.9246 27.7381 23.1319 27.6067 23.336 27.4703C23.5401 27.3338 23.7407 27.1925 23.9379 27.0462C24.1351 26.8999 24.3285 26.7489 24.5182 26.5931C24.708 26.4373 24.8938 26.277 25.0757 26.1121C25.2576 25.9472 25.4352 25.7779 25.6088 25.6043C25.7824 25.4306 25.9515 25.2529 26.1164 25.0709C26.2812 24.889 26.4415 24.7031 26.5972 24.5133C26.7529 24.3235 26.9039 24.13 27.05 23.9328C27.1962 23.7356 27.3375 23.5349 27.4739 23.3307C27.6102 23.1266 27.7415 22.9192 27.8676 22.7086C27.9938 22.498 28.1147 22.2844 28.2304 22.0679C28.3461 21.8513 28.4564 21.6321 28.5613 21.4102C28.6662 21.1882 28.7656 20.9638 28.8595 20.737C28.9534 20.5102 29.0417 20.2812 29.1243 20.05C29.207 19.8188 29.2839 19.5858 29.3553 19.3508C29.4262 19.1159 29.4918 18.8793 29.5516 18.6412C29.6111 18.403 29.6647 18.1635 29.7127 17.9227C29.7605 17.6819 29.8024 17.4401 29.8384 17.1973C29.8742 16.9544 29.9043 16.7108 29.9284 16.4665C29.9524 16.2222 29.9703 15.9774 29.9823 15.7322C29.994 15.487 30.0001 15.2417 30.0001 14.9962C30.0001 14.7507 29.994 14.5054 29.982 14.2603C29.9697 14.0151 29.9518 13.7704 29.9278 13.5261C29.9038 13.2819 29.8736 13.0383 29.8375 12.7955C29.8012 12.5527 29.7593 12.311 29.7116 12.0703C29.6635 11.8295 29.6099 11.5901 29.5501 11.352C29.4904 11.1139 29.425 10.8774 29.3538 10.6425C29.2824 10.4077 29.2054 10.1747 29.1226 9.9436C29.0399 9.71251 28.9516 9.48358 28.8576 9.25682C28.7637 9.03006 28.6642 8.80573 28.5592 8.58386C28.4542 8.362 28.3439 8.14282 28.2282 7.92638C28.1124 7.7099 27.9914 7.49641 27.8652 7.28591C27.739 7.07538 27.6077 6.86807 27.4713 6.66402C27.3349 6.45997 27.1936 6.25937 27.0474 6.06223C26.9011 5.86509 26.7501 5.67167 26.5944 5.48194C26.4386 5.29224 26.2784 5.10644 26.1135 4.92459C25.9486 4.74274 25.7794 4.56502 25.6058 4.3915C25.4323 4.21797 25.2545 4.04878 25.0726 3.88398C24.8907 3.71916 24.7049 3.5589 24.5151 3.40322C24.3254 3.24753 24.1319 3.09659 23.9347 2.9504C23.7375 2.8042 23.5369 2.66293 23.3328 2.52659C23.1287 2.39025 22.9214 2.25899 22.7108 2.13283C22.5003 2.00667 22.2868 1.88575 22.0703 1.77007C21.8538 1.65439 21.6346 1.54409 21.4127 1.43917C21.1908 1.33426 20.9665 1.23485 20.7397 1.14094C20.5129 1.04704 20.284 0.958755 20.0528 0.876094C19.8217 0.793432 19.5887 0.716491 19.3538 0.645267C19.1189 0.574046 18.8824 0.508628 18.6443 0.449017C18.4062 0.389406 18.1668 0.335675 17.926 0.287818C17.6853 0.239962 17.4435 0.198042 17.2007 0.162056C16.9579 0.126071 16.7144 0.0960645 16.4701 0.0720362C16.2258 0.0480081 15.9811 0.0299874 15.7359 0.017974C15.4908 0.00596077 15.2455 -3.05276e-05 15 1.18745e-07ZM21.75 19.8187C21.7658 19.8344 21.7812 19.8506 21.7961 19.8671C21.8111 19.8836 21.8257 19.9005 21.8398 19.9178C21.854 19.935 21.8677 19.9526 21.881 19.9705C21.8943 19.9884 21.9071 20.0067 21.9195 20.0252C21.9319 20.0437 21.9438 20.0626 21.9553 20.0817C21.9668 20.1008 21.9777 20.1203 21.9883 20.1399C21.9988 20.1596 22.0088 20.1795 22.0183 20.1997C22.0279 20.2198 22.0369 20.2402 22.0455 20.2608C22.054 20.2814 22.062 20.3022 22.0695 20.3232C22.077 20.3442 22.084 20.3654 22.0905 20.3868C22.097 20.4081 22.1029 20.4296 22.1084 20.4512C22.1138 20.4729 22.1187 20.4946 22.123 20.5165C22.1274 20.5384 22.1312 20.5604 22.1344 20.5824C22.1377 20.6045 22.1405 20.6266 22.1426 20.6488C22.1448 20.671 22.1465 20.6932 22.1476 20.7155C22.1487 20.7378 22.1492 20.7601 22.1492 20.7824C22.1492 20.8047 22.1487 20.827 22.1476 20.8493C22.1465 20.8716 22.1448 20.8938 22.1426 20.916C22.1405 20.9382 22.1377 20.9603 22.1344 20.9824C22.1312 21.0045 22.1274 21.0264 22.123 21.0483C22.1187 21.0702 22.1138 21.0919 22.1084 21.1136C22.1029 21.1352 22.097 21.1567 22.0905 21.178C22.084 21.1994 22.077 21.2205 22.0695 21.2416C22.062 21.2626 22.054 21.2834 22.0455 21.304C22.0369 21.3246 22.0279 21.345 22.0183 21.3651C22.0088 21.3853 21.9988 21.4052 21.9883 21.4249C21.9777 21.4446 21.9668 21.464 21.9553 21.4831C21.9438 21.5022 21.9319 21.5211 21.9195 21.5396C21.9071 21.5582 21.8943 21.5764 21.881 21.5943C21.8677 21.6122 21.854 21.6298 21.8398 21.6471C21.8257 21.6643 21.8111 21.6812 21.7961 21.6977C21.7812 21.7142 21.7658 21.7304 21.75 21.7461C21.7342 21.7619 21.7181 21.7773 21.7015 21.7923C21.685 21.8073 21.6681 21.8218 21.6509 21.836C21.6337 21.8501 21.6161 21.8639 21.5981 21.8771C21.5802 21.8904 21.562 21.9033 21.5434 21.9157C21.5249 21.928 21.5061 21.94 21.4869 21.9514C21.4678 21.9629 21.4484 21.9739 21.4287 21.9844C21.4091 21.9949 21.3891 22.005 21.369 22.0145C21.3488 22.024 21.3284 22.0331 21.3078 22.0416C21.2872 22.0501 21.2664 22.0582 21.2454 22.0657C21.2244 22.0732 21.2032 22.0802 21.1819 22.0867C21.1606 22.0931 21.1391 22.0991 21.1174 22.1045C21.0958 22.1099 21.074 22.1148 21.0521 22.1192C21.0303 22.1235 21.0083 22.1273 20.9862 22.1306C20.9642 22.1339 20.942 22.1366 20.9198 22.1388C20.8976 22.141 20.8754 22.1426 20.8531 22.1437C20.8308 22.1448 20.8086 22.1453 20.7863 22.1453C20.764 22.1453 20.7417 22.1448 20.7194 22.1437C20.6971 22.1426 20.6749 22.141 20.6527 22.1388C20.6305 22.1366 20.6083 22.1339 20.5862 22.1306C20.5642 22.1273 20.5422 22.1235 20.5204 22.1192C20.4985 22.1148 20.4767 22.1099 20.4551 22.1045C20.4335 22.0991 20.412 22.0931 20.3906 22.0867C20.3693 22.0802 20.3481 22.0732 20.3271 22.0657C20.3061 22.0582 20.2853 22.0501 20.2647 22.0416C20.2441 22.0331 20.2237 22.024 20.2035 22.0145C20.1833 22.005 20.1635 21.9949 20.1438 21.9844C20.1241 21.9739 20.1047 21.9629 20.0856 21.9514C20.0664 21.94 20.0476 21.928 20.029 21.9157C20.0105 21.9033 19.9923 21.8904 19.9743 21.8771C19.9564 21.8639 19.9389 21.8501 19.9216 21.836C19.9044 21.8218 19.8875 21.8073 19.871 21.7923C19.8544 21.7773 19.8383 21.7619 19.8225 21.7461L15 16.9274L10.1775 21.7461C10.1617 21.7619 10.1456 21.7773 10.129 21.7923C10.1125 21.8073 10.0956 21.8218 10.0784 21.836C10.0612 21.8501 10.0436 21.8639 10.0257 21.8771C10.0078 21.8904 9.98953 21.9033 9.97095 21.9157C9.95241 21.928 9.93357 21.94 9.91444 21.9514C9.89531 21.9629 9.87591 21.9739 9.85623 21.9844C9.83657 21.9949 9.81665 22.005 9.79649 22.0145C9.77633 22.024 9.75594 22.0331 9.73532 22.0416C9.71472 22.0501 9.69392 22.0582 9.67291 22.0657C9.65194 22.0732 9.63075 22.0802 9.6094 22.0867C9.58807 22.0931 9.56656 22.0991 9.54491 22.1045C9.52329 22.1099 9.50152 22.1148 9.47964 22.1192C9.45778 22.1235 9.43581 22.1273 9.41372 22.1306C9.39169 22.1339 9.36954 22.1366 9.34733 22.1388C9.32515 22.141 9.30292 22.1426 9.28062 22.1437C9.25836 22.1448 9.23606 22.1453 9.21374 22.1453C9.19144 22.1453 9.16915 22.1448 9.14688 22.1437C9.12461 22.1426 9.10235 22.141 9.08014 22.1388C9.05796 22.1366 9.03584 22.1339 9.01375 22.1306C8.99169 22.1273 8.96972 22.1235 8.94783 22.1192C8.92598 22.1148 8.90421 22.1099 8.88256 22.1045C8.86094 22.0991 8.83946 22.0931 8.81811 22.0867C8.79678 22.0802 8.7756 22.0732 8.75459 22.0657C8.73358 22.0582 8.71278 22.0501 8.69216 22.0416C8.67156 22.0331 8.65117 22.024 8.63101 22.0145C8.61086 22.005 8.59093 21.9949 8.57125 21.9844C8.55159 21.9739 8.53219 21.9629 8.51303 21.9514C8.49393 21.94 8.47509 21.928 8.45652 21.9157C8.438 21.9033 8.41975 21.8904 8.40182 21.8771C8.38392 21.8639 8.36634 21.8501 8.34908 21.836C8.33186 21.8218 8.31498 21.8073 8.29843 21.7923C8.28191 21.7773 8.26576 21.7619 8.25 21.7461C8.23424 21.7304 8.21886 21.7142 8.20386 21.6977C8.18889 21.6812 8.17433 21.6643 8.16018 21.6471C8.14603 21.6298 8.13231 21.6122 8.11901 21.5943C8.10574 21.5764 8.09291 21.5582 8.08049 21.5396C8.06812 21.5211 8.0562 21.5022 8.04472 21.4831C8.03323 21.464 8.02224 21.4446 8.01173 21.4249C8.00124 21.4052 7.99119 21.3853 7.98164 21.3651C7.97212 21.345 7.96309 21.3246 7.95454 21.304C7.94601 21.2834 7.93799 21.2626 7.93046 21.2416C7.92296 21.2205 7.91598 21.1994 7.90948 21.178C7.90303 21.1567 7.89709 21.1352 7.89164 21.1136C7.88625 21.0919 7.88135 21.0702 7.87699 21.0483C7.87265 21.0264 7.86881 21.0045 7.86553 20.9824C7.86228 20.9603 7.85956 20.9382 7.85736 20.916C7.85519 20.8938 7.85355 20.8716 7.85244 20.8493C7.85135 20.827 7.8508 20.8047 7.8508 20.7824C7.8508 20.7601 7.85135 20.7378 7.85244 20.7155C7.85355 20.6933 7.85519 20.671 7.85736 20.6488C7.85956 20.6266 7.86228 20.6045 7.86553 20.5824C7.86881 20.5604 7.87265 20.5384 7.87699 20.5165C7.88135 20.4946 7.88625 20.4729 7.89164 20.4512C7.89709 20.4296 7.90303 20.4081 7.90948 20.3868C7.91598 20.3654 7.92296 20.3442 7.93046 20.3232C7.93799 20.3022 7.94601 20.2814 7.95454 20.2608C7.96309 20.2402 7.97212 20.2198 7.98164 20.1997C7.99119 20.1795 8.00124 20.1596 8.01173 20.1399C8.02224 20.1203 8.03323 20.1008 8.04472 20.0817C8.0562 20.0626 8.06812 20.0437 8.08049 20.0252C8.09291 20.0067 8.10574 19.9884 8.11901 19.9705C8.13231 19.9526 8.14603 19.935 8.16018 19.9178C8.17433 19.9005 8.18889 19.8836 8.20386 19.8671C8.21886 19.8506 8.23424 19.8344 8.25 19.8187L13.0725 14.9962L8.25 10.1775C8.23421 10.1617 8.21883 10.1455 8.20383 10.129C8.18883 10.1125 8.17427 10.0956 8.16009 10.0784C8.14594 10.0611 8.1322 10.0435 8.1189 10.0256C8.1056 10.0077 8.09276 9.98948 8.08034 9.97094C8.06795 9.95239 8.05599 9.93355 8.04451 9.91442C8.03306 9.89529 8.02207 9.87587 8.01152 9.85621C8.001 9.83652 7.99095 9.8166 7.9814 9.79644C7.97185 9.77626 7.96283 9.75587 7.95427 9.73527C7.94572 9.71467 7.93769 9.69384 7.93016 9.67284C7.92266 9.65183 7.91566 9.63068 7.90916 9.60932C7.90268 9.58797 7.89674 9.56649 7.89129 9.54484C7.88587 9.52319 7.88097 9.50142 7.87661 9.47954C7.87224 9.45765 7.8684 9.43568 7.86512 9.41362C7.86184 9.39156 7.85912 9.36941 7.85692 9.3472C7.85475 9.32499 7.85308 9.30276 7.85197 9.28046C7.85088 9.25817 7.85033 9.23587 7.85033 9.21358C7.85033 9.19125 7.85088 9.16896 7.85194 9.14666C7.85305 9.12437 7.85469 9.10213 7.85686 9.07992C7.85906 9.05772 7.86178 9.03557 7.86504 9.01351C7.86832 8.99145 7.87213 8.96947 7.87646 8.94759C7.88083 8.9257 7.88572 8.90393 7.89111 8.88228C7.89656 8.86063 7.90251 8.83916 7.90895 8.8178C7.91543 8.79644 7.92243 8.77526 7.92993 8.75426C7.93746 8.73325 7.94549 8.71242 7.95401 8.69182C7.96257 8.6712 7.97159 8.65081 7.98111 8.63062C7.99066 8.61047 8.00071 8.59054 8.0112 8.57086C8.02172 8.5512 8.0327 8.53177 8.04419 8.51264C8.05567 8.49351 8.0676 8.47464 8.07999 8.4561C8.09238 8.43755 8.10521 8.4193 8.11852 8.40137C8.13182 8.38347 8.14553 8.36589 8.15968 8.34864C8.17386 8.33138 8.18842 8.3145 8.20339 8.29795C8.21839 8.28143 8.23377 8.26529 8.24953 8.24949C8.2653 8.2337 8.28147 8.21832 8.29799 8.20335C8.31451 8.18838 8.33142 8.17379 8.34865 8.15964C8.36593 8.14549 8.38351 8.13175 8.40141 8.11848C8.41934 8.10518 8.43759 8.09234 8.45614 8.07995C8.47471 8.06756 8.49355 8.05561 8.51265 8.04415C8.53181 8.0327 8.55121 8.02168 8.5709 8.01116C8.59058 8.00064 8.61051 7.99062 8.63066 7.98107C8.65085 7.97155 8.67124 7.9625 8.69183 7.95397C8.71246 7.94545 8.73329 7.93742 8.7543 7.92989C8.7753 7.92239 8.79648 7.91539 8.81781 7.90892C8.8392 7.90244 8.8607 7.89649 8.88233 7.89107C8.90398 7.88565 8.92574 7.88079 8.94763 7.87642C8.96951 7.87209 8.99149 7.86828 9.01355 7.865C9.03564 7.86175 9.05776 7.85902 9.07996 7.85682C9.10217 7.85463 9.12444 7.85302 9.1467 7.85193C9.169 7.85085 9.19129 7.85029 9.21359 7.85029C9.23591 7.85029 9.25824 7.85085 9.28051 7.85196C9.3028 7.85305 9.32504 7.85469 9.34724 7.85688C9.36945 7.85908 9.3916 7.86183 9.41366 7.86512C9.43575 7.8684 9.45772 7.87221 9.47958 7.87657C9.50146 7.88094 9.52323 7.88583 9.54485 7.89125C9.56651 7.89667 9.58801 7.90265 9.60934 7.90912C9.63072 7.9156 9.65191 7.9226 9.67288 7.93013C9.69389 7.93766 9.71469 7.94568 9.73532 7.95424C9.75594 7.96276 9.77633 7.97182 9.79649 7.98137C9.81665 7.99092 9.83657 8.00097 9.85623 8.01148C9.87591 8.022 9.89534 8.03302 9.91444 8.0445C9.9336 8.05596 9.95244 8.06791 9.97098 8.0803C9.98953 8.0927 10.0078 8.10556 10.0257 8.11886C10.0436 8.13216 10.0612 8.1459 10.0784 8.16005C10.0956 8.17423 10.1125 8.18882 10.129 8.20379C10.1456 8.21879 10.1617 8.23417 10.1775 8.24996L15 13.0725L19.8187 8.24996C19.8345 8.23417 19.8506 8.21879 19.8671 8.20379C19.8837 8.18879 19.9005 8.1742 19.9177 8.16005C19.935 8.14587 19.9525 8.13213 19.9704 8.11883C19.9883 8.10553 20.0066 8.09267 20.0251 8.08027C20.0436 8.06785 20.0625 8.0559 20.0816 8.04441C20.1007 8.03293 20.1201 8.02191 20.1397 8.0114C20.1594 8.00088 20.1793 7.99083 20.1994 7.98125C20.2196 7.9717 20.24 7.96265 20.2606 7.95409C20.2812 7.94554 20.302 7.93751 20.3229 7.92998C20.344 7.92245 20.3651 7.91542 20.3864 7.90892C20.4078 7.90244 20.4293 7.89646 20.4509 7.89104C20.4725 7.88559 20.4943 7.88067 20.5161 7.87631C20.538 7.87194 20.56 7.86813 20.5821 7.86482C20.6041 7.86154 20.6262 7.85879 20.6484 7.85659C20.6706 7.85439 20.6929 7.85272 20.7151 7.85161C20.7374 7.8505 20.7597 7.84994 20.782 7.84991C20.8043 7.84988 20.8266 7.85041 20.8489 7.85149C20.8712 7.85258 20.8934 7.85422 20.9156 7.85639C20.9378 7.85855 20.9599 7.86125 20.982 7.8645C21.0041 7.86775 21.026 7.87156 21.0479 7.8759C21.0698 7.88023 21.0915 7.8851 21.1132 7.89052C21.1348 7.89594 21.1563 7.90185 21.1776 7.9083C21.199 7.91477 21.2202 7.92175 21.2412 7.92925C21.2622 7.93675 21.283 7.94475 21.3036 7.95327C21.3242 7.9618 21.3446 7.97082 21.3648 7.98034C21.3849 7.98986 21.4049 7.99988 21.4245 8.0104C21.4442 8.02089 21.4636 8.03188 21.4827 8.04333C21.5019 8.05479 21.5207 8.06668 21.5393 8.07907C21.5579 8.09147 21.5761 8.1043 21.594 8.11757C21.6119 8.13084 21.6295 8.14452 21.6467 8.15867C21.664 8.17282 21.6809 8.18738 21.6974 8.20236C21.714 8.21733 21.7301 8.23268 21.7459 8.24844C21.7617 8.2642 21.7771 8.28034 21.792 8.29687C21.807 8.31339 21.8216 8.33027 21.8357 8.34749C21.8499 8.36475 21.8636 8.3823 21.8769 8.4002C21.8902 8.4181 21.9031 8.43635 21.9155 8.4549C21.9279 8.47344 21.9398 8.49225 21.9513 8.51138C21.9627 8.53051 21.9737 8.54991 21.9843 8.56957C21.9948 8.58922 22.0048 8.60915 22.0143 8.6293C22.0239 8.64946 22.0329 8.66985 22.0415 8.69045C22.05 8.71104 22.0581 8.73184 22.0656 8.75285C22.0731 8.77386 22.0801 8.79501 22.0866 8.81637C22.0931 8.83769 22.099 8.85917 22.1044 8.88082C22.1099 8.90244 22.1148 8.92418 22.1191 8.94606C22.1235 8.96795 22.1273 8.98992 22.1306 9.01198C22.1338 9.03404 22.1366 9.05616 22.1388 9.07837C22.141 9.10055 22.1426 9.12278 22.1437 9.14508C22.1448 9.16735 22.1454 9.18964 22.1454 9.21194C22.1454 9.23423 22.1448 9.25653 22.1437 9.27882C22.1426 9.30109 22.141 9.32332 22.1388 9.3455C22.1367 9.36771 22.1339 9.38983 22.1306 9.41189C22.1274 9.43395 22.1236 9.45592 22.1192 9.47781C22.1149 9.49969 22.11 9.52143 22.1045 9.54308C22.0992 9.5647 22.0932 9.58618 22.0867 9.60754C22.0803 9.62889 22.0733 9.65005 22.0658 9.67105C22.0583 9.69206 22.0502 9.71286 22.0417 9.73345C22.0331 9.75405 22.0241 9.77444 22.0146 9.79463C22.0051 9.81478 21.995 9.83471 21.9845 9.85436C21.974 9.87402 21.963 9.89345 21.9515 9.91258C21.9401 9.93171 21.9281 9.95052 21.9157 9.96906C21.9034 9.98761 21.8905 10.0059 21.8772 10.0238C21.8639 10.0417 21.8502 10.0592 21.8361 10.0765C21.8219 10.0938 21.8074 10.1106 21.7924 10.1271C21.7774 10.1437 21.762 10.1598 21.7462 10.1756L16.9275 14.9981L21.75 19.8187Z"   fill="#FFFFFF" >
</path>
</svg>
