<svg xmlns="http://www.w3.org/2000/svg" xmlns:xlink="http://www.w3.org/1999/xlink" width="24.394447326660156" height="39" viewBox="0 0 24.394447326660156 39" fill="none">
<path d="M4.96457 0.24453L1.404 0.24453C0.628333 0.24453 0 0.905362 0 1.72147L0 20.6653C0 21.4814 0.628333 22.143 1.404 22.143L4.96889 22.143C5.74457 22.143 6.37289 21.4814 6.37289 20.6653L6.37289 1.72147C6.37289 0.905362 5.74457 0.24453 4.96889 0.24453L4.96457 0.24453ZM19.2646 1.05992C19.0457 0.279919 18.2693 -0.167857 17.5269 0.0589194L14.1086 1.1177C14.096 1.12167 14.0835 1.1258 14.071 1.13012C14.0585 1.13444 14.0461 1.13892 14.0337 1.14358C14.0213 1.14823 14.009 1.15306 13.9968 1.15805C13.9846 1.16306 13.9724 1.16823 13.9603 1.17356C13.9482 1.1789 13.9363 1.1844 13.9243 1.19007C13.9124 1.19574 13.9005 1.20157 13.8888 1.20756C13.877 1.21357 13.8653 1.21973 13.8537 1.22605C13.8421 1.23236 13.8306 1.23884 13.8192 1.24549C13.8078 1.25213 13.7964 1.25893 13.7852 1.26588C13.774 1.27284 13.7628 1.27995 13.7518 1.28721C13.7408 1.29447 13.7298 1.30189 13.719 1.30945C13.7082 1.31702 13.6974 1.32473 13.6868 1.33258C13.6762 1.34046 13.6657 1.34846 13.6553 1.3566C13.6449 1.36476 13.6346 1.37307 13.6245 1.38151C13.6143 1.38994 13.6043 1.39852 13.5943 1.40723C13.5844 1.41595 13.5746 1.4248 13.5649 1.43379C13.5552 1.44278 13.5457 1.45191 13.5363 1.46116C13.5268 1.47042 13.5175 1.47981 13.5084 1.48932C13.4992 1.49883 13.4902 1.50847 13.4813 1.51822C13.4724 1.52798 13.4636 1.53787 13.455 1.54787C13.4464 1.55788 13.4378 1.568 13.4295 1.57824C13.4212 1.58848 13.413 1.59883 13.4049 1.60929C13.3968 1.61977 13.3889 1.63035 13.3812 1.64103C13.3734 1.65171 13.3658 1.6625 13.3583 1.6734C13.3508 1.68431 13.3435 1.69531 13.3364 1.70641C13.3292 1.71752 13.3222 1.72871 13.3153 1.74C13.3085 1.75129 13.3018 1.76268 13.2953 1.77415C13.2887 1.78563 13.2823 1.7972 13.2761 1.80886C13.2699 1.82053 13.2639 1.83226 13.258 1.84408C13.2521 1.85591 13.2464 1.86782 13.2408 1.8798C13.2352 1.89179 13.2298 1.90385 13.2246 1.91598C13.2194 1.92811 13.2143 1.9403 13.2094 1.95257L13.13 2.2617C13.1245 2.29007 13.1199 2.31858 13.116 2.34722C13.1122 2.37588 13.1093 2.40461 13.1072 2.43342C13.1051 2.46224 13.1039 2.49111 13.1035 2.52C13.1031 2.54889 13.1036 2.57778 13.1049 2.60662C13.1062 2.63552 13.1085 2.66431 13.1115 2.69305C13.1145 2.7218 13.1184 2.75041 13.1232 2.7789C13.128 2.80741 13.1335 2.83575 13.14 2.86393C13.1464 2.89212 13.1537 2.92007 13.1618 2.9478L18.2376 21.1268C18.3416 21.5017 18.5828 21.8173 18.9078 22.0058C18.9995 22.0578 19.0956 22.0989 19.1959 22.1285C19.4502 22.2051 19.7203 22.2051 19.9752 22.1278L23.3899 21.0633C23.7517 20.9549 24.055 20.6942 24.2291 20.3425C24.401 20.0038 24.4407 19.608 24.3396 19.2382L19.2646 1.05992ZM13.0498 1.7222C13.0498 0.906073 12.4215 0.24453 11.6466 0.24453L8.08599 0.24453C7.31033 0.24453 6.68199 0.906073 6.68199 1.7222L6.68199 20.6653C6.68199 21.4814 7.31033 22.143 8.08528 22.143L11.6509 22.143C12.4266 22.143 13.0549 21.4814 13.0549 20.6653L13.0498 1.72147L13.0498 1.7222Z"   fill="#59ADF8" >
</path>
<path d="M4.21777 18.6568C4.22067 19.3083 3.71006 19.8391 3.07667 19.842C2.44398 19.8449 1.92833 19.3184 1.92617 18.6662C1.92327 18.0148 2.43462 17.4839 3.06727 17.4818L3.07233 17.4818C3.70356 17.4818 4.21562 18.0068 4.21848 18.6568L4.21777 18.6568ZM10.9821 18.6568C10.9843 19.3083 10.4737 19.8391 9.841 19.842C9.2076 19.8449 8.69266 19.3184 8.68976 18.6662C8.68687 18.0148 9.19823 17.4839 9.83087 17.4818L9.84026 17.4818C10.4708 17.4818 10.9814 18.0075 10.9814 18.6568L10.9821 18.6568ZM21.827 18.1289C21.8299 18.7803 21.3186 19.3112 20.6859 19.3133C20.0525 19.3169 19.5376 18.7904 19.5347 18.1383C19.5318 17.4861 20.0431 16.956 20.6758 16.9531L20.6859 16.9531C21.3164 16.9531 21.827 17.4796 21.827 18.1289Z"   fill="#FFFFFF" >
</path>
<g >
<path     fill="#FFFFFF"  d="M3.948 31.484L6.708 31.484L6.708 30.968L4.116 30.968L4.116 25.796L11.076 25.796L11.076 30.968L8.436 30.968L8.436 31.484L11.244 31.484L11.244 32.696L10.308 32.696L11.508 36.344L9.732 36.344L8.676 32.696L8.436 32.696L8.436 36.488L6.708 36.488L6.708 32.696L6.516 32.696L5.664 36.308L3.852 36.308L4.836 32.696L3.948 32.696L3.948 31.484ZM3.996 34.22L3.996 35.648L1.332 36.512L1.332 29.912L0.696 29.912L0.696 28.58L3.12 28.58L3.12 34.484L3.996 34.22ZM2.556 25.76L3.12 27.776L1.188 27.776L0.612 25.76L2.556 25.76ZM9.288 29.828L9.288 28.856L8.436 28.856L8.436 29.828L9.288 29.828ZM6.708 29.828L6.708 28.856L5.94 28.856L5.94 29.828L6.708 29.828ZM8.436 26.936L8.436 27.644L9.288 27.644L9.288 26.936L8.436 26.936ZM5.94 27.644L6.708 27.644L6.708 26.936L5.94 26.936L5.94 27.644ZM19.224 32.792L19.224 31.676L17.316 31.676L17.316 30.416L23.184 30.416L23.184 31.676L21.012 31.676L21.012 32.792L23.064 32.792L23.064 34.016L21.012 34.016L21.012 35.18L23.46 35.18L23.46 36.416L17.22 36.416L17.22 35.18L19.224 35.18L19.224 34.016L17.508 34.016L17.508 32.792L19.224 32.792ZM15.6 27.2L15.6 28.34L17.004 28.34L17.004 29.672L15.6 29.672L15.6 36.5L14.148 36.5L14.148 29.672L12.6 29.672L12.6 28.34L14.148 28.34L14.148 27.38L12.708 27.56L12.708 26.168L16.896 25.676L16.896 27.032L15.6 27.2ZM23.076 25.868L23.076 29.792L17.232 29.792L17.232 25.868L23.076 25.868ZM12.468 36.02L12.84 30.176L14.052 30.176L13.704 36.02L12.468 36.02ZM16.86 30.176L17.148 36.02L15.984 36.02L15.72 30.176L16.86 30.176ZM19.008 27.092L19.008 28.592L21.204 28.592L21.204 27.092L19.008 27.092Z">
</path>
</g>
</svg>
