<svg xmlns="http://www.w3.org/2000/svg" xmlns:xlink="http://www.w3.org/1999/xlink" width="24" height="40" viewBox="0 0 24 40" fill="none">
<rect x="3" y="12" width="17" height="10"   fill="#FFFFFF" >
</rect>
<path d="M17.763 5.03742C17.748 5.03742 17.733 5.03704 17.718 5.03631C17.703 5.03557 17.6881 5.03446 17.6732 5.033C17.6582 5.03153 17.6434 5.02968 17.6285 5.02749C17.6137 5.02529 17.5989 5.02271 17.5842 5.01978C17.5695 5.01688 17.5549 5.0136 17.5403 5.00994C17.5258 5.00628 17.5113 5.00229 17.4969 4.99796C17.4826 4.99359 17.4684 4.9889 17.4542 4.98383C17.4401 4.97877 17.4261 4.97338 17.4123 4.96763C17.3984 4.96189 17.3847 4.95583 17.3711 4.94941C17.3576 4.943 17.3442 4.93626 17.331 4.9292C17.3177 4.92214 17.3047 4.91472 17.2918 4.90702C17.279 4.89931 17.2663 4.89129 17.2538 4.88294C17.2414 4.87462 17.2291 4.86597 17.217 4.85704C17.205 4.8481 17.1932 4.8389 17.1816 4.82938C17.17 4.81986 17.1586 4.81005 17.1475 4.8C17.1364 4.78992 17.1255 4.77958 17.1149 4.76897C17.1043 4.75837 17.094 4.7475 17.0839 4.73639C17.0738 4.72529 17.064 4.71392 17.0545 4.70232C17.045 4.69075 17.0358 4.67891 17.0268 4.66687C17.0179 4.65483 17.0093 4.64256 17.0009 4.63008C16.9926 4.61762 16.9846 4.60494 16.9769 4.59208C16.9692 4.57922 16.9618 4.56615 16.9547 4.55294C16.9477 4.53972 16.9409 4.52634 16.9345 4.51277C16.9281 4.49921 16.922 4.4855 16.9163 4.47164C16.9105 4.45778 16.9051 4.44378 16.9001 4.42966C16.895 4.41553 16.8903 4.4013 16.886 4.38694C16.8816 4.37261 16.8776 4.35817 16.874 4.34361C16.8703 4.32905 16.867 4.31443 16.8641 4.29969C16.8612 4.28499 16.8586 4.27022 16.8564 4.2554C16.8542 4.24054 16.8524 4.22566 16.8509 4.21075C16.8494 4.19581 16.8483 4.18084 16.8476 4.16587C16.8469 4.1509 16.8465 4.1359 16.8465 4.1209L16.8465 0.880898C16.8471 0.866288 16.848 0.851689 16.8493 0.837099C16.8506 0.82253 16.8523 0.807987 16.8542 0.793476C16.8562 0.778983 16.8586 0.76454 16.8612 0.750146C16.8639 0.735753 16.8669 0.721435 16.8703 0.707197C16.8736 0.692938 16.8773 0.678779 16.8814 0.664716C16.8854 0.650654 16.8898 0.636688 16.8945 0.622822C16.8992 0.608956 16.9043 0.595215 16.9096 0.581601C16.915 0.567987 16.9207 0.554502 16.9267 0.541142C16.9327 0.527803 16.939 0.514608 16.9456 0.501562C16.9523 0.488516 16.9592 0.475634 16.9665 0.46292C16.9737 0.450225 16.9813 0.437695 16.9891 0.425332C16.997 0.412989 17.0051 0.400831 17.0136 0.388857C17.022 0.376904 17.0307 0.365156 17.0397 0.353613C17.0487 0.34207 17.058 0.330753 17.0675 0.319658C17.0771 0.308546 17.0869 0.297677 17.097 0.287051C17.107 0.276406 17.1173 0.266015 17.1279 0.255879C17.1384 0.245742 17.1492 0.235869 17.1603 0.22626C17.1713 0.216631 17.1825 0.207275 17.194 0.198193C17.2055 0.189111 17.2172 0.180303 17.2291 0.171767C17.241 0.163252 17.2531 0.15502 17.2654 0.14707C17.2777 0.139121 17.2901 0.131474 17.3028 0.124131C17.3155 0.116767 17.3283 0.109717 17.3413 0.102978C17.3543 0.0962598 17.3674 0.0898438 17.3807 0.0837304C17.394 0.077617 17.4075 0.0718262 17.421 0.0663574C17.4346 0.0609082 17.4483 0.0557713 17.4621 0.0509472C17.476 0.0461426 17.4899 0.0416698 17.5039 0.0375293C17.518 0.0333885 17.5321 0.0295802 17.5463 0.0261035C17.5606 0.0226466 17.5748 0.0195216 17.5892 0.0167285C17.6036 0.0139551 17.618 0.0115234 17.6325 0.00943356C17.647 0.00734367 17.6615 0.00559576 17.6761 0.00418939C17.6906 0.00280268 17.7052 0.00175774 17.7199 0.00105478C17.7345 0.000351592 17.7491 0 17.7638 0C17.7784 0 17.793 0.000351592 17.8076 0.00105478C17.8223 0.00175774 17.8369 0.00280268 17.8514 0.00418939C17.866 0.00559576 17.8805 0.00734367 17.895 0.00943356C17.9095 0.0115234 17.9239 0.0139551 17.9383 0.0167285C17.9527 0.0195216 17.967 0.0226466 17.9812 0.0261035C17.9954 0.0295802 18.0095 0.0333885 18.0236 0.0375293C18.0376 0.0416698 18.0515 0.0461426 18.0654 0.0509472C18.0792 0.0557713 18.0929 0.0609082 18.1065 0.0663574C18.12 0.0718262 18.1335 0.077617 18.1468 0.0837304C18.1601 0.0898438 18.1733 0.0962598 18.1862 0.102978C18.1992 0.109717 18.2121 0.116767 18.2247 0.124131C18.2374 0.131474 18.2498 0.139121 18.2622 0.14707C18.2744 0.15502 18.2865 0.163252 18.2984 0.171767C18.3103 0.180303 18.322 0.189111 18.3335 0.198193C18.345 0.207275 18.3562 0.216631 18.3672 0.22626C18.3783 0.235869 18.3891 0.245742 18.3996 0.255879C18.4102 0.266015 18.4205 0.276406 18.4305 0.287051C18.4406 0.297677 18.4504 0.308546 18.46 0.319658C18.4695 0.330753 18.4788 0.34207 18.4878 0.353613C18.4968 0.365156 18.5055 0.376904 18.5139 0.388857C18.5224 0.400831 18.5305 0.412989 18.5384 0.425332C18.5462 0.437695 18.5538 0.450225 18.561 0.46292C18.5683 0.475634 18.5752 0.488516 18.5819 0.501562C18.5885 0.514608 18.5948 0.527803 18.6009 0.541142C18.6068 0.554502 18.6125 0.567987 18.6179 0.581601C18.6233 0.595215 18.6283 0.608956 18.633 0.622822C18.6377 0.636688 18.6421 0.650654 18.6461 0.664716C18.6502 0.678779 18.6539 0.692938 18.6572 0.707197C18.6606 0.721435 18.6636 0.735753 18.6663 0.750146C18.669 0.76454 18.6713 0.778983 18.6733 0.793476C18.6752 0.807987 18.6769 0.82253 18.6782 0.837099C18.6795 0.851689 18.6804 0.866288 18.681 0.880898L18.681 4.1209C18.681 4.13593 18.6806 4.15093 18.6798 4.1659C18.6791 4.1809 18.6779 4.19587 18.6764 4.21078C18.675 4.22572 18.6731 4.2406 18.6709 4.25546C18.6686 4.27031 18.6661 4.28508 18.6631 4.29978C18.6602 4.31452 18.6568 4.32914 18.6532 4.3437C18.6495 4.35826 18.6455 4.3727 18.6411 4.38706C18.6368 4.40141 18.632 4.41565 18.627 4.42977C18.6219 4.44389 18.6165 4.4579 18.6107 4.47176C18.6049 4.48561 18.5988 4.49932 18.5924 4.51289C18.586 4.52645 18.5792 4.53984 18.5721 4.55305C18.565 4.56627 18.5576 4.57933 18.5499 4.59219C18.5422 4.60506 18.5341 4.61774 18.5258 4.63019C18.5174 4.64267 18.5088 4.65492 18.4998 4.66696C18.4909 4.679 18.4816 4.69084 18.4721 4.70244C18.4626 4.71401 18.4527 4.72538 18.4426 4.73648C18.4326 4.74758 18.4222 4.75845 18.4116 4.76906C18.401 4.77966 18.3901 4.79001 18.379 4.80009C18.3679 4.81013 18.3565 4.81992 18.3449 4.82944C18.3333 4.83896 18.3214 4.84819 18.3094 4.85713C18.2973 4.86606 18.285 4.87467 18.2726 4.883C18.2601 4.89134 18.2474 4.89937 18.2345 4.90708C18.2216 4.91478 18.2086 4.92216 18.1953 4.92923C18.1821 4.93629 18.1687 4.94302 18.1551 4.94944C18.1416 4.95586 18.1278 4.96195 18.114 4.96766C18.1001 4.97341 18.0861 4.9788 18.072 4.98386C18.0578 4.9889 18.0436 4.99359 18.0292 4.99796C18.0149 5.00232 18.0004 5.00631 17.9858 5.00994C17.9713 5.0136 17.9566 5.01688 17.9419 5.01981C17.9272 5.02274 17.9124 5.02529 17.8976 5.02749C17.8827 5.02968 17.8678 5.03153 17.8529 5.033C17.838 5.03446 17.823 5.03557 17.808 5.03631C17.793 5.03704 17.778 5.03742 17.763 5.03742Z"   fill="#59ADF8" >
</path>
<path d="M19.884 1.63542L19.884 4.12091C19.884 5.17091 18.816 6.03042 17.763 6.03042C16.71 6.03042 15.642 5.17393 15.642 4.12091L15.642 1.62192L7.84201 1.62192L7.84201 4.12091C7.84201 5.17091 6.77399 6.03042 5.71951 6.03042C4.665 6.03042 3.6 5.17393 3.6 4.12091L3.6 1.62643C3.5402 1.62881 3.48052 1.63263 3.42091 1.63788C3.36129 1.64314 3.30184 1.64982 3.24255 1.65792C3.18328 1.66601 3.12422 1.67552 3.06536 1.68646C3.00653 1.69738 2.948 1.7097 2.88975 1.72343C2.83151 1.73716 2.77363 1.75227 2.71611 1.76875C2.65859 1.78526 2.6015 1.80313 2.54484 1.82237C2.48818 1.84159 2.43201 1.86215 2.37633 1.88407C2.32064 1.906 2.26552 1.92924 2.21095 1.95379C2.15638 1.97836 2.10243 2.00421 2.04911 2.03134C1.99577 2.05849 1.94311 2.08689 1.89114 2.11654C1.83919 2.14621 1.78796 2.17709 1.73745 2.2092C1.68696 2.24133 1.63727 2.27464 1.58839 2.30913C1.53948 2.34363 1.49144 2.37927 1.44425 2.41607C1.39706 2.45284 1.35078 2.49075 1.30541 2.52977C1.26002 2.56877 1.2156 2.60884 1.17214 2.64997C1.12868 2.69111 1.08623 2.73326 1.04478 2.77642C1.00336 2.81958 0.962979 2.86372 0.923642 2.90884C0.884325 2.95394 0.846105 2.99995 0.808974 3.04686C0.771846 3.09379 0.735861 3.14158 0.701015 3.19024C0.666193 3.23889 0.63254 3.28835 0.600058 3.33863C0.567597 3.38888 0.536349 3.43988 0.506308 3.49164C0.476291 3.54342 0.447521 3.59587 0.42 3.649C0.392481 3.70214 0.366252 3.75591 0.341308 3.8103C0.316368 3.8647 0.292745 3.91965 0.27044 3.97516C0.248116 4.03068 0.227139 4.08671 0.20751 4.14323C0.187882 4.19978 0.16962 4.25675 0.152725 4.31415C0.135811 4.37155 0.120294 4.42933 0.106173 4.48747C0.0920322 4.54562 0.0792878 4.60407 0.0679403 4.66281C0.0566124 4.72155 0.0466904 4.78056 0.0381747 4.8398C0.029659 4.89901 0.0225594 4.95842 0.0168758 5.01798C0.0112118 5.07754 0.0069735 5.13722 0.004161 5.19701C0.00134848 5.25678 -3.82216e-05 5.31657 8.9407e-07 5.37643L8.9407e-07 8.30441L23.34 8.30441L23.34 5.36893C23.3399 5.31066 23.3385 5.25244 23.3357 5.19426C23.3329 5.13608 23.3287 5.07798 23.3233 5.02C23.3178 4.96202 23.3109 4.90419 23.3027 4.84651C23.2945 4.78882 23.285 4.73137 23.2741 4.67415C23.2633 4.61694 23.2511 4.55998 23.2375 4.50332C23.224 4.44664 23.2092 4.39032 23.193 4.33437C23.1769 4.27839 23.1594 4.22283 23.1407 4.16767C23.122 4.11251 23.102 4.05783 23.0807 4.00361C23.0594 3.94939 23.0368 3.89568 23.0131 3.8425C22.9893 3.78934 22.9642 3.73675 22.938 3.68474C22.9118 3.63273 22.8843 3.58136 22.8557 3.53064C22.8271 3.4799 22.7973 3.42986 22.7663 3.38052C22.7354 3.33118 22.7032 3.28259 22.67 3.23474C22.6368 3.18689 22.6025 3.13985 22.567 3.09362C22.5316 3.04737 22.4951 3.00197 22.4576 2.95741C22.4201 2.91286 22.3815 2.86922 22.3419 2.82649C22.3023 2.78373 22.2618 2.74193 22.2203 2.70107C22.1788 2.66021 22.1363 2.62033 22.093 2.58145C22.0496 2.54256 22.0053 2.50471 21.9602 2.46789C21.915 2.43108 21.869 2.39533 21.8223 2.36067C21.7754 2.32598 21.7279 2.29241 21.6795 2.25997C21.6311 2.22751 21.582 2.19619 21.5322 2.16602C21.4824 2.13584 21.4318 2.10685 21.3807 2.07904C21.3295 2.05123 21.2777 2.02461 21.2252 1.9992C21.1728 1.97381 21.1198 1.94965 21.0663 1.92672C21.0128 1.90377 20.9587 1.88209 20.9042 1.86168C20.8496 1.84127 20.7946 1.82214 20.7391 1.80429C20.6837 1.78644 20.6279 1.76989 20.5716 1.75463C20.5154 1.7394 20.4588 1.72547 20.402 1.71286C20.3451 1.70024 20.288 1.68895 20.2306 1.67899C20.1732 1.66905 20.1156 1.66044 20.0578 1.65318C20 1.64591 19.9421 1.63999 19.884 1.63542Z"   fill="#3A9CED" >
</path>
<path d="M5.72249 5.03742C5.70749 5.03739 5.69251 5.03698 5.67755 5.03622C5.66257 5.03549 5.64762 5.03434 5.6327 5.03285C5.61778 5.03136 5.6029 5.02951 5.58808 5.02728C5.57326 5.02509 5.55849 5.02251 5.54378 5.01955C5.5291 5.01659 5.51448 5.01331 5.49993 5.00965C5.48539 5.00598 5.47096 5.00197 5.45662 4.99761C5.44227 4.99324 5.42804 4.98852 5.41394 4.98346C5.39982 4.97839 5.38583 4.973 5.37199 4.96725C5.35814 4.96148 5.34445 4.95542 5.33091 4.949C5.31736 4.94259 5.30397 4.93582 5.29075 4.92876C5.27752 4.92167 5.26449 4.91426 5.25163 4.90655C5.23878 4.89885 5.22613 4.89082 5.21367 4.8825C5.20121 4.87415 5.18896 4.86554 5.17693 4.8566C5.16488 4.84766 5.15306 4.83844 5.14148 4.82891C5.1299 4.81939 5.11855 4.80961 5.10744 4.79953C5.09632 4.78948 5.08546 4.77914 5.07486 4.76853C5.06427 4.75793 5.05394 4.74706 5.04386 4.73596C5.0338 4.72485 5.02401 4.71351 5.01448 4.70191C5.00496 4.69034 4.99575 4.67853 4.98682 4.66649C4.97787 4.65445 4.96924 4.64218 4.96092 4.62973C4.95258 4.61727 4.94455 4.60462 4.93684 4.59176C4.92912 4.5789 4.92173 4.56586 4.91466 4.55265C4.90757 4.53943 4.90082 4.52604 4.89442 4.51251C4.88799 4.49894 4.88191 4.48526 4.87617 4.47141C4.8704 4.45755 4.86499 4.44357 4.85994 4.42948C4.85488 4.41536 4.85016 4.40112 4.84578 4.3868C4.84143 4.37244 4.83742 4.358 4.83374 4.34347C4.83009 4.32893 4.82679 4.31432 4.82384 4.29961C4.82091 4.2849 4.81833 4.27014 4.81611 4.25531C4.81388 4.24049 4.81203 4.2256 4.81054 4.21069C4.80906 4.19578 4.80793 4.18084 4.80717 4.16587C4.80641 4.1509 4.80602 4.1359 4.806 4.1209L4.806 0.880898C4.80659 0.866288 4.80752 0.851689 4.80881 0.837099C4.8101 0.82253 4.81174 0.807987 4.81373 0.793476C4.81571 0.778983 4.81804 0.76454 4.82074 0.750146C4.82341 0.735753 4.82643 0.721435 4.82979 0.707197C4.83315 0.692938 4.83685 0.678779 4.84089 0.664717C4.84492 0.650654 4.84928 0.636688 4.85399 0.622822C4.8587 0.608956 4.86373 0.595216 4.86911 0.581601C4.87448 0.567987 4.88016 0.554502 4.88616 0.541142C4.89217 0.527804 4.8985 0.514608 4.90514 0.501562C4.91178 0.488516 4.91873 0.475643 4.92597 0.462949C4.93324 0.450234 4.94079 0.437695 4.94865 0.425332C4.9565 0.412989 4.96464 0.40084 4.97308 0.388887C4.98152 0.376913 4.99024 0.365156 4.99924 0.353613C5.00825 0.34207 5.01751 0.330753 5.02704 0.319658C5.03658 0.308546 5.04638 0.297677 5.05646 0.287051C5.06652 0.276426 5.07682 0.266045 5.08737 0.255908C5.09793 0.245771 5.10872 0.235889 5.11974 0.22626C5.13078 0.216631 5.14204 0.207275 5.15352 0.198193C5.16498 0.189111 5.17667 0.180303 5.18859 0.171768C5.20048 0.163252 5.21257 0.15502 5.22486 0.14707C5.23714 0.139121 5.24962 0.131474 5.2623 0.124131C5.27495 0.116787 5.28778 0.109746 5.30077 0.103008C5.31375 0.0962695 5.3269 0.0898438 5.3402 0.0837304C5.3535 0.0776171 5.36695 0.0718359 5.38054 0.0663867C5.39411 0.0609179 5.40782 0.0557812 5.42164 0.0509765C5.43545 0.0461522 5.44938 0.0416698 5.46342 0.0375293C5.47746 0.0333885 5.4916 0.0295898 5.50581 0.0261327C5.52003 0.0226562 5.53433 0.0195312 5.5487 0.0167578C5.56308 0.0139649 5.5775 0.0115234 5.59198 0.00943356C5.60647 0.00734367 5.621 0.00559576 5.63557 0.00418939C5.65014 0.00280268 5.66474 0.00175774 5.67937 0.00105478C5.69398 0.000351592 5.70861 0 5.72326 0C5.73788 0 5.75251 0.000351592 5.76714 0.00105478C5.78175 0.00175774 5.79634 0.00280268 5.81091 0.00418939C5.82548 0.00559576 5.84001 0.00734367 5.85451 0.00943356C5.869 0.0115234 5.88342 0.0139649 5.89778 0.0167578C5.91215 0.0195312 5.92645 0.0226562 5.94067 0.0261327C5.95489 0.0295898 5.96902 0.0333885 5.98306 0.0375293C5.9971 0.0416698 6.01104 0.0461522 6.02487 0.0509765C6.03867 0.0557812 6.05238 0.0609179 6.06597 0.0663867C6.07954 0.0718359 6.09298 0.0776171 6.10628 0.0837304C6.11958 0.0898438 6.13273 0.0962695 6.14572 0.103008C6.15872 0.109746 6.17156 0.116787 6.18421 0.124131C6.19687 0.131474 6.20934 0.139121 6.22162 0.14707C6.23393 0.15502 6.24603 0.163252 6.25792 0.171768C6.26982 0.180303 6.28151 0.189111 6.29299 0.198193C6.30446 0.207275 6.31571 0.216631 6.32674 0.22626C6.33778 0.235889 6.34857 0.245771 6.35911 0.255908C6.36968 0.266045 6.37999 0.276426 6.39005 0.287051C6.40011 0.297677 6.40991 0.308546 6.41944 0.319658C6.42899 0.330753 6.43826 0.34207 6.44724 0.353613C6.45624 0.365156 6.46496 0.376913 6.4734 0.388887C6.48184 0.40084 6.48998 0.412989 6.49784 0.425332C6.50571 0.437695 6.51327 0.450234 6.52051 0.462949C6.52776 0.475643 6.5347 0.488516 6.54134 0.501562C6.54798 0.514608 6.55431 0.527804 6.56033 0.541142C6.56634 0.554502 6.57202 0.567987 6.57738 0.581601C6.58275 0.595216 6.58779 0.608956 6.59249 0.622822C6.5972 0.636688 6.60158 0.650654 6.60562 0.664717C6.60964 0.678779 6.61334 0.692938 6.61672 0.707197C6.62008 0.721435 6.6231 0.735753 6.62577 0.750146C6.62845 0.76454 6.63078 0.778983 6.63275 0.793476C6.63474 0.807987 6.63638 0.82253 6.63767 0.837099C6.63896 0.851689 6.6399 0.866288 6.64048 0.880898L6.64048 4.1209C6.64046 4.13593 6.64007 4.15093 6.63931 4.1659C6.63855 4.1809 6.63743 4.19587 6.63594 4.21078C6.63444 4.22572 6.63258 4.2406 6.63037 4.25546C6.62815 4.27031 6.62556 4.28508 6.62261 4.29978C6.61966 4.31452 6.61635 4.32914 6.61268 4.3437C6.60901 4.35826 6.60498 4.3727 6.60061 4.38706C6.59623 4.40141 6.59151 4.41565 6.58643 4.42977C6.58137 4.4439 6.57596 4.4579 6.5702 4.47176C6.56444 4.48561 6.55833 4.49932 6.55189 4.51289C6.54546 4.52645 6.5387 4.53984 6.53161 4.55306C6.52452 4.56627 6.51711 4.57933 6.50938 4.5922C6.50164 4.60506 6.49361 4.61774 6.48527 4.63019C6.47691 4.64267 6.46825 4.65492 6.45931 4.66696C6.45037 4.679 6.44112 4.69084 6.43159 4.70244C6.42206 4.71401 6.41225 4.72538 6.40215 4.73648C6.39207 4.74759 6.38172 4.75846 6.3711 4.76906C6.36047 4.77967 6.34959 4.79001 6.33846 4.80009C6.32733 4.81014 6.31596 4.81992 6.30436 4.82944C6.29276 4.83896 6.28092 4.84819 6.26885 4.85713C6.2568 4.86606 6.24453 4.87468 6.23202 4.883C6.21954 4.89135 6.20687 4.89937 6.194 4.90708C6.18113 4.91478 6.16807 4.92217 6.15483 4.92923C6.14159 4.93629 6.12818 4.94303 6.1146 4.94944C6.10103 4.95586 6.08731 4.96195 6.07344 4.96766C6.05957 4.97341 6.04558 4.9788 6.03146 4.98387C6.01732 4.9889 6.00307 4.99359 5.98871 4.99796C5.97434 5.00232 5.95988 5.00631 5.94533 5.00994C5.93076 5.0136 5.91612 5.01688 5.90141 5.01981C5.88668 5.02274 5.8719 5.02529 5.85705 5.02749C5.84221 5.02969 5.82732 5.03153 5.81238 5.033C5.79743 5.03446 5.78248 5.03557 5.76749 5.03631C5.75249 5.03704 5.73749 5.03742 5.72249 5.03742Z"   fill="#6BC2FC" >
</path>
<path d="M18.0675 6.00493C17.9682 6.0214 17.8682 6.02989 17.7675 6.03042C16.7175 6.03042 15.6465 5.17393 15.6465 4.12091L15.6465 1.62192L7.84649 1.62192L7.84649 4.12091C7.84649 5.17091 6.7785 6.03042 5.72399 6.03042C4.66951 6.03042 3.6 5.17393 3.6 4.12091L3.6 1.62643C3.5402 1.62881 3.48053 1.63263 3.42091 1.63788C3.36129 1.64314 3.30184 1.64982 3.24255 1.65792C3.18328 1.66601 3.12422 1.67552 3.06536 1.68646C3.00653 1.69738 2.948 1.7097 2.88975 1.72343C2.83151 1.73716 2.77363 1.75227 2.71611 1.76875C2.65859 1.78526 2.6015 1.80313 2.54484 1.82237C2.48818 1.84159 2.43201 1.86215 2.37633 1.88407C2.32065 1.906 2.26552 1.92924 2.21095 1.95379C2.15638 1.97836 2.10243 2.00421 2.04911 2.03134C1.99577 2.05849 1.94311 2.0869 1.89114 2.11657C1.83919 2.14621 1.78796 2.17709 1.73745 2.2092C1.68696 2.24133 1.63728 2.27464 1.58839 2.30913C1.53948 2.34363 1.49144 2.37927 1.44425 2.41607C1.39706 2.45284 1.35078 2.49075 1.30541 2.52977C1.26002 2.56877 1.2156 2.60884 1.17214 2.64997C1.12868 2.69111 1.08623 2.73326 1.04478 2.77642C1.00336 2.81958 0.962979 2.86372 0.923642 2.90884C0.884308 2.95394 0.846085 2.99995 0.808974 3.04689C0.771846 3.0938 0.735861 3.14158 0.701015 3.19024C0.666193 3.23889 0.63254 3.28835 0.600058 3.33863C0.567597 3.38888 0.536349 3.43988 0.506308 3.49164C0.476291 3.54342 0.447521 3.59587 0.42 3.649C0.392481 3.70214 0.366252 3.75591 0.341308 3.8103C0.316368 3.8647 0.292745 3.91965 0.27044 3.97516C0.248116 4.03068 0.227139 4.08671 0.207511 4.14323C0.187882 4.19978 0.16962 4.25675 0.152725 4.31415C0.135811 4.37155 0.120294 4.42933 0.106173 4.48747C0.0920323 4.54562 0.0792879 4.60407 0.0679403 4.66281C0.0566124 4.72155 0.0466904 4.78056 0.0381747 4.8398C0.029659 4.89901 0.0225594 4.95842 0.0168758 5.01798C0.0112119 5.07754 0.0069735 5.13722 0.004161 5.19701C0.00134848 5.25678 -3.82216e-05 5.31657 8.9407e-07 5.37643L8.9407e-07 8.30441L16.938 8.30441C17.1523 7.93454 17.3538 7.55778 17.5422 7.17408C17.7307 6.79038 17.9058 6.40065 18.0675 6.00493Z"   fill="#59ADF8" >
</path>
<path d="M11.664 1.62192L7.8435 1.62192L7.8435 4.12091C7.8435 5.17091 6.77549 6.03042 5.721 6.03042C4.66649 6.03042 3.6 5.17393 3.6 4.12091L3.6 1.62643C3.5402 1.62881 3.48053 1.63263 3.42091 1.63788C3.36129 1.64314 3.30184 1.64982 3.24255 1.65792C3.18328 1.66601 3.12422 1.67552 3.06536 1.68646C3.00653 1.69738 2.948 1.7097 2.88976 1.72343C2.83151 1.73716 2.77363 1.75227 2.71611 1.76875C2.65859 1.78526 2.6015 1.80313 2.54484 1.82237C2.48818 1.84159 2.43201 1.86215 2.37633 1.88407C2.32065 1.906 2.26552 1.92924 2.21095 1.95379C2.15638 1.97836 2.10243 2.00421 2.04911 2.03134C1.99577 2.05849 1.94311 2.0869 1.89114 2.11657C1.83919 2.14621 1.78796 2.17709 1.73745 2.2092C1.68696 2.24133 1.63728 2.27464 1.58839 2.30913C1.53948 2.34363 1.49144 2.37927 1.44425 2.41607C1.39706 2.45284 1.35078 2.49075 1.30541 2.52977C1.26002 2.56877 1.2156 2.60884 1.17214 2.64997C1.12868 2.69111 1.08623 2.73326 1.04478 2.77642C1.00336 2.81958 0.962979 2.86372 0.923642 2.90884C0.884308 2.95394 0.846085 2.99995 0.808974 3.04689C0.771846 3.0938 0.735861 3.14158 0.701015 3.19024C0.666193 3.23889 0.63254 3.28835 0.600058 3.33863C0.567598 3.38888 0.536349 3.43989 0.506308 3.49164C0.476291 3.54342 0.447521 3.59587 0.42 3.649C0.392481 3.70214 0.366252 3.75591 0.341309 3.81031C0.316368 3.8647 0.292745 3.91965 0.27044 3.97516C0.248116 4.03069 0.227139 4.08671 0.207511 4.14324C0.187882 4.19978 0.16962 4.25675 0.152725 4.31415C0.135811 4.37155 0.120294 4.42933 0.106173 4.48747C0.0920323 4.54562 0.0792879 4.60408 0.0679403 4.66282C0.0566124 4.72156 0.0466904 4.78056 0.0381747 4.8398C0.029659 4.89901 0.0225594 4.95842 0.0168758 5.01798C0.0112119 5.07754 0.0069735 5.13722 0.004161 5.19701C0.00134848 5.25678 -3.82216e-05 5.31658 8.9407e-07 5.37643L8.9407e-07 8.30442L4.65 8.30442C4.73962 8.25558 4.82886 8.20598 4.91765 8.15565C5.00648 8.10534 5.09487 8.05428 5.18285 8.00251C5.27083 7.95074 5.3584 7.89827 5.4455 7.84504C5.53263 7.79184 5.61932 7.73793 5.70554 7.68332C5.79179 7.62868 5.87757 7.57337 5.96291 7.51733C6.04822 7.46131 6.13309 7.40459 6.2175 7.34717C6.3019 7.28975 6.38581 7.23165 6.46928 7.17285C6.55271 7.11406 6.63568 7.05458 6.71815 6.99444C6.80062 6.93429 6.8826 6.87344 6.96407 6.81195C7.04555 6.75045 7.12652 6.68831 7.207 6.62547C7.28745 6.56266 7.3674 6.49917 7.44682 6.43504C7.52625 6.37091 7.60512 6.30614 7.68348 6.24072C7.76185 6.1753 7.83967 6.10923 7.91692 6.04252C7.99421 5.97581 8.07094 5.90849 8.14711 5.84055C8.22328 5.77261 8.29889 5.70403 8.37395 5.63483C8.44901 5.56563 8.52348 5.49581 8.5974 5.42541C8.67132 5.35501 8.74462 5.284 8.81736 5.21237C8.89011 5.14074 8.96226 5.06855 9.03384 4.99575C9.10541 4.92294 9.17636 4.84958 9.24671 4.77561C9.31705 4.70163 9.3868 4.6271 9.45595 4.55201C9.52509 4.47692 9.59361 4.40125 9.66149 4.32502C9.7294 4.24879 9.79667 4.17201 9.86332 4.09469C9.92997 4.01737 9.99597 3.93951 10.0613 3.86111C10.1267 3.78269 10.1914 3.70374 10.2555 3.62427C10.3196 3.5448 10.383 3.46482 10.4457 3.38433C10.5085 3.30382 10.5706 3.22281 10.632 3.14128C10.6935 3.05974 10.7542 2.97771 10.8143 2.89519C10.8744 2.81267 10.9338 2.72967 10.9926 2.64619C11.0513 2.5627 11.1093 2.47873 11.1667 2.39427C11.224 2.30984 11.2807 2.22494 11.3367 2.13956C11.3926 2.05419 11.4479 1.96836 11.5024 1.88207C11.557 1.7958 11.6109 1.70909 11.664 1.62192Z"   fill="#6BC2FC" >
</path>
<path d="M0.00750732 10.1779L0.00750732 19.9849C0.00750732 20.0463 0.00901137 20.1076 0.012019 20.1689C0.0150269 20.2302 0.0195386 20.2914 0.0255543 20.3525C0.0315699 20.4136 0.0390797 20.4744 0.0480835 20.5351C0.0570876 20.5959 0.0675759 20.6563 0.0795483 20.7165C0.0915211 20.7767 0.104968 20.8366 0.11989 20.8961C0.134793 20.9556 0.15116 21.0147 0.168992 21.0735C0.186804 21.1322 0.206042 21.1905 0.226707 21.2482C0.24739 21.306 0.26947 21.3633 0.292947 21.42C0.316443 21.4767 0.341307 21.5328 0.367537 21.5883C0.393787 21.6437 0.421375 21.6985 0.4503 21.7526C0.479225 21.8068 0.509471 21.8602 0.541033 21.9128C0.572577 21.9655 0.605398 22.0173 0.639499 22.0683C0.673601 22.1193 0.708924 22.1695 0.745466 22.2188C0.782029 22.2681 0.819784 22.3165 0.858728 22.3639C0.897655 22.4113 0.937721 22.4578 0.978933 22.5033C1.02014 22.5487 1.06245 22.5932 1.10585 22.6366C1.14924 22.6799 1.19368 22.7222 1.23915 22.7635C1.28464 22.8047 1.3311 22.8448 1.37854 22.8837C1.42598 22.9226 1.47434 22.9604 1.52362 22.9969C1.57292 23.0335 1.62308 23.0688 1.67412 23.1029C1.72515 23.137 1.77699 23.1698 1.82963 23.2014C1.88226 23.233 1.93564 23.2632 1.98976 23.2921C2.04388 23.321 2.09869 23.3486 2.15418 23.3749C2.20964 23.4011 2.26574 23.426 2.32246 23.4495C2.37916 23.4729 2.43639 23.495 2.49417 23.5157C2.55196 23.5364 2.61022 23.5556 2.66895 23.5734C2.72766 23.5913 2.78679 23.6076 2.84634 23.6225C2.90588 23.6375 2.96573 23.6509 3.02591 23.6629C3.08611 23.6748 3.14655 23.6853 3.20725 23.6943C3.26799 23.7033 3.32886 23.7108 3.38995 23.7168C3.45103 23.7229 3.5122 23.7274 3.57349 23.7304C3.63481 23.7334 3.69613 23.7349 3.75751 23.7349L19.593 23.7349C19.6544 23.7349 19.7157 23.7334 19.777 23.7304C19.8383 23.7274 19.8995 23.7229 19.9606 23.7168C20.0217 23.7108 20.0825 23.7033 20.1432 23.6943C20.2039 23.6853 20.2644 23.6748 20.3246 23.6629C20.3848 23.6509 20.4447 23.6375 20.5042 23.6225C20.5637 23.6076 20.6228 23.5913 20.6816 23.5734C20.7403 23.5556 20.7986 23.5364 20.8563 23.5157C20.9141 23.495 20.9714 23.4729 21.0281 23.4495C21.0848 23.426 21.1409 23.4011 21.1963 23.3749C21.2518 23.3486 21.3066 23.321 21.3607 23.2921C21.4148 23.2632 21.4682 23.233 21.5209 23.2014C21.5735 23.1698 21.6254 23.137 21.6764 23.1029C21.7274 23.0688 21.7776 23.0335 21.8269 22.9969C21.8762 22.9604 21.9246 22.9226 21.972 22.8837C22.0194 22.8448 22.0659 22.8047 22.1114 22.7635C22.1568 22.7222 22.2013 22.6799 22.2447 22.6366C22.288 22.5932 22.3303 22.5487 22.3716 22.5033C22.4128 22.4578 22.4529 22.4113 22.4918 22.3639C22.5307 22.3165 22.5685 22.2681 22.605 22.2188C22.6416 22.1695 22.6769 22.1193 22.711 22.0683C22.7451 22.0173 22.7779 21.9655 22.8095 21.9128C22.841 21.8602 22.8713 21.8068 22.9002 21.7526C22.9291 21.6985 22.9567 21.6437 22.983 21.5883C23.0092 21.5328 23.0341 21.4767 23.0576 21.42C23.081 21.3633 23.1031 21.306 23.1238 21.2483C23.1445 21.1905 23.1637 21.1322 23.1815 21.0735C23.1993 21.0147 23.2157 20.9556 23.2306 20.8961C23.2455 20.8366 23.259 20.7767 23.271 20.7165C23.2829 20.6563 23.2934 20.5959 23.3024 20.5351C23.3114 20.4744 23.3189 20.4136 23.3249 20.3525C23.3309 20.2914 23.3355 20.2302 23.3385 20.1689C23.3415 20.1076 23.343 20.0463 23.343 19.9849L23.343 10.1779L0.00750732 10.1779ZM16.602 15.5524L10.9905 20.1154C10.9727 20.1298 10.9545 20.1439 10.936 20.1575C10.9176 20.1711 10.8989 20.1844 10.8798 20.1972C10.8608 20.2101 10.8415 20.2225 10.822 20.2345C10.8025 20.2466 10.7827 20.2582 10.7627 20.2694C10.7426 20.2806 10.7223 20.2913 10.7019 20.3017C10.6814 20.312 10.6607 20.3219 10.6398 20.3313C10.6189 20.3408 10.5978 20.3498 10.5765 20.3583C10.5552 20.3669 10.5337 20.375 10.5121 20.3826C10.4905 20.3903 10.4687 20.3975 10.4467 20.4042C10.4248 20.4109 10.4027 20.4172 10.3805 20.423C10.3583 20.4287 10.336 20.4341 10.3136 20.4389C10.2911 20.4437 10.2686 20.4481 10.246 20.452C10.2234 20.4559 10.2007 20.4593 10.1779 20.4622C10.1552 20.4651 10.1324 20.4676 10.1095 20.4695C10.0866 20.4715 10.0637 20.473 10.0408 20.4739C10.0179 20.4749 9.99496 20.4754 9.97202 20.4754C9.89306 20.4754 9.81455 20.4694 9.7365 20.4574C9.70896 20.4533 9.68154 20.4485 9.65423 20.443C9.62693 20.4375 9.5998 20.4313 9.57282 20.4243C9.54584 20.4174 9.51903 20.4098 9.49246 20.4015C9.46588 20.3932 9.43952 20.3842 9.41338 20.3745C9.38728 20.3648 9.36141 20.3545 9.33584 20.3435C9.31026 20.3325 9.28498 20.3208 9.25999 20.3085C9.235 20.2962 9.21036 20.2833 9.18604 20.2697C9.16172 20.2561 9.13779 20.2419 9.1142 20.227C9.09062 20.2122 9.06745 20.1968 9.04465 20.1807C9.02189 20.1647 8.99954 20.1481 8.97762 20.1309C8.95568 20.1137 8.93423 20.096 8.91323 20.0777C8.89222 20.0594 8.87169 20.0406 8.85168 20.0213C8.83164 20.0019 8.81212 19.982 8.79311 19.9617C8.7741 19.9413 8.75564 19.9204 8.73774 19.8991C8.71981 19.8778 8.70244 19.856 8.68565 19.8338C8.66886 19.8116 8.65263 19.789 8.63702 19.7659L6.4815 16.5724C6.4694 16.5553 6.45771 16.5378 6.44646 16.52C6.43521 16.5023 6.4244 16.4843 6.41406 16.466C6.40372 16.4477 6.39382 16.4292 6.38438 16.4104C6.37495 16.3916 6.36598 16.3726 6.35752 16.3534C6.34902 16.3342 6.34102 16.3148 6.33349 16.2951C6.32596 16.2755 6.31896 16.2557 6.31243 16.2357C6.30589 16.2158 6.29986 16.1956 6.29432 16.1754C6.28879 16.1551 6.28375 16.1347 6.27923 16.1142C6.27469 16.0937 6.27068 16.073 6.26719 16.0523C6.26371 16.0316 6.26075 16.0108 6.25829 15.9899C6.25583 15.9691 6.25389 15.9482 6.25246 15.9272C6.25102 15.9062 6.25014 15.8852 6.24976 15.8642C6.24938 15.8432 6.24953 15.8222 6.2502 15.8012C6.25088 15.7802 6.25205 15.7593 6.25378 15.7383C6.25548 15.7174 6.2577 15.6965 6.26046 15.6756C6.26321 15.6548 6.26649 15.634 6.27027 15.6134C6.27405 15.5927 6.27833 15.5722 6.28313 15.5517C6.28794 15.5312 6.29324 15.5109 6.29907 15.4907C6.3049 15.4705 6.3112 15.4505 6.31799 15.4306C6.32482 15.4107 6.33212 15.3911 6.33991 15.3715C6.3477 15.352 6.35596 15.3327 6.36472 15.3136C6.37348 15.2945 6.38268 15.2756 6.39238 15.257C6.40208 15.2383 6.41224 15.2199 6.42285 15.2018C6.43345 15.1837 6.4445 15.1658 6.45598 15.1482C6.4675 15.1306 6.47942 15.1133 6.49175 15.0963C6.50412 15.0793 6.51689 15.0627 6.53007 15.0463C6.54326 15.0299 6.55682 15.0139 6.5708 14.9982C6.58477 14.9825 6.59916 14.9672 6.61389 14.9522C6.62863 14.9373 6.64375 14.9227 6.65922 14.9085C6.67468 14.8942 6.6905 14.8804 6.70665 14.867C6.72279 14.8535 6.73928 14.8405 6.7561 14.8279C6.77289 14.8153 6.79 14.8031 6.8074 14.7913C6.82483 14.7795 6.84253 14.7682 6.86048 14.7573C6.87844 14.7465 6.8967 14.736 6.91518 14.726C6.93367 14.7161 6.95242 14.7066 6.97137 14.6975C6.99033 14.6885 7.00952 14.6799 7.02891 14.6718C7.04831 14.6637 7.06788 14.6561 7.08765 14.649C7.10743 14.6419 7.12735 14.6352 7.14745 14.6291C7.16755 14.623 7.18779 14.6174 7.20818 14.6122C7.22854 14.6071 7.24905 14.6025 7.26964 14.5984C7.29024 14.5943 7.31095 14.5907 7.33175 14.5877C7.35253 14.5846 7.37338 14.582 7.3943 14.58C7.41522 14.578 7.43617 14.5764 7.45714 14.5754C7.47815 14.5745 7.49916 14.574 7.52016 14.574C7.54117 14.5741 7.56217 14.5747 7.58315 14.5758C7.60413 14.5768 7.62507 14.5785 7.64599 14.5806C7.66688 14.5827 7.68771 14.5854 7.70848 14.5886C7.72925 14.5918 7.74994 14.5954 7.77053 14.5996C7.79113 14.6038 7.81158 14.6085 7.83194 14.6138C7.8523 14.619 7.87252 14.6247 7.89258 14.6309C7.91265 14.6372 7.93255 14.6439 7.95229 14.6511C7.97201 14.6583 7.99155 14.666 8.01091 14.6742C8.03028 14.6824 8.04941 14.691 8.06834 14.7002C8.08723 14.7093 8.10592 14.7189 8.12438 14.729C8.14281 14.7391 8.161 14.7496 8.17893 14.7606C8.19683 14.7715 8.21447 14.7829 8.23184 14.7948C8.24919 14.8066 8.26624 14.8189 8.28296 14.8316C8.29969 14.8443 8.31613 14.8574 8.33221 14.8709C8.3483 14.8844 8.36406 14.8983 8.37947 14.9126C8.39485 14.9269 8.40988 14.9416 8.42456 14.9567C8.43923 14.9717 8.4535 14.9871 8.46742 15.0028C8.48133 15.0186 8.49484 15.0347 8.50794 15.0511C8.52103 15.0676 8.53372 15.0843 8.54599 15.1013C8.55827 15.1184 8.5701 15.1358 8.5815 15.1534L10.173 17.5054L15.0045 13.5844C15.0206 13.571 15.0369 13.558 15.0537 13.5454C15.0704 13.5328 15.0874 13.5206 15.1047 13.5089C15.122 13.4971 15.1396 13.4858 15.1575 13.4749C15.1753 13.4641 15.1935 13.4536 15.2119 13.4436C15.2302 13.4336 15.2489 13.4241 15.2677 13.4151C15.2866 13.406 15.3057 13.3974 15.3249 13.3893C15.3442 13.3812 15.3637 13.3736 15.3834 13.3664C15.403 13.3592 15.4228 13.3526 15.4429 13.3464C15.4628 13.3402 15.483 13.3346 15.5032 13.3294C15.5235 13.3242 15.5439 13.3195 15.5644 13.3154C15.5849 13.3112 15.6055 13.3076 15.6262 13.3044C15.6469 13.3013 15.6676 13.2986 15.6885 13.2965C15.7093 13.2944 15.7301 13.2928 15.751 13.2917C15.7719 13.2907 15.7928 13.2901 15.8138 13.29C15.8347 13.29 15.8556 13.2904 15.8765 13.2914C15.8974 13.2924 15.9183 13.2939 15.9391 13.296C15.9599 13.298 15.9807 13.3005 16.0014 13.3036C16.0221 13.3066 16.0427 13.3102 16.0632 13.3142C16.0837 13.3183 16.1041 13.3229 16.1244 13.3279C16.1448 13.333 16.1649 13.3386 16.1849 13.3447C16.2049 13.3508 16.2248 13.3574 16.2445 13.3644C16.2642 13.3715 16.2837 13.379 16.303 13.387C16.3223 13.3951 16.3414 13.4036 16.3603 13.4126C16.3792 13.4215 16.3979 13.431 16.4164 13.4409C16.4348 13.4508 16.453 13.4611 16.4709 13.4719C16.4888 13.4827 16.5064 13.4939 16.5238 13.5056C16.5412 13.5173 16.5582 13.5294 16.575 13.5419C16.5918 13.5544 16.6082 13.5674 16.6243 13.5807C16.6405 13.594 16.6563 13.6078 16.6717 13.6219C16.6872 13.636 16.7022 13.6505 16.717 13.6653C16.7317 13.6802 16.746 13.6954 16.76 13.711C16.774 13.7265 16.7876 13.7424 16.8008 13.7587C16.8139 13.775 16.8267 13.7915 16.8391 13.8084C16.8514 13.8253 16.8634 13.8424 16.8749 13.8599C16.8864 13.8774 16.8975 13.8951 16.9081 13.9132C16.9188 13.9312 16.929 13.9494 16.9387 13.9679C16.9484 13.9865 16.9577 14.0052 16.9665 14.0242C16.9753 14.0432 16.9836 14.0624 16.9915 14.0818C16.9993 14.1011 17.0067 14.1207 17.0136 14.1405C17.0205 14.1603 17.0269 14.1802 17.0328 14.2003C17.0387 14.2203 17.0441 14.2405 17.049 14.2609C17.0539 14.2812 17.0583 14.3017 17.0622 14.3222C17.066 14.3428 17.0694 14.3634 17.0723 14.3842C17.0751 14.4049 17.0774 14.4257 17.0793 14.4465C17.0811 14.4674 17.0825 14.4882 17.0832 14.5091C17.084 14.5301 17.0843 14.551 17.0841 14.5719C17.0839 14.5928 17.0831 14.6137 17.0818 14.6346C17.0806 14.6555 17.0788 14.6763 17.0764 14.6971C17.0741 14.7179 17.0713 14.7386 17.068 14.7593C17.0647 14.78 17.0608 14.8005 17.0565 14.821C17.0521 14.8415 17.0473 14.8618 17.0419 14.882C17.0366 14.9023 17.0307 14.9223 17.0244 14.9423C17.018 14.9622 17.0112 14.982 17.0039 15.0016C16.9965 15.0212 16.9887 15.0406 16.9804 15.0598C16.9721 15.079 16.9634 15.098 16.9541 15.1168C16.9449 15.1355 16.9352 15.1541 16.925 15.1724C16.9149 15.1907 16.9043 15.2087 16.8933 15.2265C16.8822 15.2443 16.8708 15.2617 16.8588 15.2789C16.8469 15.2961 16.8346 15.313 16.8219 15.3296C16.8091 15.3462 16.796 15.3625 16.7824 15.3784C16.7689 15.3944 16.7549 15.41 16.7406 15.4252C16.7263 15.4405 16.7116 15.4554 16.6965 15.4699C16.6814 15.4844 16.666 15.4986 16.6503 15.5123C16.6345 15.5261 16.6185 15.5394 16.602 15.5524Z"   fill="#2595E8" >
</path>
<path d="M0.00750732 10.1779L0.00750732 19.9849C0.00750732 20.0463 0.00901137 20.1076 0.012019 20.1689C0.0150269 20.2302 0.0195386 20.2914 0.0255543 20.3525C0.0315699 20.4136 0.0390797 20.4744 0.0480835 20.5351C0.0570876 20.5959 0.0675759 20.6563 0.0795483 20.7165C0.0915211 20.7767 0.104968 20.8366 0.11989 20.8961C0.134793 20.9556 0.15116 21.0147 0.168992 21.0735C0.186804 21.1322 0.206042 21.1905 0.226707 21.2482C0.24739 21.306 0.26947 21.3633 0.292947 21.42C0.316443 21.4767 0.341307 21.5328 0.367537 21.5883C0.393787 21.6437 0.421376 21.6985 0.4503 21.7526C0.479225 21.8068 0.509471 21.8602 0.541033 21.9128C0.572577 21.9655 0.605398 22.0173 0.6395 22.0683C0.673601 22.1193 0.708924 22.1695 0.745466 22.2188C0.782029 22.2681 0.819784 22.3165 0.858728 22.3639C0.897655 22.4113 0.937721 22.4578 0.978933 22.5033C1.02015 22.5487 1.06245 22.5932 1.10585 22.6366C1.14924 22.6799 1.19368 22.7222 1.23915 22.7635C1.28464 22.8047 1.3311 22.8448 1.37854 22.8837C1.42598 22.9226 1.47434 22.9604 1.52362 22.9969C1.57292 23.0335 1.62308 23.0688 1.67412 23.1029C1.72515 23.137 1.77699 23.1698 1.82963 23.2014C1.88226 23.233 1.93564 23.2632 1.98976 23.2921C2.04388 23.321 2.09869 23.3486 2.15418 23.3749C2.20965 23.4011 2.26574 23.426 2.32246 23.4495C2.37916 23.4729 2.43639 23.495 2.49417 23.5157C2.55196 23.5364 2.61022 23.5556 2.66895 23.5734C2.72766 23.5913 2.78679 23.6076 2.84635 23.6225C2.90588 23.6375 2.96573 23.6509 3.02591 23.6629C3.08611 23.6748 3.14655 23.6853 3.20725 23.6943C3.26799 23.7033 3.32886 23.7108 3.38995 23.7168C3.45103 23.7229 3.5122 23.7274 3.57349 23.7304C3.63481 23.7334 3.69613 23.7349 3.75751 23.7349L10.029 23.7349C10.2158 23.6925 10.402 23.6473 10.5874 23.5992C10.7729 23.551 10.9575 23.5 11.1414 23.4462C11.3252 23.3924 11.5082 23.3358 11.6904 23.2763C11.8725 23.2168 12.0536 23.1546 12.2338 23.0895C12.414 23.0244 12.5932 22.9566 12.7713 22.886C12.9494 22.8155 13.1264 22.7421 13.3022 22.6661C13.4781 22.5901 13.6527 22.5113 13.8261 22.4299C13.9995 22.3485 14.1716 22.2644 14.3425 22.1776C14.5133 22.0909 14.6828 22.0016 14.8508 21.9096C15.0189 21.8176 15.1855 21.7231 15.3506 21.626C15.5158 21.5289 15.6794 21.4293 15.8415 21.3271C16.0036 21.2249 16.164 21.1203 16.3229 21.0132C16.4817 20.9061 16.6389 20.7966 16.7944 20.6847C16.9498 20.5727 17.1035 20.4584 17.2555 20.3417C17.4074 20.225 17.5575 20.106 17.7058 19.9847C17.8541 19.8633 18.0004 19.7398 18.1449 19.6139C18.2894 19.4881 18.4318 19.3601 18.5724 19.2298C18.7129 19.0996 18.8513 18.9672 18.9878 18.8327C19.1242 18.6982 19.2585 18.5617 19.3907 18.423C19.5229 18.2843 19.653 18.1437 19.7808 18.001C19.9087 17.8584 20.0344 17.7138 20.1578 17.5672C20.2812 17.4207 20.4023 17.2723 20.5212 17.122C20.64 16.9718 20.7565 16.8197 20.8707 16.6658C20.9848 16.512 21.0965 16.3564 21.2059 16.1991C21.3152 16.0417 21.4221 15.8828 21.5266 15.7222C21.631 15.5616 21.733 15.3994 21.8324 15.2356C21.9318 15.0719 22.0287 14.9066 22.1231 14.7399C22.2174 14.5731 22.3092 14.405 22.3983 14.2354C22.4875 14.0658 22.574 13.8949 22.6579 13.7227C22.7417 13.5504 22.8229 13.3769 22.9015 13.2022C22.98 13.0274 23.0559 12.8515 23.129 12.6744C23.202 12.4973 23.2724 12.3192 23.34 12.1399L23.34 10.1779L0.00750732 10.1779ZM16.602 15.5524L10.9905 20.1154C10.9727 20.1298 10.9545 20.1439 10.936 20.1575C10.9176 20.1711 10.8989 20.1844 10.8798 20.1972C10.8608 20.2101 10.8416 20.2225 10.822 20.2345C10.8025 20.2466 10.7827 20.2582 10.7627 20.2694C10.7426 20.2806 10.7223 20.2913 10.7019 20.3017C10.6814 20.312 10.6607 20.3219 10.6398 20.3313C10.6189 20.3408 10.5978 20.3498 10.5765 20.3583C10.5552 20.3669 10.5337 20.375 10.5121 20.3826C10.4905 20.3903 10.4687 20.3975 10.4467 20.4042C10.4248 20.4109 10.4027 20.4172 10.3805 20.423C10.3583 20.4287 10.336 20.4341 10.3136 20.4389C10.2912 20.4437 10.2686 20.4481 10.246 20.452C10.2234 20.4559 10.2007 20.4593 10.1779 20.4622C10.1552 20.4651 10.1324 20.4676 10.1095 20.4695C10.0866 20.4715 10.0637 20.473 10.0408 20.4739C10.0179 20.4749 9.99496 20.4754 9.97202 20.4754C9.89306 20.4754 9.81455 20.4694 9.7365 20.4574C9.70896 20.4533 9.68154 20.4485 9.65424 20.443C9.62693 20.4375 9.5998 20.4313 9.57282 20.4243C9.54584 20.4174 9.51903 20.4098 9.49246 20.4015C9.46589 20.3932 9.43952 20.3842 9.41339 20.3745C9.38728 20.3648 9.36141 20.3545 9.33584 20.3435C9.31026 20.3325 9.28498 20.3208 9.25999 20.3085C9.235 20.2962 9.21036 20.2833 9.18604 20.2697C9.16173 20.2561 9.13779 20.2419 9.11421 20.227C9.09062 20.2122 9.06745 20.1968 9.04466 20.1807C9.02189 20.1647 8.99954 20.1481 8.97762 20.1309C8.95568 20.1137 8.93424 20.096 8.91323 20.0777C8.89222 20.0594 8.87169 20.0406 8.85168 20.0213C8.83164 20.0019 8.81213 19.982 8.79311 19.9617C8.7741 19.9413 8.75564 19.9204 8.73774 19.8991C8.71981 19.8778 8.70244 19.856 8.68565 19.8338C8.66887 19.8116 8.65263 19.789 8.63702 19.7659L6.4815 16.5724C6.4694 16.5553 6.45771 16.5378 6.44646 16.52C6.43521 16.5023 6.4244 16.4843 6.41406 16.466C6.40372 16.4477 6.39382 16.4292 6.38438 16.4104C6.37495 16.3916 6.36598 16.3726 6.35752 16.3534C6.34902 16.3342 6.34102 16.3148 6.33349 16.2951C6.32596 16.2755 6.31896 16.2557 6.31243 16.2357C6.3059 16.2158 6.29986 16.1956 6.29432 16.1754C6.28879 16.1551 6.28375 16.1347 6.27924 16.1142C6.27469 16.0937 6.27068 16.073 6.2672 16.0523C6.26371 16.0316 6.26075 16.0108 6.25829 15.9899C6.25583 15.9691 6.25389 15.9482 6.25246 15.9272C6.25102 15.9062 6.25014 15.8852 6.24976 15.8642C6.24938 15.8432 6.24953 15.8222 6.2502 15.8012C6.25088 15.7802 6.25205 15.7593 6.25378 15.7383C6.25548 15.7174 6.2577 15.6965 6.26046 15.6756C6.26321 15.6548 6.26649 15.634 6.27027 15.6134C6.27405 15.5927 6.27833 15.5722 6.28313 15.5517C6.28794 15.5312 6.29324 15.5109 6.29907 15.4907C6.3049 15.4705 6.3112 15.4505 6.318 15.4306C6.32482 15.4107 6.33212 15.3911 6.33991 15.3715C6.3477 15.352 6.35596 15.3327 6.36472 15.3136C6.37348 15.2945 6.38268 15.2756 6.39238 15.257C6.40208 15.2383 6.41224 15.2199 6.42285 15.2018C6.43345 15.1837 6.4445 15.1658 6.45598 15.1482C6.4675 15.1306 6.47942 15.1133 6.49176 15.0963C6.50412 15.0793 6.51689 15.0627 6.53008 15.0463C6.54326 15.0299 6.55682 15.0139 6.5708 14.9982C6.58477 14.9825 6.59916 14.9672 6.61389 14.9522C6.62863 14.9373 6.64375 14.9227 6.65922 14.9085C6.67469 14.8942 6.69051 14.8804 6.70665 14.867C6.72279 14.8535 6.73928 14.8405 6.7561 14.8279C6.77289 14.8153 6.79 14.8031 6.8074 14.7913C6.82483 14.7795 6.84253 14.7682 6.86049 14.7573C6.87845 14.7465 6.8967 14.736 6.91518 14.726C6.93367 14.7161 6.95242 14.7066 6.97137 14.6975C6.99033 14.6885 7.00952 14.6799 7.02891 14.6718C7.04831 14.6637 7.06788 14.6561 7.08765 14.649C7.10743 14.6419 7.12735 14.6352 7.14745 14.6291C7.16755 14.623 7.18779 14.6174 7.20818 14.6122C7.22854 14.6071 7.24905 14.6025 7.26965 14.5984C7.29024 14.5943 7.31096 14.5907 7.33176 14.5877C7.35253 14.5846 7.37339 14.582 7.3943 14.58C7.41522 14.578 7.43617 14.5764 7.45715 14.5754C7.47815 14.5745 7.49916 14.574 7.52016 14.574C7.54117 14.5741 7.56218 14.5747 7.58315 14.5758C7.60413 14.5768 7.62508 14.5785 7.64599 14.5806C7.66688 14.5827 7.68771 14.5854 7.70848 14.5886C7.72926 14.5918 7.74994 14.5954 7.77053 14.5996C7.79113 14.6038 7.81158 14.6085 7.83194 14.6138C7.8523 14.619 7.87252 14.6247 7.89259 14.6309C7.91265 14.6372 7.93255 14.6439 7.95229 14.6511C7.97201 14.6583 7.99155 14.666 8.01092 14.6742C8.03028 14.6824 8.04941 14.691 8.06834 14.7002C8.08723 14.7093 8.10593 14.7189 8.12438 14.729C8.14281 14.7391 8.161 14.7496 8.17893 14.7606C8.19683 14.7715 8.21447 14.7829 8.23184 14.7948C8.24919 14.8066 8.26624 14.8189 8.28297 14.8316C8.2997 14.8443 8.31613 14.8574 8.33221 14.8709C8.3483 14.8844 8.36406 14.8983 8.37947 14.9126C8.39485 14.9269 8.40988 14.9416 8.42456 14.9567C8.43924 14.9717 8.4535 14.9871 8.46742 15.0028C8.48134 15.0186 8.49484 15.0347 8.50794 15.0511C8.52103 15.0676 8.53372 15.0843 8.54599 15.1013C8.55827 15.1184 8.57011 15.1358 8.5815 15.1534L10.173 17.5054L15.0045 13.5844C15.0206 13.571 15.037 13.558 15.0537 13.5454C15.0704 13.5328 15.0874 13.5206 15.1047 13.5089C15.122 13.4971 15.1396 13.4858 15.1575 13.4749C15.1754 13.4641 15.1935 13.4536 15.2119 13.4436C15.2302 13.4336 15.2489 13.4241 15.2677 13.4151C15.2866 13.406 15.3057 13.3974 15.3249 13.3893C15.3442 13.3812 15.3637 13.3736 15.3834 13.3664C15.403 13.3592 15.4228 13.3526 15.4429 13.3464C15.4628 13.3402 15.483 13.3346 15.5032 13.3294C15.5235 13.3242 15.5439 13.3195 15.5644 13.3154C15.5849 13.3112 15.6055 13.3076 15.6262 13.3044C15.6469 13.3013 15.6676 13.2986 15.6885 13.2965C15.7093 13.2944 15.7301 13.2928 15.751 13.2917C15.7719 13.2907 15.7928 13.2901 15.8138 13.29C15.8347 13.29 15.8556 13.2904 15.8765 13.2914C15.8974 13.2924 15.9183 13.2939 15.9391 13.296C15.9599 13.298 15.9807 13.3005 16.0014 13.3036C16.0221 13.3066 16.0427 13.3102 16.0632 13.3142C16.0837 13.3183 16.1041 13.3229 16.1245 13.3279C16.1448 13.333 16.1649 13.3386 16.1849 13.3447C16.2049 13.3508 16.2248 13.3574 16.2445 13.3644C16.2642 13.3715 16.2837 13.379 16.303 13.387C16.3223 13.3951 16.3415 13.4036 16.3603 13.4126C16.3792 13.4215 16.3979 13.431 16.4164 13.4409C16.4348 13.4508 16.453 13.4611 16.4709 13.4719C16.4888 13.4827 16.5065 13.4939 16.5238 13.5056C16.5412 13.5173 16.5583 13.5294 16.575 13.5419C16.5918 13.5544 16.6082 13.5674 16.6243 13.5807C16.6405 13.594 16.6563 13.6078 16.6717 13.6219C16.6872 13.636 16.7022 13.6505 16.717 13.6653C16.7317 13.6802 16.746 13.6954 16.76 13.711C16.774 13.7265 16.7876 13.7424 16.8008 13.7587C16.814 13.775 16.8267 13.7915 16.8391 13.8084C16.8515 13.8253 16.8634 13.8424 16.8749 13.8599C16.8864 13.8774 16.8975 13.8951 16.9081 13.9132C16.9188 13.9312 16.929 13.9494 16.9387 13.9679C16.9484 13.9865 16.9577 14.0052 16.9665 14.0242C16.9753 14.0432 16.9836 14.0624 16.9915 14.0818C16.9993 14.1011 17.0067 14.1207 17.0136 14.1405C17.0205 14.1603 17.0269 14.1802 17.0328 14.2003C17.0387 14.2203 17.0441 14.2405 17.049 14.2609C17.0539 14.2812 17.0583 14.3017 17.0622 14.3222C17.066 14.3428 17.0694 14.3634 17.0723 14.3842C17.0751 14.4049 17.0774 14.4257 17.0793 14.4465C17.0811 14.4674 17.0825 14.4882 17.0833 14.5091C17.084 14.5301 17.0843 14.551 17.0841 14.5719C17.0839 14.5928 17.0831 14.6137 17.0818 14.6346C17.0806 14.6555 17.0788 14.6763 17.0765 14.6971C17.0741 14.7179 17.0713 14.7386 17.068 14.7593C17.0647 14.78 17.0608 14.8005 17.0565 14.821C17.0521 14.8415 17.0473 14.8618 17.0419 14.882C17.0366 14.9023 17.0307 14.9223 17.0244 14.9423C17.018 14.9622 17.0112 14.982 17.0039 15.0016C16.9965 15.0212 16.9887 15.0406 16.9804 15.0598C16.9721 15.079 16.9634 15.098 16.9541 15.1168C16.9449 15.1355 16.9352 15.1541 16.925 15.1724C16.9149 15.1907 16.9043 15.2087 16.8933 15.2265C16.8822 15.2443 16.8708 15.2617 16.8588 15.2789C16.8469 15.2961 16.8346 15.313 16.8219 15.3296C16.8091 15.3462 16.796 15.3625 16.7824 15.3784C16.7689 15.3944 16.7549 15.41 16.7406 15.4252C16.7263 15.4405 16.7116 15.4554 16.6965 15.4699C16.6814 15.4844 16.666 15.4986 16.6503 15.5123C16.6345 15.5261 16.6185 15.5394 16.602 15.5524Z"   fill="#3A9CED" >
</path>
<path d="M6.4815 16.5724C6.4694 16.5553 6.45771 16.5378 6.44646 16.52C6.43521 16.5023 6.4244 16.4843 6.41406 16.466C6.40372 16.4477 6.39382 16.4292 6.38438 16.4104C6.37495 16.3916 6.36598 16.3726 6.35752 16.3534C6.34902 16.3342 6.34102 16.3148 6.33349 16.2951C6.32596 16.2755 6.31896 16.2557 6.31243 16.2357C6.3059 16.2158 6.29986 16.1956 6.29432 16.1754C6.28879 16.1551 6.28375 16.1347 6.27924 16.1142C6.27469 16.0937 6.27068 16.073 6.26719 16.0523C6.26371 16.0316 6.26075 16.0108 6.25829 15.9899C6.25583 15.9691 6.25389 15.9482 6.25246 15.9272C6.25102 15.9062 6.25014 15.8852 6.24976 15.8642C6.24938 15.8432 6.24953 15.8222 6.2502 15.8012C6.25088 15.7802 6.25205 15.7593 6.25378 15.7383C6.25548 15.7174 6.2577 15.6965 6.26046 15.6757C6.26321 15.6548 6.26649 15.634 6.27027 15.6134C6.27405 15.5927 6.27833 15.5722 6.28313 15.5517C6.28794 15.5312 6.29324 15.5109 6.29907 15.4907C6.3049 15.4705 6.3112 15.4505 6.318 15.4306C6.32482 15.4107 6.33212 15.3911 6.33991 15.3715C6.3477 15.352 6.35596 15.3327 6.36472 15.3136C6.37348 15.2945 6.38268 15.2756 6.39238 15.257C6.40208 15.2383 6.41224 15.2199 6.42285 15.2018C6.43345 15.1837 6.4445 15.1658 6.45598 15.1482C6.4675 15.1306 6.47942 15.1133 6.49176 15.0963C6.50412 15.0793 6.51689 15.0627 6.53008 15.0463C6.54326 15.0299 6.55682 15.0139 6.5708 14.9982C6.58477 14.9825 6.59916 14.9672 6.61389 14.9522C6.62863 14.9373 6.64375 14.9227 6.65922 14.9085C6.67468 14.8942 6.6905 14.8804 6.70665 14.867C6.72279 14.8535 6.73928 14.8405 6.7561 14.8279C6.77289 14.8153 6.79 14.8031 6.8074 14.7913C6.82483 14.7795 6.84253 14.7682 6.86049 14.7573C6.87844 14.7465 6.8967 14.736 6.91518 14.7261C6.93367 14.7161 6.95242 14.7066 6.97137 14.6975C6.99033 14.6885 7.00952 14.6799 7.02891 14.6718C7.04831 14.6637 7.06788 14.6561 7.08765 14.649C7.10743 14.6419 7.12735 14.6352 7.14745 14.6291C7.16755 14.623 7.18779 14.6174 7.20818 14.6122C7.22854 14.6071 7.24905 14.6025 7.26965 14.5984C7.29024 14.5943 7.31095 14.5907 7.33175 14.5877C7.35253 14.5846 7.37339 14.582 7.3943 14.58C7.41522 14.578 7.43617 14.5764 7.45715 14.5754C7.47815 14.5745 7.49916 14.574 7.52016 14.574C7.54117 14.5741 7.56217 14.5747 7.58315 14.5758C7.60413 14.5768 7.62507 14.5785 7.64599 14.5806C7.66688 14.5827 7.68771 14.5854 7.70848 14.5886C7.72925 14.5918 7.74994 14.5954 7.77053 14.5996C7.79113 14.6038 7.81158 14.6085 7.83194 14.6138C7.8523 14.619 7.87252 14.6247 7.89258 14.6309C7.91265 14.6372 7.93255 14.6439 7.95229 14.6511C7.97201 14.6583 7.99155 14.666 8.01091 14.6742C8.03028 14.6824 8.04941 14.691 8.06834 14.7002C8.08723 14.7093 8.10592 14.7189 8.12438 14.729C8.14281 14.7391 8.161 14.7496 8.17893 14.7606C8.19683 14.7715 8.21447 14.7829 8.23184 14.7948C8.24919 14.8066 8.26624 14.8189 8.28297 14.8316C8.29969 14.8443 8.31613 14.8574 8.33221 14.8709C8.3483 14.8844 8.36406 14.8983 8.37947 14.9126C8.39485 14.9269 8.40988 14.9416 8.42456 14.9567C8.43923 14.9717 8.4535 14.9871 8.46742 15.0028C8.48133 15.0186 8.49484 15.0347 8.50794 15.0511C8.52103 15.0676 8.53372 15.0843 8.54599 15.1013C8.55827 15.1184 8.5701 15.1358 8.5815 15.1534L8.96251 15.7159C9.04492 15.6758 9.12701 15.6351 9.20881 15.5938C9.2906 15.5525 9.37211 15.5106 9.45329 15.4681C9.53447 15.4256 9.61536 15.3825 9.69589 15.3388C9.77643 15.2951 9.85668 15.2508 9.93657 15.2059C10.0165 15.161 10.096 15.1156 10.1753 15.0695C10.2545 15.0235 10.3333 14.9768 10.4119 14.9296C10.4904 14.8824 10.5686 14.8346 10.6465 14.7863C10.7243 14.7379 10.8018 14.689 10.8789 14.6395C10.956 14.5899 11.0328 14.5399 11.1091 14.4892C11.1855 14.4386 11.2615 14.3874 11.3371 14.3356C11.4128 14.2839 11.488 14.2316 11.5629 14.1787C11.6377 14.1258 11.7122 14.0724 11.7863 14.0185C11.8603 13.9645 11.934 13.91 12.0072 13.855C12.0805 13.7999 12.1534 13.7443 12.2258 13.6882C12.2983 13.6321 12.3703 13.5755 12.4419 13.5183C12.5135 13.4611 12.5847 13.4034 12.6555 13.3452C12.7262 13.287 12.7966 13.2282 12.8665 13.169C12.9364 13.1097 13.0058 13.0499 13.0749 12.9897C13.1439 12.9294 13.2124 12.8686 13.2805 12.8073C13.3487 12.746 13.4163 12.6842 13.4836 12.6219C13.5508 12.5596 13.6175 12.4968 13.6838 12.4336C13.7501 12.3703 13.8159 12.3065 13.8813 12.2423C13.9466 12.1781 14.0115 12.1133 14.0759 12.0481C14.1403 11.9829 14.2042 11.9173 14.2676 11.8511C14.3311 11.785 14.394 11.7184 14.4564 11.6513C14.5189 11.5842 14.5809 11.5167 14.6423 11.4488C14.7038 11.3808 14.7647 11.3123 14.8252 11.2435C14.8856 11.1746 14.9455 11.1053 15.005 11.0355C15.0644 10.9658 15.1233 10.8956 15.1817 10.8249C15.2401 10.7543 15.298 10.6833 15.3553 10.6118C15.4126 10.5403 15.4695 10.4684 15.5257 10.3961C15.582 10.3238 15.6378 10.2511 15.693 10.1779L0.00750732 10.1779L0.00750732 17.5654C0.285007 17.5789 0.562507 17.5849 0.841501 17.5849C1.08357 17.5849 1.32555 17.5802 1.56745 17.5707C1.80934 17.5613 2.05096 17.5471 2.29228 17.5282C2.53361 17.5093 2.77448 17.4857 3.01489 17.4574C3.25533 17.4291 3.49509 17.3961 3.73422 17.3585C3.97334 17.3208 4.21164 17.2785 4.44912 17.2315C4.68657 17.1846 4.92305 17.133 5.15851 17.0768C5.39397 17.0206 5.62826 16.9599 5.86134 16.8945C6.09443 16.8292 6.32614 16.7593 6.5565 16.6849L6.4815 16.5724Z"   fill="#59ADF8" >
</path>
<g >
<path     fill="#FFFFFF"  d="M3.768 26.652L3.768 27.876L5.34 27.876L5.34 29.292L3.768 29.292L3.768 31.944L5.22 31.74L5.22 33.324L3.768 33.528L3.768 36.336L2.088 37.692L0.972 36.336L2.004 35.544L2.004 33.756L0.564 33.948L0.564 32.364L2.004 32.172L2.004 29.292L0.564 29.292L0.564 27.876L2.004 27.876L2.004 26.652L3.768 26.652ZM11.34 26.796L11.34 28.14L9.756 28.14L9.756 36.336L7.932 37.692L6.72 36.336L7.848 35.544L7.848 28.14L5.604 28.14L5.604 26.796L11.34 26.796ZM17.952 27.648L22.68 27.648L22.68 29.112L17.952 29.112L17.952 30.6L23.22 30.6L23.22 32.064L17.976 32.064L17.976 37.452L15.996 37.452L15.996 32.064L12.6 32.064L12.6 30.6L15.972 30.6L15.972 26.64L17.952 26.64L17.952 27.648ZM20.748 36.588L18.876 32.844L20.844 32.844L22.74 36.588L20.748 36.588Z">
</path>
</g>
</svg>
