<svg xmlns="http://www.w3.org/2000/svg" xmlns:xlink="http://www.w3.org/1999/xlink" width="96.00009155273438" height="130" viewBox="0 0 96.00009155273438 130" fill="none">
<path d="M37.6989 58.8164L37.6989 40.5507C37.6989 39.7421 38.3643 39.0762 39.1724 39.0762L57.9477 39.0762C58.7558 39.0762 59.4212 39.7421 59.4212 40.5507L59.4212 60.6715C59.4212 61.1471 59.1835 61.599 58.8033 61.8606C58.5419 62.0271 58.2567 62.1223 57.9715 62.1223C57.8051 62.1223 57.6387 62.0985 57.4724 62.0271C56.593 61.7179 55.6899 61.5515 54.7868 61.5515C53.1232 61.5515 51.3882 62.146 49.9147 63.2401C49.582 63.5255 49.273 63.6206 48.9641 63.6206C48.5363 63.6206 48.1085 63.4304 47.8233 63.0498C46.2547 61.052 44.0207 59.958 41.549 59.958C40.9073 59.958 40.2181 60.0531 39.5289 60.2434C39.41 60.2909 39.2674 60.2909 39.1486 60.2909C38.8396 60.2909 38.5307 60.1958 38.2692 59.9818C37.9128 59.6964 37.6989 59.2683 37.6989 58.8164Z"   fill="#47ACE2" >
</path>
<path d="M60.7996 40.6221L60.7996 60.7428C60.7996 61.6941 60.3481 62.5979 59.5638 63.1449C59.0647 63.4779 58.4705 63.6681 57.8764 63.6681C57.5674 63.6681 57.2109 63.6206 56.902 63.5017C56.189 63.24 55.4522 63.1211 54.7155 63.1211C53.3608 63.1211 51.9348 63.6206 50.7227 64.5244C50.1999 64.9049 49.582 65.0952 48.9878 65.0952C48.1085 65.0952 47.2529 64.7146 46.6825 63.9773C45.3991 62.3601 43.5691 61.4563 41.549 61.4563C41.0261 61.4563 40.4795 61.5276 39.9091 61.6941C39.6477 61.7655 39.3862 61.7893 39.1248 61.7893C38.4831 61.7893 37.8652 61.5752 37.3423 61.1947C36.6056 60.6477 36.1778 59.7677 36.1778 58.8639L36.1778 40.5983C36.1778 38.981 37.4849 37.6729 39.101 37.6729L57.8764 37.6729C59.4925 37.6729 60.7996 38.981 60.7996 40.6221ZM39.101 58.864L39.101 40.5983L57.8763 40.5983L57.8763 60.7191C56.9019 60.3623 55.8324 60.172 54.6917 60.172C52.624 60.172 50.6039 60.9093 48.964 62.1461C47.2291 59.9342 44.6148 58.5072 41.5252 58.5072Q40.2774 58.5072 39.101 58.864Z" fill-rule="evenodd"  fill="#55529F" >
</path>
<path d="M39.1011 40.8599C38.293 40.8599 37.6276 40.1939 37.6276 39.3853L37.6276 14.8408C37.6276 14.0322 38.293 13.3663 39.1011 13.3663L57.8764 13.3663C58.6845 13.3663 59.3499 14.0322 59.3499 14.8408L59.3499 39.3853C59.3499 40.1939 58.6845 40.8599 57.8764 40.8599L39.1011 40.8599Z"   fill="#47ACE2" >
</path>
<path d="M36.1778 14.8408C36.1778 13.2236 37.4849 11.9155 39.101 11.9155L57.8764 11.9155C59.4925 11.9155 60.7996 13.2236 60.7996 14.8408L60.7996 39.3853C60.7996 41.0025 59.4925 42.3106 57.8764 42.3106L39.101 42.3106C37.4849 42.3106 36.1778 41.0025 36.1778 39.3853L36.1778 14.8408ZM39.101 39.3853L39.101 14.8409L57.8763 14.8409L57.8763 39.3853L39.101 39.3853Z" fill-rule="evenodd"  fill="#55529F" >
</path>
<path d="M45.1378 85.097C44.9239 85.097 44.71 85.0732 44.4961 85.0494C42.476 84.6927 41.1213 82.79 41.4778 80.7684L44.5912 62.812C44.9001 61.0282 46.4449 59.7439 48.2512 59.7439C48.4651 59.7439 48.679 59.7677 48.8929 59.7915C50.913 60.1482 52.2677 62.0747 51.9112 64.0725L48.7978 82.0289C48.4651 83.8127 46.944 85.097 45.1378 85.097Z"   fill="#F190B7" >
</path>
<path d="M40.0279 80.483L43.1413 62.5266C43.5691 60.0531 45.7081 58.2455 48.2273 58.2455C48.5363 58.2455 48.8215 58.2693 49.1067 58.3169C50.4851 58.5547 51.6734 59.3158 52.4577 60.4336C53.2658 61.5514 53.5747 62.9309 53.3371 64.2865L50.2237 82.243C49.7959 84.7164 47.6569 86.524 45.1377 86.524C44.8525 86.524 44.5435 86.5002 44.2583 86.4526C42.8799 86.2148 41.6916 85.4775 40.9073 84.3359C40.0992 83.2181 39.7903 81.8387 40.0279 80.483ZM42.9038 80.9825L46.0172 63.026C46.2073 61.9558 47.158 61.1709 48.2275 61.1709C48.3463 61.1709 48.4889 61.1709 48.6077 61.1947C49.8198 61.4088 50.6516 62.5742 50.4377 63.7871L47.3243 81.7436C47.1342 82.8376 46.1836 83.5987 45.1141 83.5987C44.9952 83.5987 44.8526 83.5987 44.7338 83.5749C43.5217 83.3608 42.6899 82.1954 42.9038 80.9825Z" fill-rule="evenodd"  fill="#55529F" >
</path>
<path d="M37.1998 60.4573C37.7702 59.0303 39.1248 58.1028 40.6459 58.1028C41.1212 58.1028 41.5728 58.1979 42.0006 58.3644C42.9274 58.7211 43.6404 59.4347 44.0445 60.3384C44.4485 61.2422 44.4485 62.2649 44.092 63.1686L37.3899 80.1262C36.8433 81.5532 35.4886 82.4807 33.9438 82.4807C33.4685 82.4807 33.0169 82.3856 32.5891 82.2191C30.6878 81.4581 29.7609 79.3176 30.4977 77.4149L37.1998 60.4573Z"   fill="#F190B7" >
</path>
<path d="M33.9676 83.9316C33.3021 83.9316 32.6842 83.8127 32.0663 83.5749C30.7829 83.0516 29.7609 82.0765 29.2143 80.816C28.6677 79.5555 28.6439 78.1523 29.143 76.868L35.8451 59.9104C36.6294 57.9126 38.5069 56.6283 40.6459 56.6283Q41.6084 56.6283 42.5709 56.985C45.209 58.0315 46.5161 61.0282 45.4704 63.692L38.7683 80.6495C37.9841 82.6473 36.1065 83.9316 33.9676 83.9316ZM31.8523 77.9381L38.5544 60.9806C38.9109 60.1006 39.7427 59.5536 40.6458 59.5536C40.931 59.5536 41.1925 59.6012 41.4776 59.7201C42.6184 60.172 43.1888 61.48 42.7373 62.6217L36.0352 79.5792C35.6787 80.4592 34.8469 81.0062 33.9437 81.0062C33.6586 81.0062 33.3971 80.9586 33.1119 80.8397C31.9711 80.3878 31.4008 79.0798 31.8523 77.9381Z" fill-rule="evenodd"  fill="#55529F" >
</path>
<path d="M59.4688 85.0256C57.8289 85.0256 56.3554 83.9078 55.9038 82.3381L50.9367 64.8097C50.39 62.8357 51.5308 60.7903 53.4797 60.2195C53.8124 60.1244 54.1451 60.0768 54.5016 60.0768C56.1415 60.0768 57.615 61.1947 58.0665 62.7644L63.0337 80.2927C63.6041 82.2667 62.4395 84.3121 60.4907 84.8829C60.1342 84.978 59.8015 85.0256 59.4688 85.0256Z"   fill="#F190B7" >
</path>
<path d="M49.9622 61.2423C50.6514 60.0531 51.7447 59.1731 53.0756 58.7926C53.5271 58.6737 54.0024 58.6023 54.4778 58.6023C56.7831 58.6023 58.827 60.1483 59.4449 62.3601L64.4121 79.8885C64.7923 81.2203 64.626 82.5998 63.9605 83.8127C63.2713 85.0019 62.178 85.8819 60.8471 86.2624C60.3956 86.3813 59.9202 86.4527 59.4449 86.4527C57.1396 86.4527 55.0957 84.9068 54.4778 82.6949L49.5106 65.1665C49.1304 63.8585 49.2967 62.4552 49.9622 61.2423ZM52.3151 64.4292C51.9824 63.2401 52.6716 62.0033 53.8599 61.6466C54.0738 61.5752 54.2877 61.5514 54.4779 61.5514C55.4523 61.5514 56.3554 62.1936 56.6406 63.1925L61.6077 80.7208C61.9405 81.91 61.2513 83.1467 60.0629 83.5035C59.849 83.5511 59.6589 83.5986 59.445 83.5986C58.4706 83.5986 57.5675 82.9565 57.2823 81.9576L52.3151 64.4292Z" fill-rule="evenodd"  fill="#55529F" >
</path>
<path d="M35.8688 43.7376C35.0608 43.7376 34.3953 43.0717 34.3953 42.263L34.3953 34.8426C34.3953 34.034 35.0608 33.368 35.8688 33.368L61.1561 33.368C61.9642 33.368 62.6296 34.034 62.6296 34.8426L62.6296 42.263C62.6296 43.0717 61.9642 43.7376 61.1561 43.7376L35.8688 43.7376Z"   fill="#D3D3EB" >
</path>
<path d="M32.9219 34.8427C32.9219 33.2254 34.229 31.9173 35.8451 31.9173L61.1324 31.9173C62.7485 31.9173 64.0557 33.2254 64.0557 34.8427L64.0557 42.2631C64.0557 43.8803 62.7485 45.1884 61.1324 45.1884L35.8451 45.1884C34.229 45.1884 32.9219 43.8803 32.9219 42.2631L32.9219 34.8427ZM35.8451 42.2631L35.8451 34.8427L61.1324 34.8427L61.1324 42.2631L35.8451 42.2631Z" fill-rule="evenodd"  fill="#55529F" >
</path>
<path d="M67.4304 99.2005C74.6791 97.06 79.266 91.566 81.8328 87.3326C87.8694 77.3673 89.0815 65.9989 85.0174 56.9136C80.8821 47.6143 71.9935 41.4068 61.8691 40.6933C59.5875 40.5269 58.423 38.6004 58.4705 36.8404C58.5418 34.9378 59.9203 33.5345 61.7978 33.5345C61.8929 33.5345 61.9879 33.5345 62.083 33.5345C69.4743 34.0578 76.319 36.6977 81.8565 41.1928C91.5056 49.0413 96.2589 62.36 93.9773 75.1079C91.9097 86.6428 84.2094 101.674 69.403 106.074C69.0227 106.193 68.69 106.24 68.3335 106.24C66.6223 106.24 65.1964 104.932 64.9349 103.125C64.6735 101.317 65.6955 99.6999 67.4304 99.2005Z"   fill="#D3D3EB" >
</path>
<path d="M95.4034 75.3695C93.2644 87.3326 85.2552 102.911 69.8071 107.477C69.308 107.62 68.8089 107.691 68.3336 107.691C65.8857 107.691 63.8418 105.836 63.4853 103.315C63.105 100.77 64.5548 98.487 67.0027 97.7735C73.8236 95.7519 78.1491 90.5671 80.5732 86.5477C86.3722 76.9868 87.5368 66.1178 83.6866 57.4844C79.7652 48.6846 71.3757 42.8101 61.7741 42.1441C58.9697 41.9301 56.9258 39.6231 57.0209 36.7691C57.1159 34.0816 59.1598 32.06 61.7979 32.06C61.8375 32.06 61.8798 32.0626 61.922 32.0653C62.0065 32.0706 62.091 32.0759 62.1544 32.06C69.8547 32.5832 76.9845 35.3659 82.7597 40.0512C92.8366 48.2327 97.8038 62.0984 95.4034 75.3695ZM67.8345 100.604C74.4177 98.6534 79.5512 93.8967 83.0686 88.0936C88.7963 78.6516 90.959 66.641 86.3484 56.319C81.9754 46.544 72.6352 39.9798 61.9642 39.2425C59.3261 39.0523 59.2548 35.0091 61.7978 35.0091L61.9642 35.0091C68.9277 35.4848 75.4634 37.9345 80.9059 42.3582C90.4599 50.1115 94.6666 62.8832 92.5038 74.87C90.1985 87.7368 82.0229 100.818 68.9515 104.671C68.7376 104.742 68.5237 104.766 68.3098 104.766C66.1708 104.766 65.4578 101.293 67.8345 100.604Z" fill-rule="evenodd"  fill="#55529F" >
</path>
<path d="M17.1411 99.5573C15.0021 99.5573 13.2672 97.8211 13.2672 95.6806C13.2672 93.5401 15.0021 91.8039 17.1411 91.8039L64.2458 91.8039C66.3847 91.8039 68.1197 93.5401 68.1197 95.6806C68.1197 97.8211 66.3847 99.5573 64.2458 99.5573L17.1411 99.5573Z"   fill="#F190B7" >
</path>
<path d="M11.7936 95.6807C11.7936 92.7316 14.194 90.3294 17.141 90.3294L64.2457 90.3294C67.1927 90.3294 69.5931 92.7316 69.5931 95.6807C69.5931 98.6298 67.1927 101.032 64.2457 101.032L17.141 101.032C14.194 101.032 11.7936 98.6298 11.7936 95.6807ZM14.7168 95.6806C14.7168 94.3488 15.81 93.2547 17.1409 93.2547L64.2457 93.2547C65.5766 93.2547 66.6698 94.3488 66.6698 95.6806C66.6698 97.0125 65.5766 98.1066 64.2457 98.1066L17.1409 98.1066C15.81 98.1066 14.7168 97.0125 14.7168 95.6806Z" fill-rule="evenodd"  fill="#55529F" >
</path>
<path d="M33.5397 18.884C32.7317 18.884 32.0662 18.2181 32.0662 17.4095L32.0662 9.98903C32.0662 9.1804 32.7317 8.51447 33.5397 8.51447L63.4377 8.51447C64.2458 8.51447 64.9112 9.1804 64.9112 9.98903L64.9112 17.4095C64.9112 18.2181 64.2458 18.884 63.4377 18.884L33.5397 18.884Z"   fill="#F5B5CA" >
</path>
<path d="M30.6165 9.98902C30.6165 8.37175 31.9237 7.06366 33.5398 7.06366L63.4377 7.06366C65.0538 7.06366 66.3848 8.37175 66.361 9.98902L66.361 17.4094C66.361 19.0267 65.0538 20.3348 63.4377 20.3348L33.5398 20.3348C31.9237 20.3348 30.6165 19.0267 30.6165 17.4094L30.6165 9.98902ZM33.5397 17.4095L33.5397 9.98906L63.4377 9.98906L63.4377 17.4095L33.5397 17.4095Z" fill-rule="evenodd"  fill="#55529F" >
</path>
<path d="M61.5602 68.9718L33.2308 62.4552C32.8505 62.3601 32.5178 62.1222 32.3277 61.813C32.1138 61.4801 32.0662 61.0757 32.1375 60.719L33.6586 54.0834C33.8249 53.3937 34.4191 52.9418 35.0845 52.9418C35.2034 52.9418 35.2984 52.9656 35.4173 52.9894L63.7467 59.506C64.1269 59.6012 64.4596 59.839 64.6498 60.1482C64.8637 60.4812 64.9112 60.8855 64.8399 61.2422L63.3189 67.8778C63.1525 68.5675 62.5583 69.0194 61.8929 69.0194C61.7741 69.0194 61.679 68.9956 61.5602 68.9718Z"   fill="#D3D3EB" >
</path>
<path d="M63.4614 70.0421C63.0099 70.3513 62.4633 70.494 61.9166 70.494C61.679 70.494 61.4651 70.4702 61.2512 70.4227L32.9218 63.906C31.3532 63.5255 30.3788 61.9558 30.7353 60.3861L32.2563 53.7505C32.4465 52.9894 32.898 52.3235 33.5635 51.9192C34.015 51.61 34.5617 51.4673 35.1083 51.4673C35.3222 51.4673 35.5361 51.4911 35.7737 51.5386L64.1031 58.0553C65.6717 58.4358 66.6461 60.0055 66.2896 61.5752L64.7686 68.2108C64.5785 68.9719 64.1269 69.6378 63.4614 70.0421ZM61.9167 67.5448L33.5873 61.0281L35.1083 54.3926L63.4377 60.9092L61.9167 67.5448Z" fill-rule="evenodd"  fill="#55529F" >
</path>
<path d="M60.0866 44.4749C56.4741 44.4749 53.5509 41.5495 53.5509 37.9345C53.5509 34.3194 56.4741 31.394 60.0866 31.394C63.6991 31.394 66.6223 34.3194 66.6223 37.9345C66.5985 41.5495 63.6753 44.4749 60.0866 44.4749Z"   fill="#FCBF25" >
</path>
<path d="M60.0867 45.9733C55.6661 45.9733 52.0774 42.382 52.0774 37.9583C52.0774 33.5346 55.6661 29.9433 60.0867 29.9433C64.4834 29.9433 68.0721 33.5346 68.0959 37.9583C68.0959 42.382 64.5072 45.9733 60.0867 45.9733ZM60.0867 43.0003C57.2823 43.0003 55.0245 40.7171 55.0245 37.9345C55.0007 35.1518 57.2823 32.8686 60.0867 32.8686C62.8911 32.8686 65.1489 35.1518 65.1489 37.9345C65.1489 40.7409 62.8674 43.0003 60.0867 43.0003Z" fill-rule="evenodd"  fill="#55529F" >
</path>
<path d="M55.0007 119.773C54.1926 119.773 53.5272 119.107 53.5272 118.298L53.5272 98.6772C53.5272 92.8978 58.2329 88.1887 63.9843 88.1887C69.7595 88.1887 74.4415 92.8978 74.4415 98.6772L74.4415 118.298C74.4415 119.107 73.776 119.773 72.968 119.773L55.0007 119.773Z"   fill="#D3D3EB" >
</path>
<path d="M52.0774 118.299L52.0774 98.6773C52.0774 92.0893 57.4248 86.738 64.0081 86.738C70.5913 86.738 75.9388 92.0893 75.9388 98.6773L75.9388 118.299C75.9388 119.916 74.6316 121.224 73.0155 121.224L55.0007 121.224C53.3846 121.224 52.0774 119.916 52.0774 118.299ZM55.0006 118.299L55.0006 98.6772C55.0006 93.7065 59.0409 89.6633 64.008 89.6633C68.9752 89.6633 73.0154 93.7065 73.0154 98.6772L73.0154 118.299L55.0006 118.299Z" fill-rule="evenodd"  fill="#55529F" >
</path>
<path d="M12.7681 128.549C9.63091 128.549 7.06415 125.981 7.06415 122.841L7.06415 121.176C7.06415 118.037 9.63091 115.468 12.7681 115.468L76.7944 115.468C79.9315 115.468 82.4983 118.037 82.4983 121.176L82.4983 122.841C82.4983 125.981 79.9315 128.549 76.7944 128.549L12.7681 128.549Z"   fill="#F5B5CA" >
</path>
<path d="M5.61438 121.176C5.61438 117.228 8.82283 114.018 12.768 114.018L76.7943 114.018C80.7395 114.018 83.9718 117.228 83.9718 121.176L83.9718 122.841C83.9718 126.789 80.7395 130 76.7943 130L12.768 130C8.82283 130 5.61438 126.789 5.61438 122.841L5.61438 121.176ZM8.53758 121.176C8.53758 118.846 10.4389 116.943 12.768 116.943L76.7942 116.943C79.1233 116.943 81.0246 118.846 81.0246 121.176L81.0246 122.841C81.0246 125.172 79.1233 127.075 76.7942 127.075L12.768 127.075C10.4389 127.075 8.53758 125.172 8.53758 122.841L8.53758 121.176Z" fill-rule="evenodd"  fill="#55529F" >
</path>
<path d="M35.0133 115.587C33.6111 115.587 32.4703 114.446 32.4703 113.042L32.4703 109.594C32.4703 108.191 33.6111 107.049 35.0133 107.049L38.7921 107.049C40.1943 107.049 41.3351 108.191 41.3351 109.594L41.3351 113.042C41.3351 114.446 40.1943 115.587 38.7921 115.587L35.0133 115.587Z"   fill="#D3D3EB" >
</path>
<path d="M30.9968 109.594C30.9968 107.382 32.803 105.574 35.0133 105.574L38.7921 105.574C41.0024 105.574 42.7848 107.382 42.8086 109.594L42.8086 113.042C42.8086 115.254 41.0024 117.062 38.7921 117.062L35.0133 117.062C32.803 117.062 30.9968 115.254 30.9968 113.042L30.9968 109.594ZM33.9438 109.594C33.9438 108.999 34.4191 108.524 35.0132 108.524L38.7921 108.524C39.3862 108.524 39.8616 108.999 39.8616 109.594L39.8616 113.042C39.8616 113.637 39.3862 114.113 38.7921 114.113L35.0132 114.113C34.4191 114.113 33.9438 113.637 33.9438 113.042L33.9438 109.594Z" fill-rule="evenodd"  fill="#55529F" >
</path>
<path d="M26.0772 109.927C24.3423 109.927 22.9401 108.524 22.9401 106.787C22.9401 105.051 24.3423 103.648 26.0772 103.648L46.5637 103.648C48.2987 103.648 49.7009 105.051 49.7009 106.787C49.7009 108.524 48.2987 109.927 46.5637 109.927L26.0772 109.927Z"   fill="#D3D3EB" >
</path>
<path d="M21.4902 106.811C21.4902 104.29 23.5341 102.221 26.0771 102.221L46.5399 102.221C49.0829 102.221 51.1268 104.266 51.1505 106.811C51.1505 109.332 49.1066 111.401 46.5636 111.401L26.0771 111.401C23.5579 111.401 21.4902 109.356 21.4902 106.811ZM24.4135 106.811C24.4135 105.884 25.1503 105.146 26.0772 105.146L46.5399 105.146C47.4668 105.146 48.2036 105.884 48.2036 106.811C48.2036 107.739 47.4668 108.476 46.5399 108.476L26.0772 108.476C25.1503 108.476 24.4135 107.739 24.4135 106.811Z" fill-rule="evenodd"  fill="#55529F" >
</path>
<path d="M68.0382 99.9482C70.2657 102.177 70.2657 105.791 68.0382 108.021C65.8107 110.25 62.1992 110.25 59.9717 108.021C57.7442 105.791 57.7442 102.177 59.9717 99.9482C62.1992 97.7191 65.8107 97.7191 68.0382 99.9482Z"   fill="#FCBF25" >
</path>
<path d="M64.0081 111.14C60.0629 111.14 56.8545 107.929 56.8545 103.981C56.8545 100.033 60.0629 96.8222 64.0081 96.8222C67.9533 96.8222 71.1855 100.033 71.1855 103.981C71.1855 107.929 67.9533 111.14 64.0081 111.14ZM64.0081 108.214C61.679 108.214 59.7777 106.312 59.7777 103.981C59.7777 101.65 61.679 99.7476 64.0081 99.7476C66.3372 99.7476 68.2385 101.65 68.2385 103.981C68.2385 106.312 66.3372 108.214 64.0081 108.214Z" fill-rule="evenodd"  fill="#55529F" >
</path>
<path d="M79.3136 11.5349L78.8382 11.749C78.5055 11.8917 78.149 11.963 77.7688 11.963C76.9369 11.963 76.1527 11.5825 75.6536 10.9166C75.1545 10.2506 74.9643 9.4182 75.1782 8.60956L75.2971 8.11011L74.9643 7.72958C74.2751 6.94473 74.1088 5.87448 74.489 4.92314C74.893 3.9718 75.7724 3.32965 76.7943 3.2583L77.3172 3.23452L77.5786 2.78263C78.0777 1.95022 78.9333 1.47455 79.884 1.47455C81.001 1.47455 81.9754 2.14048 82.3794 3.16317L82.5695 3.63884L83.0686 3.75775C84.0668 3.9718 84.8511 4.75666 85.0888 5.75556C85.3264 6.75446 84.9937 7.80093 84.2094 8.44308L83.8054 8.77605L83.8529 9.29928C83.9242 10.0604 83.6866 10.7976 83.1637 11.3447C82.6646 11.8917 81.9279 12.2009 81.1673 12.2009C80.6682 12.2009 80.1692 12.0582 79.7414 11.7965L79.3136 11.5349Z"   fill="#FFE691" >
</path>
<path d="M76.4615 1.83132C77.2221 0.665934 78.4817 0 79.8839 0C81.5 0 82.9497 0.927552 83.6627 2.44969C85.0887 2.87779 86.1819 3.99561 86.5384 5.47018C86.8949 6.94474 86.4434 8.4431 85.3501 9.46578C85.3976 10.536 85.0174 11.6063 84.2806 12.3911C83.4963 13.2473 82.3793 13.7468 81.2148 13.7468C80.5018 13.7468 79.8363 13.5565 79.2184 13.2236C78.7669 13.3663 78.2915 13.4614 77.8162 13.4614C76.5566 13.4614 75.3207 12.843 74.5365 11.8441C73.7997 10.8928 73.5145 9.67983 73.7284 8.51445C72.8015 7.32528 72.5876 5.77936 73.158 4.37614C73.7284 2.97292 74.988 2.02159 76.4615 1.83132ZM76.0814 6.73064C75.4159 5.96957 75.915 4.75662 76.9132 4.70905L77.5549 4.66149C77.9589 4.6377 78.3154 4.39987 78.5293 4.0669L78.862 3.51988C79.0522 3.11557 79.48 2.9253 79.884 2.9253C80.3593 2.9253 80.8109 3.18692 81.0248 3.68637L81.2624 4.28095C81.405 4.66149 81.7378 4.9231 82.1418 5.01824L82.7597 5.16094C83.7579 5.37499 84.0669 6.63551 83.2826 7.30144L82.7835 7.70576C82.4745 7.96738 82.3082 8.34791 82.3557 8.75223L82.4032 9.39438C82.4745 10.1554 81.8566 10.7262 81.1911 10.7262C80.9772 10.7262 80.7396 10.6787 80.5494 10.536L80.0028 10.203C79.8127 10.0841 79.575 10.0127 79.3611 10.0127C79.1948 10.0127 79.0284 10.0365 78.8858 10.1079L78.2916 10.3695C78.1253 10.4408 77.9589 10.4646 77.7926 10.4646C77.032 10.4646 76.4141 9.75113 76.6042 8.94249L76.7706 8.32413C76.8657 7.94359 76.7706 7.51549 76.5092 7.20631L76.0814 6.73064Z" fill-rule="evenodd"  fill="#55529F" >
</path>
<path d="M81.3099 21.0721L81.3574 21.191L81.4763 21.2148C82.3556 21.4051 83.0211 22.071 83.235 22.9272C83.4489 23.7834 83.1399 24.6872 82.4745 25.258L82.3794 25.3294L82.4032 25.4483C82.4745 26.0904 82.2368 26.7326 81.809 27.232C81.3812 27.7315 80.7633 28.0169 80.0978 28.0169C79.67 28.0169 79.2422 27.898 78.862 27.6601L78.7432 27.5888L78.6243 27.6363C78.3391 27.7553 78.0302 27.8266 77.6974 27.8266C76.9845 27.8266 76.319 27.4936 75.8674 26.9228C75.4159 26.352 75.2733 25.6385 75.4396 24.925L75.4634 24.8061L75.3683 24.711C74.7742 24.045 74.6316 23.1175 74.9643 22.3089C75.2971 21.5002 76.0576 20.9294 76.9607 20.8819L77.0795 20.8819L77.1508 20.7629C77.5786 20.0494 78.3154 19.6213 79.1472 19.6213C80.0978 19.6213 80.9534 20.1921 81.3099 21.0721Z"   fill="#DEDBEF" >
</path>
<path d="M79.1947 18.1467C80.5494 18.1467 81.7615 18.8602 82.4269 19.9543C83.5439 20.4061 84.3995 21.3575 84.6847 22.5704C84.9699 23.7596 84.661 25.0201 83.8767 25.9239C83.8054 26.7801 83.4726 27.5887 82.9023 28.2071C82.1893 28.992 81.1673 29.4438 80.0978 29.4438C79.575 29.4438 79.0759 29.3487 78.6243 29.1584C78.3391 29.2298 78.0302 29.2774 77.7212 29.2774C76.5567 29.2774 75.4397 28.7303 74.7267 27.8266C74.1325 27.0655 73.8711 26.1379 73.9424 25.1866C73.3007 24.1639 73.1819 22.8796 73.6572 21.738C74.1325 20.5964 75.1069 19.7878 76.2952 19.5024C77.0082 18.6462 78.0539 18.1467 79.1947 18.1467ZM80.0741 26.5422C79.9315 26.5422 79.7651 26.4946 79.6225 26.3995L79.2422 26.1617C79.0996 26.0665 78.957 26.019 78.7907 26.019C78.6718 26.019 78.553 26.0428 78.4579 26.0903L78.0539 26.2568C77.9351 26.3044 77.8163 26.3282 77.7212 26.3282C77.1983 26.3282 76.7468 25.8287 76.8894 25.2579L77.0082 24.8298C77.0795 24.5682 77.0082 24.259 76.8181 24.045L76.5329 23.712C76.0576 23.1887 76.414 22.3325 77.127 22.285L77.5786 22.2612C77.8638 22.2374 78.1015 22.0947 78.2678 21.8331L78.5055 21.4526C78.6243 21.2147 78.9095 21.072 79.1947 21.072C79.5274 21.072 79.8602 21.2623 79.979 21.619L80.1454 22.0234C80.2404 22.285 80.4781 22.4752 80.7395 22.5466L81.1673 22.6417C81.8565 22.8082 82.0704 23.6882 81.5238 24.1401L81.1911 24.4255C80.9772 24.6158 80.8583 24.8774 80.8821 25.1628L80.9296 25.6147C80.9772 26.1379 80.5494 26.5422 80.0741 26.5422Z" fill-rule="evenodd"  fill="#55529F" >
</path>
<path d="M9.10803 109.713C9.17933 110.379 8.9892 111.021 8.53764 111.52C8.10985 112.044 7.46816 112.329 6.8027 112.329C6.39868 112.329 5.99465 112.21 5.63816 111.996L5.51932 111.925L5.40049 111.972C5.09153 112.115 4.7588 112.186 4.42608 112.186C3.71309 112.186 3.0714 111.877 2.61984 111.306C2.16828 110.759 2.02569 110.046 2.16828 109.356L2.19205 109.237L2.09698 109.142C1.47906 108.5 1.3127 107.572 1.62166 106.74C1.93062 105.907 2.69114 105.337 3.57049 105.241L3.68932 105.241L3.76062 105.123C4.16465 104.385 4.94893 103.933 5.78075 103.933C6.70764 103.933 7.53946 104.48 7.89595 105.337L7.94348 105.456L8.06231 105.479C8.94166 105.646 9.63089 106.288 9.86855 107.144C10.1062 108 9.84478 108.904 9.17933 109.499L9.08426 109.594L9.10803 109.713Z"   fill="#47ACE2" >
</path>
<path d="M11.2707 106.787C11.6035 107.977 11.3183 109.237 10.5578 110.165C10.5102 111.045 10.1775 111.877 9.60711 112.519C8.89412 113.328 7.87217 113.804 6.77892 113.804C6.32736 113.804 5.85204 113.708 5.42424 113.542C5.09152 113.637 4.75879 113.685 4.4023 113.685C3.26152 113.685 2.16827 113.161 1.45528 112.258C0.861123 111.52 0.575928 110.617 0.623461 109.689C-0.0419945 108.69 -0.184592 107.43 0.243201 106.264C0.694759 105.099 1.64541 104.243 2.80996 103.933C3.52294 103.053 4.61619 102.506 5.78074 102.506C7.08788 102.506 8.2762 103.149 8.94165 104.243C10.0824 104.647 10.938 105.598 11.2707 106.787ZM7.80093 106.954C8.49015 107.097 8.72782 107.953 8.20496 108.428L7.87223 108.714C7.65833 108.904 7.56327 109.19 7.58704 109.451L7.63457 109.903C7.70587 110.45 7.27807 110.854 6.77898 110.854C6.63639 110.854 6.49379 110.807 6.35119 110.735L5.97093 110.498C5.82833 110.426 5.68574 110.379 5.54314 110.379C5.42431 110.379 5.30547 110.402 5.18664 110.45L4.78262 110.64C4.66379 110.688 4.54495 110.712 4.42612 110.712C3.90327 110.712 3.47547 110.236 3.5943 109.665L3.68937 109.237C3.76067 108.952 3.6656 108.666 3.47547 108.476L3.16651 108.143C2.69119 107.62 3.00015 106.787 3.71314 106.716L4.16469 106.669C4.44989 106.645 4.68755 106.478 4.83015 106.24L5.04405 105.86C5.21041 105.574 5.4956 105.432 5.7808 105.432C6.08976 105.432 6.42249 105.598 6.56509 105.955L6.75522 106.359C6.87405 106.621 7.11171 106.811 7.37314 106.859L7.80093 106.954Z" fill-rule="evenodd"  fill="#55529F" >
</path>
<path    stroke="rgba(255, 255, 255, 1.00)" stroke-width="2" stroke-linejoin="round" stroke-linecap="round"  d="M41.858 29.1109L41.858 29.1109ZM41.858 29.1109L41.858 25.3055">
</path>
<path    stroke="rgba(255, 255, 255, 1.00)" stroke-width="2" stroke-linejoin="round" stroke-linecap="round"  d="M55.5236 53.1559L55.5236 53.1559ZM55.5236 53.1559L55.5236 50.2781">
</path>
<path    stroke="rgba(255, 255, 255, 1.00)" stroke-width="2" stroke-linejoin="round" stroke-linecap="round"  d="M66.4323 93.0405C67.8582 93.5875 69.0703 94.634 69.7833 95.9659">
</path>
<path    stroke="rgba(255, 255, 255, 1.00)" stroke-width="2" stroke-linejoin="round" stroke-linecap="round"  d="M12.1501 124.244C12.1025 122.865 12.055 121.509 12.0312 120.13">
</path>
<path    stroke="rgba(255, 255, 255, 1.00)" stroke-width="2" stroke-linejoin="round" stroke-linecap="round"  d="M60.1818 34.8189C61.4176 34.8189 62.5584 35.9129 62.6297 37.1497">
</path>
</svg>
